<svg width="60" height="60" viewBox="0 0 60 60" fill="none" xmlns="http://www.w3.org/2000/svg">
<path d="M20.3545 10.3182H15.8727H13.5M39.7546 9H46.741C48.2698 9 49.5092 10.2394 49.5092 11.7682V11.7682C49.5092 13.297 48.2698 14.5364 46.741 14.5364H46.3456" stroke="#5ABD32" stroke-width="2" stroke-linecap="round" stroke-linejoin="round"/>
<path d="M19.1456 21.9091H42.391M19.1456 21.9091L30.0001 43.0455M19.1456 21.9091L10.7546 43.0455H30.0001M19.1456 21.9091L15.8727 15.3182M42.391 21.9091L30.0001 43.0455M42.391 21.9091L48.4547 42.5182M42.391 21.9091L39.7546 14H46.741C48.2698 14 49.5092 15.2394 49.5092 16.7682V16.7682C49.5092 18.297 48.2698 19.5364 46.741 19.5364H46.3456M15.8727 15.3182H20.3545M15.8727 15.3182H13.5" stroke="#5460A8" stroke-width="2" stroke-linecap="round" stroke-linejoin="round"/>
<path d="M58 42C58 47.5228 53.5228 52 48 52C42.4772 52 38 47.5228 38 42C38 36.4772 42.4772 32 48 32C53.5228 32 58 36.4772 58 42Z" stroke="#5460A8" stroke-width="2" stroke-linecap="round" stroke-linejoin="round"/>
<path d="M33.6364 42.5181C33.6364 44.2654 32.2199 45.6818 30.4727 45.6818C28.7255 45.6818 27.3091 44.2654 27.3091 42.5181C27.3091 40.7709 28.7255 39.3545 30.4727 39.3545C32.2199 39.3545 33.6364 40.7709 33.6364 42.5181Z" fill="white" stroke="#5460A8" stroke-width="2" stroke-linecap="round" stroke-linejoin="round"/>
<circle cx="12" cy="42" r="10" stroke="#5460A8" stroke-width="2" stroke-linecap="round" stroke-linejoin="round"/>
</svg>
