<svg width="56" height="58" viewBox="0 0 56 58" fill="none" xmlns="http://www.w3.org/2000/svg">
<path d="M5 16H46.5C48.9853 16 51 18.0147 51 20.5V20.5C51 22.9853 48.9853 25 46.5 25H7C4.79086 25 3 26.7909 3 29V53C3 55.2091 4.79086 57 7 57H43C47.4183 57 51 53.4183 51 49V41.5" stroke="#5460A8" stroke-width="2" stroke-linecap="round" stroke-linejoin="round"/>
<path d="M55 43L51 39L47 43" stroke="#5460A8" stroke-width="2" stroke-linecap="round" stroke-linejoin="round"/>
<mask id="mask0_5112_2695" style="mask-type:alpha" maskUnits="userSpaceOnUse" x="7" y="-1" width="43" height="25">
<path d="M7 -1H50V24H7V-1Z" fill="#C4C4C4"/>
</mask>
<g mask="url(#mask0_5112_2695)">
<rect x="8" y="45" width="41" height="28" rx="3" transform="rotate(-90 8 45)" fill="white" stroke="#5460A8" stroke-width="2" stroke-linecap="round" stroke-linejoin="round"/>
<rect x="13" y="45" width="41" height="28" rx="3" transform="rotate(-90 13 45)" fill="white" stroke="#5460A8" stroke-width="2" stroke-linecap="round" stroke-linejoin="round"/>
<rect x="18" y="45" width="41" height="28" rx="3" transform="rotate(-90 18 45)" fill="white" stroke="#5ABD32" stroke-width="2" stroke-linecap="round" stroke-linejoin="round"/>
<path d="M25 22L24 22" stroke="#5ABD32" stroke-width="2" stroke-linecap="round" stroke-linejoin="round"/>
<path d="M25 18L24 18" stroke="#5ABD32" stroke-width="2" stroke-linecap="round" stroke-linejoin="round"/>
<path d="M25 14L24 14" stroke="#5ABD32" stroke-width="2" stroke-linecap="round" stroke-linejoin="round"/>
<path d="M25 10L24 10" stroke="#5ABD32" stroke-width="2" stroke-linecap="round" stroke-linejoin="round"/>
<path d="M38 22L38 18" stroke="#5ABD32" stroke-width="2" stroke-linecap="round" stroke-linejoin="round"/>
<path d="M38 14L38 10" stroke="#5ABD32" stroke-width="2" stroke-linecap="round" stroke-linejoin="round"/>
</g>
<path d="M9 40C9 38.3431 7.65685 37 6 37H2C1.44772 37 1 37.4477 1 38V46C1 46.5523 1.44772 47 2 47H6C7.65685 47 9 45.6569 9 44V40Z" fill="white" stroke="#5460A8" stroke-width="2" stroke-linecap="round" stroke-linejoin="round"/>
<path d="M5 41L5 43" stroke="#5460A8" stroke-width="2" stroke-linecap="round" stroke-linejoin="round"/>
<path d="M18.5249 49.23C17.2829 49.23 16.3399 48.885 15.6959 48.195C15.0673 47.505 14.7529 46.516 14.7529 45.228V43.917H17.1449V45.343C17.1449 46.401 17.5819 46.93 18.4559 46.93C18.8853 46.93 19.2073 46.7997 19.4219 46.539C19.6519 46.263 19.7669 45.7877 19.7669 45.113V43.802C19.7669 43.066 19.6366 42.5447 19.3759 42.238C19.1153 41.916 18.6936 41.755 18.1109 41.755H17.2599V39.455H18.1799C18.6859 39.455 19.0616 39.3247 19.3069 39.064C19.5676 38.8033 19.6979 38.3663 19.6979 37.753V36.58C19.6979 36.028 19.5829 35.6217 19.3529 35.361C19.1229 35.1003 18.8163 34.97 18.4329 34.97C17.6203 34.97 17.2139 35.4683 17.2139 36.465V37.523H14.8219V36.672C14.8219 35.384 15.1363 34.395 15.7649 33.705C16.4089 33.015 17.3289 32.67 18.5249 32.67C19.7363 32.67 20.6563 33.015 21.2849 33.705C21.9136 34.3797 22.2279 35.361 22.2279 36.649V37.224C22.2279 38.098 22.0823 38.8033 21.7909 39.34C21.4996 39.8613 21.0473 40.237 20.4339 40.467V40.513C21.0933 40.7583 21.5686 41.157 21.8599 41.709C22.1513 42.261 22.2969 42.9663 22.2969 43.825V45.251C22.2969 46.539 21.9749 47.528 21.3309 48.218C20.7023 48.8927 19.7669 49.23 18.5249 49.23ZM27.4955 49.23C26.2535 49.23 25.3028 48.8773 24.6435 48.172C23.9841 47.4667 23.6545 46.47 23.6545 45.182V36.856C23.6545 34.0653 24.9425 32.67 27.5185 32.67C28.7451 32.67 29.6805 33.0227 30.3245 33.728C30.9685 34.418 31.2905 35.4147 31.2905 36.718V37.017H28.8985V36.557C28.8985 35.499 28.4615 34.97 27.5875 34.97C27.1121 34.97 26.7595 35.1157 26.5295 35.407C26.2995 35.6983 26.1845 36.212 26.1845 36.948V40.03H26.2305C26.6751 39.0947 27.4418 38.627 28.5305 38.627C29.4505 38.627 30.1481 38.9413 30.6235 39.57C31.0988 40.1987 31.3365 41.111 31.3365 42.307V45.182C31.3365 46.47 31.0068 47.4667 30.3475 48.172C29.6881 48.8773 28.7375 49.23 27.4955 49.23ZM27.4955 46.93C28.3695 46.93 28.8065 46.4087 28.8065 45.366V42.514C28.8065 41.456 28.3695 40.927 27.4955 40.927C26.6215 40.927 26.1845 41.456 26.1845 42.514V45.366C26.1845 46.4087 26.6215 46.93 27.4955 46.93ZM36.3408 49.23C35.1141 49.23 34.1788 48.885 33.5348 48.195C32.8908 47.4897 32.5688 46.4853 32.5688 45.182V43.917H34.9608V45.366C34.9608 46.4087 35.3978 46.93 36.2718 46.93C37.1458 46.93 37.5828 46.4087 37.5828 45.366V41.755C37.5828 40.697 37.1458 40.168 36.2718 40.168C35.3978 40.168 34.9608 40.697 34.9608 41.755V41.893H32.5688L33.0288 32.9H39.6988V35.2H35.2828L35.0758 39.041H35.1218C35.5971 38.259 36.3254 37.868 37.3068 37.868C38.2268 37.868 38.9244 38.1823 39.3998 38.811C39.8751 39.4397 40.1128 40.352 40.1128 41.548V45.182C40.1128 46.4853 39.7908 47.4897 39.1468 48.195C38.5028 48.885 37.5674 49.23 36.3408 49.23Z" fill="#5460A8"/>
<path d="M15.6959 48.195L15.622 48.2624L15.6228 48.2632L15.6959 48.195ZM14.7529 43.917V43.817H14.6529V43.917H14.7529ZM17.1449 43.917H17.2449V43.817H17.1449V43.917ZM19.4219 46.539L19.3451 46.475L19.3447 46.4754L19.4219 46.539ZM19.3759 42.238L19.2982 42.3009L19.2997 42.3028L19.3759 42.238ZM17.2599 41.755H17.1599V41.855H17.2599V41.755ZM17.2599 39.455V39.355H17.1599V39.455H17.2599ZM19.3069 39.064L19.2362 38.9933L19.2341 38.9955L19.3069 39.064ZM19.3529 35.361L19.4279 35.2948L19.4279 35.2948L19.3529 35.361ZM17.2139 37.523V37.623H17.3139V37.523H17.2139ZM14.8219 37.523H14.7219V37.623H14.8219V37.523ZM15.7649 33.705L15.6918 33.6368L15.691 33.6377L15.7649 33.705ZM21.2849 33.705L21.211 33.7724L21.2118 33.7732L21.2849 33.705ZM21.7909 39.34L21.8782 39.3888L21.8788 39.3877L21.7909 39.34ZM20.4339 40.467L20.3988 40.3734L20.3339 40.3977V40.467H20.4339ZM20.4339 40.513H20.3339V40.5825L20.3991 40.6067L20.4339 40.513ZM21.8599 41.709L21.9484 41.6623L21.9484 41.6623L21.8599 41.709ZM21.3309 48.218L21.2578 48.1498L21.2578 48.1498L21.3309 48.218ZM18.5249 49.13C17.3015 49.13 16.3887 48.7906 15.769 48.1268L15.6228 48.2632C16.2912 48.9794 17.2644 49.33 18.5249 49.33V49.13ZM15.7699 48.1277C15.1634 47.4621 14.8529 46.5006 14.8529 45.228H14.6529C14.6529 46.5314 14.9711 47.5479 15.622 48.2623L15.7699 48.1277ZM14.8529 45.228V43.917H14.6529V45.228H14.8529ZM14.7529 44.017H17.1449V43.817H14.7529V44.017ZM17.0449 43.917V45.343H17.2449V43.917H17.0449ZM17.0449 45.343C17.0449 45.8833 17.1561 46.3071 17.3956 46.5969C17.6381 46.8905 17.998 47.03 18.4559 47.03V46.83C18.0399 46.83 17.7443 46.705 17.5498 46.4696C17.3523 46.2304 17.2449 45.8607 17.2449 45.343H17.0449ZM18.4559 47.03C18.9064 47.03 19.2605 46.8923 19.4991 46.6026L19.3447 46.4754C19.154 46.707 18.8642 46.83 18.4559 46.83V47.03ZM19.4988 46.603C19.7522 46.2989 19.8669 45.7931 19.8669 45.113H19.6669C19.6669 45.7822 19.5517 46.2271 19.3451 46.475L19.4988 46.603ZM19.8669 45.113V43.802H19.6669V45.113H19.8669ZM19.8669 43.802C19.8669 43.0597 19.7366 42.5079 19.4521 42.1732L19.2997 42.3028C19.5366 42.5815 19.6669 43.0723 19.6669 43.802H19.8669ZM19.4537 42.1751C19.1672 41.8212 18.7109 41.655 18.1109 41.655V41.855C18.6763 41.855 19.0634 42.0108 19.2982 42.3009L19.4537 42.1751ZM18.1109 41.655H17.2599V41.855H18.1109V41.655ZM17.3599 41.755V39.455H17.1599V41.755H17.3599ZM17.2599 39.555H18.1799V39.355H17.2599V39.555ZM18.1799 39.555C18.7019 39.555 19.1088 39.4204 19.3798 39.1325L19.2341 38.9955C19.0144 39.2289 18.67 39.355 18.1799 39.355V39.555ZM19.3776 39.1347C19.6662 38.8461 19.7979 38.3762 19.7979 37.753H19.5979C19.5979 38.3565 19.469 38.7606 19.2362 38.9933L19.3776 39.1347ZM19.7979 37.753V36.58H19.5979V37.753H19.7979ZM19.7979 36.58C19.7979 36.0172 19.6812 35.5819 19.4279 35.2948L19.278 35.4272C19.4847 35.6614 19.5979 36.0388 19.5979 36.58H19.7979ZM19.4279 35.2948C19.1769 35.0103 18.8417 34.87 18.4329 34.87V35.07C18.7909 35.07 19.069 35.1904 19.278 35.4272L19.4279 35.2948ZM18.4329 34.87C18.0052 34.87 17.6682 35.0021 17.4412 35.2806C17.2174 35.5551 17.1139 35.9556 17.1139 36.465H17.3139C17.3139 35.9777 17.4137 35.6308 17.5962 35.4069C17.7755 35.187 18.048 35.07 18.4329 35.07V34.87ZM17.1139 36.465V37.523H17.3139V36.465H17.1139ZM17.2139 37.423H14.8219V37.623H17.2139V37.423ZM14.9219 37.523V36.672H14.7219V37.523H14.9219ZM14.9219 36.672C14.9219 35.3994 15.2324 34.4379 15.8389 33.7723L15.691 33.6377C15.0401 34.3521 14.7219 35.3686 14.7219 36.672H14.9219ZM15.838 33.7732C16.4584 33.1086 17.3488 32.77 18.5249 32.77V32.57C17.3091 32.57 16.3595 32.9214 15.6918 33.6368L15.838 33.7732ZM18.5249 32.77C19.717 32.77 20.6065 33.1089 21.211 33.7723L21.3589 33.6377C20.706 32.9211 19.7555 32.57 18.5249 32.57V32.77ZM21.2118 33.7732C21.8174 34.4231 22.1279 35.3762 22.1279 36.649H22.3279C22.3279 35.3458 22.0098 34.3363 21.3581 33.6368L21.2118 33.7732ZM22.1279 36.649V37.224H22.3279V36.649H22.1279ZM22.1279 37.224C22.1279 38.0881 21.9837 38.7752 21.7031 39.2923L21.8788 39.3877C22.1808 38.8314 22.3279 38.1079 22.3279 37.224H22.1279ZM21.7036 39.2912C21.425 39.7899 20.9923 40.1508 20.3988 40.3734L20.4691 40.5606C21.1022 40.3232 21.5742 39.9328 21.8782 39.3888L21.7036 39.2912ZM20.3339 40.467V40.513H20.5339V40.467H20.3339ZM20.3991 40.6067C21.0385 40.8447 21.4931 41.2282 21.7715 41.7557L21.9484 41.6623C21.6441 41.0858 21.148 40.672 20.4688 40.4193L20.3991 40.6067ZM21.7715 41.7557C22.0529 42.2889 22.1969 42.9768 22.1969 43.825H22.3969C22.3969 42.9559 22.2496 42.2331 21.9484 41.6623L21.7715 41.7557ZM22.1969 43.825V45.251H22.3969V43.825H22.1969ZM22.1969 45.251C22.1969 46.523 21.8791 47.4842 21.2578 48.1498L21.404 48.2862C22.0708 47.5718 22.3969 46.555 22.3969 45.251H22.1969ZM21.2578 48.1498C20.6539 48.7979 19.7492 49.13 18.5249 49.13V49.33C19.7847 49.33 20.7506 48.9875 21.4041 48.2862L21.2578 48.1498ZM24.6435 48.172L24.7165 48.1037L24.7165 48.1037L24.6435 48.172ZM30.3245 33.728L30.2506 33.7954L30.2514 33.7962L30.3245 33.728ZM31.2905 37.017V37.117H31.3905V37.017H31.2905ZM28.8985 37.017H28.7985V37.117H28.8985V37.017ZM26.1845 40.03H26.0845V40.13H26.1845V40.03ZM26.2305 40.03V40.13H26.2937L26.3208 40.0729L26.2305 40.03ZM30.6235 39.57L30.7032 39.5097L30.7032 39.5097L30.6235 39.57ZM30.3475 48.172L30.2744 48.1037L30.2744 48.1037L30.3475 48.172ZM27.4955 49.13C26.2728 49.13 25.3519 48.7834 24.7165 48.1037L24.5704 48.2403C25.2537 48.9713 26.2342 49.33 27.4955 49.33V49.13ZM24.7165 48.1037C24.0796 47.4224 23.7545 46.4533 23.7545 45.182H23.5545C23.5545 46.4867 23.8887 47.511 24.5704 48.2403L24.7165 48.1037ZM23.7545 45.182V36.856H23.5545V45.182H23.7545ZM23.7545 36.856C23.7545 35.4742 24.0735 34.4565 24.694 33.7843C25.313 33.1137 26.248 32.77 27.5185 32.77V32.57C26.2129 32.57 25.216 32.924 24.547 33.6487C23.8794 34.3719 23.5545 35.4471 23.5545 36.856H23.7545ZM27.5185 32.77C28.7255 32.77 29.6306 33.1164 30.2506 33.7954L30.3983 33.6606C29.7303 32.929 28.7648 32.57 27.5185 32.57V32.77ZM30.2514 33.7962C30.8724 34.4616 31.1905 35.4303 31.1905 36.718H31.3905C31.3905 35.3991 31.0645 34.3744 30.3976 33.6598L30.2514 33.7962ZM31.1905 36.718V37.017H31.3905V36.718H31.1905ZM31.2905 36.917H28.8985V37.117H31.2905V36.917ZM28.9985 37.017V36.557H28.7985V37.017H28.9985ZM28.9985 36.557C28.9985 36.0167 28.8873 35.5929 28.6478 35.3031C28.4053 35.0095 28.0455 34.87 27.5875 34.87V35.07C28.0035 35.07 28.2991 35.195 28.4936 35.4304C28.6912 35.6696 28.7985 36.0393 28.7985 36.557H28.9985ZM27.5875 34.87C27.0909 34.87 26.7051 35.0232 26.451 35.345L26.608 35.469C26.8139 35.2081 27.1334 35.07 27.5875 35.07V34.87ZM26.451 35.345C26.1987 35.6645 26.0845 36.2082 26.0845 36.948H26.2845C26.2845 36.2158 26.4002 35.7321 26.608 35.469L26.451 35.345ZM26.0845 36.948V40.03H26.2845V36.948H26.0845ZM26.1845 40.13H26.2305V39.93H26.1845V40.13ZM26.3208 40.0729C26.5361 39.6201 26.8267 39.2853 27.1911 39.0631C27.5557 38.8407 28.0006 38.727 28.5305 38.727V38.527C27.9717 38.527 27.489 38.6471 27.0869 38.8924C26.6845 39.1378 26.3695 39.5046 26.1402 39.9871L26.3208 40.0729ZM28.5305 38.727C29.4251 38.727 30.0906 39.031 30.5437 39.6303L30.7032 39.5097C30.2057 38.8516 29.4759 38.527 28.5305 38.527V38.727ZM30.5437 39.6303C31.0007 40.2347 31.2365 41.1221 31.2365 42.307H31.4365C31.4365 41.0999 31.1969 40.1626 30.7032 39.5097L30.5437 39.6303ZM31.2365 42.307V45.182H31.4365V42.307H31.2365ZM31.2365 45.182C31.2365 46.4533 30.9113 47.4224 30.2744 48.1037L30.4205 48.2403C31.1023 47.511 31.4365 46.4867 31.4365 45.182H31.2365ZM30.2744 48.1037C29.6391 48.7834 28.7182 49.13 27.4955 49.13V49.33C28.7568 49.33 29.7372 48.9713 30.4205 48.2403L30.2744 48.1037ZM27.4955 47.03C27.953 47.03 28.3127 46.8927 28.5554 46.6032C28.7952 46.3171 28.9065 45.8989 28.9065 45.366H28.7065C28.7065 45.8758 28.5993 46.2395 28.4021 46.4748C28.2077 46.7066 27.912 46.83 27.4955 46.83V47.03ZM28.9065 45.366V42.514H28.7065V45.366H28.9065ZM28.9065 42.514C28.9065 41.9737 28.7953 41.5499 28.5558 41.2601C28.3133 40.9665 27.9535 40.827 27.4955 40.827V41.027C27.9115 41.027 28.2071 41.152 28.4016 41.3874C28.5992 41.6266 28.7065 41.9963 28.7065 42.514H28.9065ZM27.4955 40.827C27.0375 40.827 26.6776 40.9665 26.4351 41.2601C26.1957 41.5499 26.0845 41.9737 26.0845 42.514H26.2845C26.2845 41.9963 26.3918 41.6266 26.5893 41.3874C26.7838 41.152 27.0795 41.027 27.4955 41.027V40.827ZM26.0845 42.514V45.366H26.2845V42.514H26.0845ZM26.0845 45.366C26.0845 45.8989 26.1958 46.3171 26.4356 46.6032C26.6782 46.8927 27.038 47.03 27.4955 47.03V46.83C27.079 46.83 26.7832 46.7066 26.5889 46.4748C26.3917 46.2395 26.2845 45.8758 26.2845 45.366H26.0845ZM33.5348 48.195L33.4609 48.2624L33.4617 48.2632L33.5348 48.195ZM32.5688 43.917V43.817H32.4688V43.917H32.5688ZM34.9608 43.917H35.0608V43.817H34.9608V43.917ZM34.9608 41.893V41.993H35.0608V41.893H34.9608ZM32.5688 41.893L32.4689 41.8879L32.4635 41.993H32.5688V41.893ZM33.0288 32.9V32.8H32.9338L32.9289 32.8949L33.0288 32.9ZM39.6988 32.9H39.7988V32.8H39.6988V32.9ZM39.6988 35.2V35.3H39.7988V35.2H39.6988ZM35.2828 35.2V35.1H35.188L35.1829 35.1946L35.2828 35.2ZM35.0758 39.041L34.9759 39.0356L34.9702 39.141H35.0758V39.041ZM35.1218 39.041V39.141H35.178L35.2072 39.0929L35.1218 39.041ZM39.3998 38.811L39.4795 38.7507L39.4795 38.7507L39.3998 38.811ZM39.1468 48.195L39.2199 48.2632L39.2206 48.2624L39.1468 48.195ZM36.3408 49.13C35.1331 49.13 34.2277 48.7909 33.6079 48.1268L33.4617 48.2632C34.1298 48.9791 35.0951 49.33 36.3408 49.33V49.13ZM33.6086 48.1276C32.9868 47.4465 32.6688 46.4696 32.6688 45.182H32.4688C32.4688 46.5011 32.7948 47.5328 33.4609 48.2624L33.6086 48.1276ZM32.6688 45.182V43.917H32.4688V45.182H32.6688ZM32.5688 44.017H34.9608V43.817H32.5688V44.017ZM34.8608 43.917V45.366H35.0608V43.917H34.8608ZM34.8608 45.366C34.8608 45.8989 34.9721 46.3171 35.2119 46.6032C35.4545 46.8927 35.8143 47.03 36.2718 47.03V46.83C35.8553 46.83 35.5595 46.7066 35.3652 46.4748C35.168 46.2395 35.0608 45.8758 35.0608 45.366H34.8608ZM36.2718 47.03C36.7293 47.03 37.089 46.8927 37.3317 46.6032C37.5715 46.3171 37.6828 45.8989 37.6828 45.366H37.4828C37.4828 45.8758 37.3756 46.2395 37.1784 46.4748C36.984 46.7066 36.6883 46.83 36.2718 46.83V47.03ZM37.6828 45.366V41.755H37.4828V45.366H37.6828ZM37.6828 41.755C37.6828 41.2147 37.5716 40.7909 37.3321 40.5011C37.0896 40.2075 36.7298 40.068 36.2718 40.068V40.268C36.6878 40.268 36.9834 40.393 37.1779 40.6284C37.3755 40.8676 37.4828 41.2373 37.4828 41.755H37.6828ZM36.2718 40.068C35.8138 40.068 35.4539 40.2075 35.2114 40.5011C34.972 40.7909 34.8608 41.2147 34.8608 41.755H35.0608C35.0608 41.2373 35.1681 40.8676 35.3656 40.6284C35.5601 40.393 35.8558 40.268 36.2718 40.268V40.068ZM34.8608 41.755V41.893H35.0608V41.755H34.8608ZM34.9608 41.793H32.5688V41.993H34.9608V41.793ZM32.6686 41.8981L33.1286 32.9051L32.9289 32.8949L32.4689 41.8879L32.6686 41.8981ZM33.0288 33H39.6988V32.8H33.0288V33ZM39.5988 32.9V35.2H39.7988V32.9H39.5988ZM39.6988 35.1H35.2828V35.3H39.6988V35.1ZM35.1829 35.1946L34.9759 39.0356L35.1756 39.0464L35.3826 35.2054L35.1829 35.1946ZM35.0758 39.141H35.1218V38.941H35.0758V39.141ZM35.2072 39.0929C35.6629 38.3433 36.3573 37.968 37.3068 37.968V37.768C36.2936 37.768 35.5313 38.1747 35.0363 38.9891L35.2072 39.0929ZM37.3068 37.968C38.2014 37.968 38.8669 38.272 39.32 38.8713L39.4795 38.7507C38.982 38.0926 38.2522 37.768 37.3068 37.768V37.968ZM39.32 38.8713C39.777 39.4757 40.0128 40.3631 40.0128 41.548H40.2128C40.2128 40.3409 39.9732 39.4036 39.4795 38.7507L39.32 38.8713ZM40.0128 41.548V45.182H40.2128V41.548H40.0128ZM40.0128 45.182C40.0128 46.4696 39.6948 47.4465 39.0729 48.1276L39.2206 48.2624C39.8868 47.5328 40.2128 46.5011 40.2128 45.182H40.0128ZM39.0737 48.1268C38.4538 48.7909 37.5485 49.13 36.3408 49.13V49.33C37.5864 49.33 38.5517 48.9791 39.2199 48.2632L39.0737 48.1268Z" fill="white"/>
</svg>
