<svg width="60" height="60" viewBox="0 0 60 60" fill="none" xmlns="http://www.w3.org/2000/svg">
<path fill-rule="evenodd" clip-rule="evenodd" d="M38.8859 23.0234C38.8859 21.0904 40.4529 19.5234 42.3859 19.5234H48.8096C49.7378 19.5234 50.6281 19.8922 51.2845 20.5486L57.4768 26.7409C58.1332 27.3973 58.5019 28.2875 58.5019 29.2158V42.8146C58.5019 44.7476 56.9349 46.3146 55.0019 46.3146H52.0741C51.9878 45.2058 51.6068 44.1797 51.0094 43.3146H55.0019C55.2781 43.3146 55.5019 43.0907 55.5019 42.8146V33.5001H49.9999C48.0669 33.5001 46.4999 31.9331 46.4999 30.0001V22.5234H42.3859C42.1098 22.5234 41.8859 22.7473 41.8859 23.0234L41.8859 42.2047C40.9607 43.0253 40.2852 44.1212 39.9879 45.3639C39.3095 44.7256 38.8859 43.8195 38.8859 42.8146V23.0234ZM55.5019 29.2158V30.5001H49.9999C49.7238 30.5001 49.4999 30.2763 49.4999 30.0001V23.0067L55.3555 28.8622C55.4493 28.956 55.5019 29.0832 55.5019 29.2158Z" fill="#5460A8"/>
<path d="M14.0461 52.9338C17.4353 52.9338 20.1827 50.1864 20.1827 46.7972C20.1827 43.4081 17.4353 40.6606 14.0461 40.6606C10.657 40.6606 7.90955 43.4081 7.90955 46.7972C7.90955 50.1864 10.657 52.9338 14.0461 52.9338Z" stroke="#5460A8" stroke-width="2" stroke-linecap="round" stroke-linejoin="round"/>
<path d="M14 49C15.1046 49 16 48.1046 16 47C16 45.8954 15.1046 45 14 45C12.8954 45 12 45.8954 12 47C12 48.1046 12.8954 49 14 49Z" fill="#5460A8"/>
<path d="M46 49C47.1046 49 48 48.1046 48 47C48 45.8954 47.1046 45 46 45C44.8954 45 44 45.8954 44 47C44 48.1046 44.8954 49 46 49Z" fill="#5460A8"/>
<path d="M45.9563 52.9338C49.3455 52.9338 52.0929 50.1864 52.0929 46.7972C52.0929 43.4081 49.3455 40.6606 45.9563 40.6606C42.5672 40.6606 39.8197 43.4081 39.8197 46.7972C39.8197 50.1864 42.5672 52.9338 45.9563 52.9338Z" stroke="#5460A8" stroke-width="2" stroke-linecap="round" stroke-linejoin="round"/>
<path d="M38.3088 45.3811L21.6928 45.3811" stroke="#5460A8" stroke-width="2" stroke-linecap="round" stroke-linejoin="round"/>
<path d="M7.154 45.3811H3" stroke="#5460A8" stroke-width="2" stroke-linecap="round" stroke-linejoin="round"/>
<path d="M22 37C22 37 35 30.6 35 21V9.8L22 5L9 9.8V21C9 30.6 22 37 22 37Z" stroke="#5460A8" stroke-width="2" stroke-linecap="round" stroke-linejoin="round"/>
<path d="M16 19L21 24L29 16" stroke="#5ABD32" stroke-width="2" stroke-linecap="round" stroke-linejoin="round"/>
</svg>
