<svg width="52" height="47" viewBox="0 0 52 47" fill="none" xmlns="http://www.w3.org/2000/svg">
<path fill-rule="evenodd" clip-rule="evenodd" d="M4.00139 22.2129C3.98613 22.3241 3.97174 22.4357 3.95823 22.5474C1.76229 22.8324 0.0661621 24.7098 0.0661621 26.9834C0.0661621 29.454 2.06898 31.4568 4.53957 31.4568C4.58673 31.4568 4.63374 31.4561 4.68058 31.4546C7.32547 40.4043 15.6581 46.887 25.3801 46.887C34.8328 46.887 43.2233 40.3925 45.9909 31.451C46.0671 31.4549 46.1438 31.4568 46.2209 31.4568C48.6915 31.4568 50.6944 29.454 50.6944 26.9834C50.6944 24.696 48.9775 22.8095 46.762 22.5424C46.7471 22.4323 46.7313 22.3225 46.7146 22.2129H44.6892C44.7673 22.6768 44.8286 23.146 44.8725 23.6198L44.9653 24.6238L45.9685 24.5227C46.0513 24.5143 46.1354 24.51 46.2209 24.51C47.587 24.51 48.6944 25.6174 48.6944 26.9834C48.6944 28.3494 47.587 29.4568 46.2209 29.4568C45.9854 29.4568 45.7591 29.4242 45.5456 29.3638L44.5663 29.0867L44.3065 30.0707C42.0503 38.6151 34.1928 44.887 25.3801 44.887C16.2774 44.887 8.51447 38.6198 6.38461 30.1031L6.13985 29.1244L5.16332 29.3778C4.96512 29.4292 4.75631 29.4568 4.53957 29.4568C3.17355 29.4568 2.06616 28.3494 2.06616 26.9834C2.06616 25.6174 3.17355 24.51 4.53957 24.51C4.61862 24.51 4.69656 24.5137 4.77327 24.5208L5.78488 24.6152L5.86314 23.6022C5.89928 23.1343 5.95253 22.671 6.02227 22.2129H4.00139Z" fill="#5460A8"/>
<path d="M21.6392 36.5347C21.6392 36.5347 23.0419 38.405 25.3798 38.405C27.7177 38.405 29.1204 36.5347 29.1204 36.5347" stroke="#5460A8" stroke-width="2" stroke-linecap="round" stroke-linejoin="round"/>
<path d="M19.7685 25.3135H20.8338" stroke="#5460A8" stroke-width="2" stroke-linecap="round" stroke-linejoin="round"/>
<path d="M30.9902 25.3132H32.0555" stroke="#5460A8" stroke-width="2" stroke-linecap="round" stroke-linejoin="round"/>
<path d="M13.2231 5.67554C5.04056 5.67566 3.87162 15.5711 3.87162 21.5731C9.48252 29.0543 9.48252 13.1567 16.0286 12.2216" stroke="#5460A8" stroke-width="2" stroke-linecap="round"/>
<path d="M44.0825 11.2861C45.0176 13.1564 46.8879 15.5708 46.8879 21.5728C39.4067 29.054 42.2122 15.0267 35.6661 14.0916" stroke="#5460A8" stroke-width="2" stroke-linecap="round"/>
<path d="M44.0824 11.2861C45.0175 13.1564 46.8878 15.5708 46.8878 21.5728" stroke="#5ABD32" stroke-width="2" stroke-linecap="round"/>
<path d="M25.032 1C36.3057 1 38.4663 4.03524 47.1472 6.48401C47.7438 6.65226 48.0123 7.26423 47.6751 7.7313C45.7914 10.3409 38.7801 17.1429 18.8608 12.5241C16.5283 11.9832 14.7346 10.3176 14.2617 8.22357C13.7139 5.79755 15.3786 3.39486 17.8816 2.29641C19.8697 1.42402 22.477 1 25.032 1Z" stroke="#5460A8" stroke-width="2"/>
<rect x="44.8157" y="18.71" width="6" height="14" rx="3" fill="white" stroke="#5ABD32" stroke-width="2"/>
<rect x="32.8157" y="40.71" width="4" height="8" rx="2" transform="rotate(-90 32.8157 40.71)" fill="white" stroke="#5ABD32" stroke-width="2"/>
<path d="M47.8157 32.71V36.71C47.8157 37.8145 46.9202 38.71 45.8157 38.71H39.8157" stroke="#5ABD32" stroke-width="2"/>
</svg>
