<svg width="60" height="60" viewBox="0 0 60 60" fill="none" xmlns="http://www.w3.org/2000/svg">
<path d="M5 45.7174C5 42.735 7.41766 40.3174 10.4 40.3174H16V49.746C16 52.2707 13.9533 54.3174 11.4286 54.3174C7.87817 54.3174 5 51.4392 5 47.8888V45.7174Z" stroke="#5460A8" stroke-width="2"/>
<path d="M16.1686 12.99C16.1686 9.12561 19.301 6 23.1686 6H48C51.866 6 55 9.13401 55 13V47.3175C55 51.1835 51.866 54.3175 48 54.3175H14.4C14.4596 54.2262 14.5194 54.1313 14.5793 54.033C15.3751 52.7257 16.1686 50.795 16.1686 48.3061V48.287V48.2675V48.2476V48.2274V48.2067V48.1857V48.1643V48.1425V48.1203V48.0977V48.0747V48.0514V48.0276V48.0035V47.9791V47.9542V47.9289V47.9033V47.8773V47.851V47.8242V47.7971V47.7697V47.7418V47.7136V47.685V47.6561V47.6268V47.5971V47.5671V47.5367V47.5059V47.4748V47.4434V47.4115V47.3794V47.3468V47.314V47.2807V47.2472V47.2132V47.179V47.1443V47.1094V47.0741V47.0384V47.0024V46.9661V46.9294V46.8924V46.855V46.8174V46.7793V46.741V46.7023V46.6633V46.6239V46.5843V46.5443V46.504V46.4633V46.4223V46.381V46.3394V46.2975V46.2552V46.2126V46.1697V46.1265V46.083V46.0392V45.995V45.9506V45.9058V45.8607V45.8153V45.7696V45.7236V45.6773V45.6307V45.5838V45.5366V45.4891V45.4413V45.3932V45.3448V45.2961V45.2471V45.1978V45.1483V45.0984V45.0483V44.9978V44.9471V44.8961V44.8448V44.7932V44.7414V44.6892V44.6368V44.5841V44.5311V44.4779V44.4244V44.3706V44.3165V44.2622V44.2076V44.1527V44.0975V44.0421V43.9864V43.9305V43.8743V43.8178V43.7611V43.7041V43.6468V43.5893V43.5316V43.4736V43.4153V43.3568V43.298V43.239V43.1797V43.1202V43.0604V43.0004V42.9401V42.8796V42.8189V42.7579V42.6967V42.6352V42.5735V42.5116V42.4494V42.387V42.3244V42.2615V42.1984V42.1351V42.0715V42.0077V41.9437V41.8795V41.815V41.7504V41.6855V41.6203V41.555V41.4894V41.4237V41.3577V41.2915V41.2251V41.1584V41.0916V41.0246V40.9573V40.8898V40.8222V40.7543V40.6862V40.6179V40.5495V40.4808V40.4119V40.3428V40.2736V40.2041V40.1344V40.0646V39.9945V39.9243V39.8539V39.7833V39.7125V39.6415V39.5703V39.4989V39.4274V39.3557V39.2838V39.2117V39.1394V39.067V38.9944V38.9216V38.8487V38.7755V38.7022V38.6288V38.5551V38.4813V38.4074V38.3332V38.2589V38.1845V38.1098V38.0351V37.9601V37.885V37.8098V37.7344V37.6588V37.5831V37.5072V37.4312V37.355V37.2787V37.2022V37.1256V37.0488V36.9719V36.8949V36.8177V36.7404V36.6629V36.5853V36.5076V36.4297V36.3517V36.2735V36.1953V36.1168V36.0383V35.9596V35.8808V35.8019V35.7229V35.6437V35.5644V35.485V35.4055V35.3258V35.246V35.1662V35.0861V35.006V34.9258V34.8455V34.765V34.6844V34.6038V34.523V34.4421V34.3611V34.28V34.1988V34.1175V34.0361V33.9546V33.873V33.7913V33.7095V33.6276V33.5456V33.4635V33.3814V33.2991V33.2168V33.1343V33.0518V32.9692V32.8865V32.8037V32.7209V32.638V32.5549V32.4718V32.3887V32.3054V32.2221V32.1387V32.0552V31.9717V31.8881V31.8044V31.7207V31.6369V31.553V31.469V31.385V31.301V31.2168V31.1327V31.0484V30.9641V30.8797V30.7953V30.7109V30.6263V30.5418V30.4571V30.3725V30.2877V30.203V30.1182V30.0333V29.9484V29.8635V29.7785V29.6935V29.6084V29.5233V29.4382V29.353V29.2678V29.1825V29.0973V29.012V28.9266V28.8413V28.7559V28.6705V28.585V28.4996V28.4141V28.3286V28.2431V28.1575V28.072V27.9864V27.9008V27.8152V27.7296V27.644V27.5583V27.4727V27.387V27.3014V27.2157V27.13V27.0443V26.9587V26.873V26.7873V26.7016V26.6159V26.5303V26.4446V26.3589V26.2733V26.1876V26.102V26.0163V25.9307V25.8451V25.7595V25.674V25.5884V25.5029V25.4173V25.3318V25.2463V25.1609V25.0754V24.99V24.9046V24.8193V24.734V24.6487V24.5634V24.4781V24.3929V24.3078V24.2226V24.1375V24.0524V23.9674V23.8824V23.7975V23.7126V23.6277V23.5429V23.4581V23.3734V23.2887V23.2041V23.1195V23.035V22.9505V22.8661V22.7817V22.6974V22.6132V22.529V22.4448V22.3608V22.2768V22.1928V22.1089V22.0251V21.9413V21.8577V21.774V21.6905V21.607V21.5236V21.4403V21.357V21.2739V21.1908V21.1077V21.0248V20.9419V20.8592V20.7765V20.6938V20.6113V20.5289V20.4465V20.3643V20.2821V20.2V20.118V20.0361V19.9543V19.8726V19.791V19.7095V19.6281V19.5467V19.4655V19.3844V19.3034V19.2225V19.1417V19.061V18.9805V18.9V18.8196V18.7394V18.6593V18.5793V18.4994V18.4196V18.3399V18.2604V18.1809V18.1016V18.0224V17.9434V17.8645V17.7857V17.707V17.6284V17.55V17.4717V17.3936V17.3155V17.2376V17.1599V17.0823V17.0048V16.9274V16.8502V16.7732V16.6963V16.6195V16.5429V16.4664V16.3901V16.3139V16.2378V16.1619V16.0862V16.0106V15.9352V15.8599V15.7848V15.7099V15.6351V15.5604V15.4859V15.4116V15.3375V15.2635V15.1897V15.116V15.0425V14.9692V14.8961V14.8231V14.7503V14.6777V14.6052V14.533V14.4609V14.389V14.3172V14.2457V14.1743V14.1031V14.0321V13.9613V13.8906V13.8202V13.7499V13.6799V13.61V13.5403V13.4708V13.4015V13.3325V13.2636V13.1949V13.1264V13.0581V12.99Z" stroke="#5460A8" stroke-width="2"/>
<path d="M44.091 42.4993C46.9026 42.4993 49.182 40.22 49.182 37.4084C49.182 34.5967 46.9026 32.3174 44.091 32.3174C41.2793 32.3174 39 34.5967 39 37.4084C39 40.22 41.2793 42.4993 44.091 42.4993Z" stroke="#5460A8" stroke-width="2" stroke-linecap="round" stroke-linejoin="round"/>
<path d="M41.3346 41.6918L40.4546 48.3174L44.091 46.1355L47.7274 48.3174L46.8474 41.6846" stroke="#5460A8" stroke-width="2" stroke-linecap="round" stroke-linejoin="round"/>
<path d="M23.8296 16.0874H47.7511" stroke="#5460A8" stroke-width="2" stroke-linecap="round"/>
<path d="M23.8296 22.6357H47.7511" stroke="#5460A8" stroke-width="2" stroke-linecap="round"/>
<path d="M23.8296 27.5298H47.7511" stroke="#5460A8" stroke-width="2" stroke-linecap="round"/>
<path d="M23.8296 32.4243H34.553" stroke="#5460A8" stroke-width="2" stroke-linecap="round"/>
<path d="M24.0001 37.3174H31.0001" stroke="#5460A8" stroke-width="2" stroke-linecap="round"/>
<path d="M24.0001 42.3174H33.0001" stroke="#5460A8" stroke-width="2" stroke-linecap="round"/>
<rect x="7" y="10.3174" width="26" height="26" rx="4" fill="white" stroke="#5ABD32" stroke-width="2"/>
<path d="M21.4524 18.9519L21.4523 18.9519L21.4453 18.959C21.1156 19.2954 20.9309 19.7477 20.9309 20.2188C20.9309 20.6899 21.1156 21.1422 21.4453 21.4786L21.4453 21.4786L21.4524 21.4857L22.7318 22.7651L22.7318 22.7652L22.739 22.7722C23.0754 23.1019 23.5277 23.2866 23.9987 23.2866C24.4698 23.2866 24.9221 23.1019 25.2585 22.7722L25.2585 22.7722L25.2656 22.7651L27 21.0308C26.9994 21.2549 26.979 21.4796 26.9385 21.7022C26.8001 22.4617 26.4335 23.1611 25.8876 23.707C25.3416 24.2529 24.6423 24.6195 23.8828 24.7579C23.3036 24.8634 22.7105 24.8324 22.1496 24.6707C21.48 24.4776 20.6334 24.5689 20.0276 25.1747L14.991 30.2113C14.8605 30.3419 14.6833 30.4152 14.4986 30.4152C14.314 30.4152 14.1368 30.3419 14.0062 30.2113C13.8757 30.0807 13.8023 29.9036 13.8023 29.7189C13.8023 29.5342 13.8757 29.3571 14.0062 29.2265L19.0428 24.1899C19.6486 23.5841 19.7399 22.7375 19.5468 22.068C19.3851 21.507 19.3541 20.9139 19.4596 20.3348C19.598 19.5752 19.9646 18.8759 20.5105 18.3299C21.0565 17.784 21.7558 17.4174 22.5153 17.279C22.738 17.2385 22.9626 17.2181 23.1868 17.2175L21.4604 18.9439L21.4604 18.9439L21.4524 18.9519Z" stroke="#5ABD32" stroke-width="2" stroke-linecap="round" stroke-linejoin="round"/>
<path d="M25.9997 27.8154L26.7036 28.5193C27.0217 28.8374 27.2004 29.2689 27.2004 29.7188C27.2004 30.1687 27.0217 30.6002 26.7036 30.9183C26.3854 31.2365 25.9539 31.4152 25.504 31.4152C25.0541 31.4152 24.6227 31.2365 24.3045 30.9183L21.5998 28.2136" stroke="#5ABD32" stroke-width="2" stroke-linecap="round" stroke-linejoin="round"/>
<path d="M16.0021 20.2185L14.4027 18.6191" stroke="#5ABD32" stroke-width="2" stroke-linecap="round" stroke-linejoin="round"/>
<path d="M12.0037 16.2202L14.4027 17.0199V18.6192H12.8034L12.0037 16.2202Z" stroke="#5ABD32" stroke-width="2" stroke-linecap="round" stroke-linejoin="round"/>
</svg>
