<svg width="60" height="60" viewBox="0 0 60 60" fill="none" xmlns="http://www.w3.org/2000/svg">
<g clip-path="url(#clip0_5112_30189)">
<path d="M19.1456 24.9091H42M19.1456 24.9091L30.0001 46.0455M19.1456 24.9091L14.9501 17M19.1456 24.9091L14.9501 35.4773M42 24.9091L30.0001 46.0455M42 24.9091L45 35M42 24.9091L39.7546 17H47.741C49.2698 17 50.5092 18.2394 50.5092 19.7682V19.7682C50.5092 21.297 49.2698 22.5364 47.741 22.5364H46.3456M30.0001 46.0455H22M14.9501 17H19.4319M14.9501 17H12.5774M12.8524 40.7614L10.7546 46.0455H15.566" stroke="#5460A8" stroke-width="2" stroke-linecap="round" stroke-linejoin="round"/>
<path d="M24 17H27.0092C29.2183 17 31.0092 15.2091 31.0092 13V12.4636C31.0092 10.2545 29.2183 8.46363 27.0092 8.46363H7" stroke="#5ABD32" stroke-width="2" stroke-linecap="round" stroke-linejoin="round"/>
<path d="M9.5 12.5L5.5 8.5L9.5 4.5" stroke="#5ABD32" stroke-width="2" stroke-linecap="round" stroke-linejoin="round"/>
<path d="M53.0021 36.3409C57.7762 39.0972 59.4177 45.2237 56.6613 49.9979C55.9785 51.1806 55.0874 52.1877 54.0118 52.9917C53.8311 53.1265 53.5959 53.1631 53.3832 53.0893C53.1702 53.016 53.0083 52.8415 52.9502 52.6237L50.6817 44.1447L47.5041 42.9425L45.3563 45.5747L47.6372 54.0891C47.6956 54.3045 47.6431 54.5347 47.4977 54.7051C47.3528 54.8747 47.133 54.9624 46.9112 54.9388C45.5336 54.7935 44.2184 54.3637 43.0021 53.6614C38.2256 50.9037 36.5833 44.7741 39.3408 39.9979C39.6727 39.423 40.0591 38.8822 40.4897 38.3888C43.6242 34.8245 48.8855 33.9642 53.0021 36.3409Z" stroke="#5460A8" stroke-width="2"/>
<path d="M33.6364 45.5181C33.6364 47.2654 32.2199 48.6818 30.4727 48.6818C28.7255 48.6818 27.3091 47.2654 27.3091 45.5181C27.3091 43.7709 28.7255 42.3545 30.4727 42.3545C32.2199 42.3545 33.6364 43.7709 33.6364 45.5181Z" fill="white" stroke="#5460A8" stroke-width="2" stroke-linecap="round" stroke-linejoin="round"/>
<circle cx="12" cy="45" r="10" stroke="#5460A8" stroke-width="2" stroke-linecap="round" stroke-linejoin="round"/>
</g>
<defs>
<clipPath id="clip0_5112_30189">
<rect width="60" height="60" fill="white"/>
</clipPath>
</defs>
</svg>
