<svg width="48" height="48" viewBox="0 0 48 48" fill="none" xmlns="http://www.w3.org/2000/svg">
<path d="M42.3999 24V42C42.3999 44.7614 40.1613 47 37.3999 47H10.5999C7.83848 47 5.59991 44.7614 5.59991 42V24" stroke="#5460A8" stroke-width="2" stroke-linecap="round" stroke-linejoin="round"/>
<path d="M8 24H4C2.34315 24 1 22.6569 1 21V15.5C1 13.8431 2.34315 12.5 4 12.5H44C45.6569 12.5 47 13.8431 47 15.5V21C47 22.6569 45.6569 24 44 24H40" stroke="#5460A8" stroke-width="2" stroke-linecap="round" stroke-linejoin="round"/>
<path d="M24.0001 12.5H13.6501C12.1251 12.5 10.6626 11.8942 9.58422 10.8159C8.50589 9.73753 7.90009 8.27499 7.90009 6.75C7.90009 5.22501 8.50589 3.76247 9.58422 2.68414C10.6626 1.6058 12.1251 1 13.6501 1C21.7001 1 24.0001 12.5 24.0001 12.5Z" stroke="#5460A8" stroke-width="2" stroke-linecap="round" stroke-linejoin="round"/>
<path d="M24 12.5H34.35C35.875 12.5 37.3375 11.8942 38.4159 10.8159C39.4942 9.73753 40.1 8.27499 40.1 6.75C40.1 5.22501 39.4942 3.76247 38.4159 2.68414C37.3375 1.6058 35.875 1 34.35 1C26.3 1 24 12.5 24 12.5Z" stroke="#5460A8" stroke-width="2" stroke-linecap="round" stroke-linejoin="round"/>
</svg>
