<svg width="60" height="60" viewBox="0 0 60 60" fill="none" xmlns="http://www.w3.org/2000/svg">
<g clip-path="url(#clip0_5112_4170)">
<path d="M18.738 46.3062C15.6339 45.4744 13.7875 42.3132 14.5574 39.2059L20.0346 18.7639C20.1789 18.2674 20.3802 17.8087 20.6343 17.3865C20.9411 17.0187 21.3546 16.7623 21.8374 16.4977L31.602 10.846C35.6756 8.4941 38.8882 9.35494 41.2443 13.4297L46.8818 23.2062C47.1316 23.6023 47.3329 23.9876 47.4364 24.4116C47.4448 24.4139 47.4563 24.446 47.4742 24.5381C47.476 24.6147 47.4732 24.6588 47.4733 24.6835C47.4713 25.1755 47.4094 25.6738 47.2762 26.1709L41.8527 46.4124C41.0173 49.5469 37.786 51.4125 34.6459 50.5733L28 48.5M34.5898 19.0304C34.9784 19.1345 35.3669 19.2386 34.5814 19.0281" stroke="#5460A8" stroke-width="2" stroke-linecap="round"/>
<path d="M23.3463 26.0705C23.223 25.5684 23.1679 25.0705 23.177 24.5777C23.2587 24.1058 23.4886 23.6771 23.7745 23.2065L29.405 13.4296C31.7569 9.3561 34.9695 8.49526 39.0473 10.846L48.8178 16.4941C49.2322 16.7121 49.5991 16.9452 49.9008 17.2607C49.9092 17.2584 49.9352 17.2805 49.9967 17.3513C50.0367 17.4168 50.0563 17.4563 50.0687 17.4776C50.313 17.9047 50.5085 18.3672 50.6417 18.8644L56.0656 39.1058C56.9094 42.238 55.0438 45.4693 51.9047 46.3126L46.1043 47.8448M36.0847 19.0237C36.4733 18.9196 36.8618 18.8154 36.0763 19.0259" stroke="#5460A8" stroke-width="2" stroke-linecap="round"/>
<path d="M33.5908 9.20703L22.3086 9.21926C21.7581 9.20702 21.2718 9.22229 20.8222 9.38745C20.391 9.626 19.9873 9.92264 19.6142 10.2805L4.64974 25.2452C2.42939 27.5512 2.44777 31.2121 4.72011 33.4845L16.3632 45.1338C18.663 47.4307 22.3942 47.4307 24.6849 45.1338L39.5025 30.3159C39.8665 29.952 40.1693 29.5514 40.417 29.1263C40.4292 29.1049 40.4537 29.0681 40.4904 29.0009C40.521 28.9122 40.5271 28.8785 40.521 28.8724C40.6433 28.4534 40.6617 28.0191 40.6433 27.5512L40.6494 16.2657C40.6464 11.5589 38.2945 9.20703 33.5908 9.20703Z" fill="white" stroke="#5460A8" stroke-width="2"/>
<circle cx="32.9145" cy="16.8154" r="2.41647" fill="#5460A8"/>
<path d="M11.8564 28.8571L19.3564 36L29.3564 26" stroke="#5ABD32" stroke-width="2" stroke-linecap="round" stroke-linejoin="round"/>
</g>
<defs>
<clipPath id="clip0_5112_4170">
<rect width="60" height="60" fill="white"/>
</clipPath>
</defs>
</svg>
