<svg width="89" height="15" viewBox="0 0 89 15" fill="none" xmlns="http://www.w3.org/2000/svg">
<path fill-rule="evenodd" clip-rule="evenodd" d="M36.7125 4.375H37.9486C38.8139 4.375 39.4319 4.75 39.4319 5.5C39.4319 6.5 38.6903 6.75 37.9486 6.75H36.7125V4.375ZM84.6736 7.875H86.0333C87.3931 7.875 87.6403 8.625 87.6403 9.25C87.6403 10.625 86.2806 10.625 85.9097 10.625H84.6736V7.875ZM36.7125 8H37.9486C39.1847 8 39.6792 8.375 39.6792 9.25C39.6792 10.5 38.5667 10.625 37.5778 10.625H36.7125V8ZM77.7514 4.375V3.125H71.5708V4.375H73.9194V11.875H75.2792V4.375H77.7514ZM63.9069 4.25C65.0194 4.25 65.8847 4.75 66.3792 5.125V3.625C65.5139 3.125 64.525 3 63.9069 3C61.4347 3 59.3333 4.75 59.3333 7.5C59.3333 10.25 61.4347 12 63.9069 12C64.525 12 65.5139 11.875 66.3792 11.375V9.875C65.8847 10.25 65.0194 10.75 63.9069 10.75C61.9292 10.75 60.6931 9.375 60.6931 7.5C60.6931 5.625 61.9292 4.25 63.9069 4.25ZM48.2083 11.875H53.1528V10.625H49.5681V8H52.9056V6.75H49.5681V4.375H53.1528V3.125H48.2083V11.875ZM83.4375 11.875H86.1569C87.7639 11.875 89 11 89 9.25C89 7.5 87.6403 6.625 86.1569 6.625H84.6736V3.125H83.4375V11.875ZM24.2278 10.75C22.3736 10.75 21.1375 9.5 21.1375 7.5C21.1375 5.625 22.3736 4.25 24.2278 4.25C26.0819 4.25 27.3181 5.625 27.3181 7.5C27.3181 9.5 26.0819 10.75 24.2278 10.75ZM35.3528 11.875H37.9486C39.5556 11.875 41.0389 11.25 41.0389 9.5C41.0389 8.125 40.2972 7.5 39.5556 7.375C40.4208 6.875 40.7917 6.375 40.7917 5.375C40.7917 3.75 39.4319 3.125 37.9486 3.125H35.3528V11.875ZM24.2278 3C21.6319 3 19.7778 5 19.7778 7.5C19.7778 10 21.6319 12 24.2278 12C26.8236 12 28.6778 10 28.6778 7.5C28.6778 5 26.8236 3 24.2278 3ZM7.66389 1.125C11.125 1.125 13.8444 4 13.8444 7.5C13.8444 11 11.125 13.875 7.66389 13.875C4.07917 13.875 1.35972 11 1.35972 7.5C1.35972 4 4.07917 1.125 7.66389 1.125ZM0 7.5C0 11.75 3.46111 15 7.66389 15C11.7431 15 15.2042 11.875 15.2042 7.5C15.2042 3.125 11.7431 0 7.66389 0C3.46111 0 0 3.25 0 7.5ZM8.03472 10.75C9.14722 10.75 10.0125 10.25 10.5069 9.875V11.375C9.64167 11.875 8.52917 12 8.03472 12C5.43889 12 3.46111 10.25 3.46111 7.5C3.46111 4.75 5.43889 3 8.03472 3C8.52917 3 9.64167 3.125 10.5069 3.625V5.125C10.0125 4.75 9.14722 4.25 8.03472 4.25C6.05694 4.25 4.82083 5.625 4.82083 7.5C4.82083 9.375 6.05694 10.75 8.03472 10.75Z" fill="white"/>
</svg>
