<svg width="65" height="26" viewBox="0 0 65 26" fill="none" xmlns="http://www.w3.org/2000/svg">
<path d="M27.7774 21.7251H22.6469L25.8559 3.33203H30.9862L27.7774 21.7251Z" fill="white"/>
<path d="M46.3764 3.78258C45.3644 3.41042 43.7593 2.99951 41.7746 2.99951C36.708 2.99951 33.1401 5.50397 33.1182 9.08459C33.0761 11.7264 35.6727 13.1937 37.6148 14.0745C39.5997 14.9746 40.2745 15.5621 40.2745 16.3644C40.2543 17.5966 38.6705 18.1646 37.1934 18.1646C35.145 18.1646 34.0474 17.8718 32.3795 17.1862L31.7039 16.8924L30.986 21.0212C32.1893 21.5294 34.4063 21.9803 36.708 22.0001C42.0914 22.0001 45.5961 19.5344 45.6376 15.7187C45.6581 13.6249 44.287 12.0205 41.331 10.7095C39.5366 9.86791 38.4376 9.30045 38.4376 8.43936C38.4587 7.65655 39.3671 6.85476 41.3928 6.85476C43.0607 6.81549 44.2862 7.18713 45.2146 7.55903L45.6786 7.75434L46.3764 3.78258Z" fill="white"/>
<path d="M53.1956 15.2091C53.6181 14.1524 55.2439 10.0629 55.2439 10.0629C55.2226 10.1021 55.6656 8.98669 55.919 8.30193L56.2775 9.88679C56.2775 9.88679 57.2491 14.2895 57.4601 15.2091C56.6582 15.2091 54.209 15.2091 53.1956 15.2091ZM59.5287 3.33203H55.5601C54.3363 3.33203 53.4066 3.6644 52.8785 4.85811L45.2577 21.7248H50.6411C50.6411 21.7248 51.5274 19.4547 51.7179 18.9658C52.3084 18.9658 57.5454 18.9658 58.3051 18.9658C58.4524 19.6115 58.9173 21.7248 58.9173 21.7248H63.6678L59.5287 3.33203Z" fill="white"/>
<path d="M18.3616 3.33203L13.337 15.8743L12.788 13.3306C11.859 10.3955 8.94571 7.20653 5.69458 5.62089L10.2969 21.7056H15.7224L23.7868 3.33203H18.3616Z" fill="white"/>
<path d="M8.67136 3.33203H0.416724L0.332275 3.70367C6.77141 5.23001 11.0359 8.90919 12.788 13.3314L10.9936 4.87814C10.6981 3.70341 9.79023 3.37078 8.67136 3.33203Z" fill="#FAA61A"/>
</svg>
