<svg width="44" height="26" viewBox="0 0 44 26" fill="none" xmlns="http://www.w3.org/2000/svg">
<path d="M27.7123 23.2217H16.3384V2.78076H27.7123V23.2217Z" fill="#FF5F00"/>
<path d="M17.067 13C17.067 8.85345 19.0085 5.15983 22.0318 2.77952C19.8209 1.03891 17.0306 -4.30728e-07 13.9982 -4.30728e-07C6.81926 -4.30728e-07 0.999878 5.8202 0.999878 13C0.999878 20.1798 6.81926 26 13.9982 26C17.0306 26 19.8209 24.9611 22.0318 23.2205C19.0085 20.8402 17.067 17.1465 17.067 13Z" fill="#EB001B"/>
<path d="M43.0523 13C43.0523 20.1798 37.2329 26 30.0539 26C27.0215 26 24.2312 24.9611 22.0195 23.2205C25.0437 20.8402 26.9851 17.1465 26.9851 13C26.9851 8.85345 25.0437 5.15983 22.0195 2.77952C24.2312 1.03891 27.0215 -4.30728e-07 30.0539 -4.30728e-07C37.2329 -4.30728e-07 43.0523 5.8202 43.0523 13Z" fill="#F79E1B"/>
<path d="M10.781 13.0823C10.781 12.5144 11.1531 12.0479 11.7611 12.0479C12.3421 12.0479 12.7344 12.4943 12.7344 13.0823C12.7344 13.6702 12.3421 14.1166 11.7611 14.1166C11.1531 14.1166 10.781 13.6501 10.781 13.0823ZM13.3966 13.0823V11.4669H12.6941V11.8592C12.4713 11.5683 12.1333 11.3857 11.6737 11.3857C10.7678 11.3857 10.0576 12.0959 10.0576 13.0823C10.0576 14.0694 10.7678 14.7788 11.6737 14.7788C12.1333 14.7788 12.4713 14.5962 12.6941 14.3054V14.6976H13.3966V13.0823ZM37.1343 13.0823C37.1343 12.5144 37.5064 12.0479 38.1145 12.0479C38.6962 12.0479 39.0877 12.4943 39.0877 13.0823C39.0877 13.6702 38.6962 14.1166 38.1145 14.1166C37.5064 14.1166 37.1343 13.6501 37.1343 13.0823ZM39.7507 13.0823V10.1696H39.0475V11.8592C38.8247 11.5683 38.4866 11.3857 38.0271 11.3857C37.1212 11.3857 36.411 12.0959 36.411 13.0823C36.411 14.0694 37.1212 14.7788 38.0271 14.7788C38.4866 14.7788 38.8247 14.5962 39.0475 14.3054V14.6976H39.7507V13.0823ZM22.116 12.0147C22.5686 12.0147 22.8595 12.2986 22.9338 12.7983H21.2573C21.3324 12.3319 21.6155 12.0147 22.116 12.0147ZM22.13 11.3857C21.1831 11.3857 20.5208 12.075 20.5208 13.0823C20.5208 14.1096 21.2101 14.7788 22.1772 14.7788C22.6638 14.7788 23.1094 14.6574 23.5016 14.3262L23.1573 13.8056C22.8866 14.0214 22.5415 14.1437 22.2174 14.1437C21.7648 14.1437 21.3525 13.934 21.2511 13.3523H23.6501C23.6571 13.2648 23.6641 13.1766 23.6641 13.0823C23.6571 12.075 23.0351 11.3857 22.13 11.3857ZM30.6119 13.0823C30.6119 12.5144 30.984 12.0479 31.5921 12.0479C32.1731 12.0479 32.5653 12.4943 32.5653 13.0823C32.5653 13.6702 32.1731 14.1166 31.5921 14.1166C30.984 14.1166 30.6119 13.6501 30.6119 13.0823ZM33.2275 13.0823V11.4669H32.5251V11.8592C32.3015 11.5683 31.9642 11.3857 31.5047 11.3857C30.5988 11.3857 29.8886 12.0959 29.8886 13.0823C29.8886 14.0694 30.5988 14.7788 31.5047 14.7788C31.9642 14.7788 32.3015 14.5962 32.5251 14.3054V14.6976H33.2275V13.0823ZM26.6448 13.0823C26.6448 14.0624 27.3271 14.7788 28.3684 14.7788C28.855 14.7788 29.1792 14.6705 29.5304 14.3935L29.1931 13.8257C28.9293 14.0152 28.6524 14.1166 28.3475 14.1166C27.7867 14.1096 27.3743 13.7043 27.3743 13.0823C27.3743 12.4603 27.7867 12.0549 28.3475 12.0479C28.6524 12.0479 28.9293 12.1493 29.1931 12.3388L29.5304 11.771C29.1792 11.494 28.855 11.3857 28.3684 11.3857C27.3271 11.3857 26.6448 12.1021 26.6448 13.0823ZM35.7016 11.3857C35.2962 11.3857 35.0324 11.5753 34.8498 11.8592V11.4669H34.1536V14.6976H34.8568V12.8865C34.8568 12.352 35.0865 12.0549 35.5461 12.0549C35.6884 12.0549 35.837 12.075 35.9855 12.1361L36.2021 11.4739C36.0466 11.4128 35.8439 11.3857 35.7016 11.3857ZM16.8709 11.7238C16.5328 11.501 16.0671 11.3857 15.5534 11.3857C14.7349 11.3857 14.2081 11.7779 14.2081 12.42C14.2081 12.9469 14.6003 13.2718 15.3229 13.3731L15.6548 13.4203C16.04 13.4745 16.2218 13.5758 16.2218 13.7584C16.2218 14.0083 15.965 14.1506 15.4854 14.1506C14.9987 14.1506 14.6475 13.9951 14.4108 13.8126L14.0797 14.3595C14.4649 14.6434 14.9516 14.7788 15.4784 14.7788C16.4114 14.7788 16.9521 14.3394 16.9521 13.7244C16.9521 13.1565 16.5266 12.8595 15.8234 12.7581L15.4923 12.7102C15.1883 12.6699 14.9446 12.6096 14.9446 12.393C14.9446 12.1562 15.1744 12.0147 15.5596 12.0147C15.972 12.0147 16.3711 12.1702 16.5669 12.2916L16.8709 11.7238ZM25.9346 11.3857C25.5293 11.3857 25.2654 11.5753 25.0836 11.8592V11.4669H24.3874V14.6976H25.0898V12.8865C25.0898 12.352 25.3196 12.0549 25.7791 12.0549C25.9215 12.0549 26.07 12.075 26.2185 12.1361L26.4352 11.4739C26.2797 11.4128 26.077 11.3857 25.9346 11.3857ZM19.9399 11.4669H18.791V10.4868H18.0808V11.4669H17.4256V12.109H18.0808V13.5828C18.0808 14.3324 18.3717 14.7788 19.2026 14.7788C19.5074 14.7788 19.8586 14.6844 20.0814 14.5289L19.8787 13.9271C19.6691 14.0485 19.4393 14.1096 19.2567 14.1096C18.9055 14.1096 18.791 13.893 18.791 13.5689V12.109H19.9399V11.4669ZM9.43642 14.6976V12.6699C9.43642 11.9064 8.94982 11.3927 8.16537 11.3857C7.75303 11.3788 7.32754 11.5072 7.0297 11.9605C6.80689 11.6023 6.45567 11.3857 5.9621 11.3857C5.61707 11.3857 5.27977 11.4871 5.01596 11.8654V11.4669H4.31274V14.6976H5.02215V12.9067C5.02215 12.3458 5.33315 12.0479 5.81356 12.0479C6.28006 12.0479 6.51601 12.352 6.51601 12.8997V14.6976H7.22619V12.9067C7.22619 12.3458 7.55034 12.0479 8.01683 12.0479C8.49648 12.0479 8.72624 12.352 8.72624 12.8997V14.6976H9.43642Z" fill="white"/>
</svg>
