<svg width="37" height="26" viewBox="0 0 37 26" fill="none" xmlns="http://www.w3.org/2000/svg">
<path d="M23.8396 0C16.4971 0 10.6803 5.78073 10.6803 12.8668C10.6803 19.9529 16.5924 25.7337 23.8396 25.7337C31.0868 25.7337 36.9989 19.9529 36.9989 12.8668C37.0943 5.78073 31.0868 0 23.8396 0ZM23.8396 17.6219C21.1696 17.6219 18.881 15.4775 18.881 12.8668C18.881 10.2562 21.0742 8.11168 23.8396 8.11168C26.605 8.11168 28.7982 10.2562 28.7982 12.8668C28.7028 15.4775 26.605 17.6219 23.8396 17.6219Z" fill="#8B3FFD"/>
<path d="M10.68 3.82275V22.5636H6.00749L0 3.82275H10.68Z" fill="#8B3FFD"/>
</svg>
