<svg width="106" height="26" viewBox="0 0 106 26" fill="none" xmlns="http://www.w3.org/2000/svg">
<path d="M35.9385 14.7471L34.972 12.0227C34.7669 11.4009 34.2397 10.8974 33.5661 10.8974V14.7471H31.6036V6.3667H33.5661V10.0683H33.5953L35.8214 6.3667H38.0474L35.5285 10.1571C36.2314 10.4829 36.7001 11.0751 36.993 11.8451L38.1353 14.7767H35.9385V14.7471Z" fill="white"/>
<path d="M42.2065 14.6876L41.0056 17.2343H39.0725L40.2734 14.7468C39.219 12.8516 38.2817 10.6603 38.106 8.49854H40.0977C40.2441 10.2161 40.6249 11.6671 41.1521 13.0589H41.1814C41.6207 11.6967 41.9722 10.2161 42.0894 8.49854H44.0811C43.9639 10.601 43.0559 12.8812 42.2065 14.6876Z" fill="white"/>
<path d="M48.6503 14.7468V9.97917H47.0393V14.7468H45.1355V8.49854H50.4955V14.7468H48.6503Z" fill="white"/>
<path d="M55.9435 14.7471V11.6082C55.9435 11.1936 55.9728 10.7494 55.9728 10.7494H55.9435C55.9435 10.7494 55.797 11.1344 55.5627 11.4897L53.6882 14.7175H51.9015V8.46924H53.5417V11.4601C53.5417 11.8747 53.5124 12.3485 53.5124 12.3485H53.5417C53.5417 12.3485 53.7175 11.9339 53.9225 11.5786L55.7384 8.46924H57.5837V14.7175H55.9435V14.7471Z" fill="white"/>
<path d="M61.8892 14.8657C60.8934 14.8657 59.8683 14.6584 59.2532 14.4215V6.66294C59.9268 6.39643 60.8934 6.21875 61.8892 6.21875C64.1153 6.21875 65.0818 7.19597 65.0818 8.55816C65.0818 9.44654 64.496 10.1572 63.8517 10.3645V10.3941C64.496 10.631 65.2869 11.3418 65.2869 12.4374C65.2576 13.9477 64.1446 14.8657 61.8892 14.8657ZM61.86 7.66977C61.5671 7.66977 61.2742 7.729 61.0984 7.78822V9.8315H62.0064C62.4458 9.8315 62.7387 9.74267 62.9144 9.5946C63.1194 9.44654 63.2366 9.15041 63.2366 8.79505C63.2366 8.08435 62.8558 7.66977 61.86 7.66977ZM62.973 11.4306C62.7679 11.2825 62.5043 11.1937 62.0357 11.1937H61.0984V13.3258C61.2742 13.385 61.5964 13.4443 61.8892 13.4443C62.8851 13.4443 63.3537 13.0889 63.3537 12.319C63.3537 11.934 63.2073 11.6083 62.973 11.4306Z" fill="white"/>
<path d="M70.2076 14.7468L69.4753 12.8516C69.2703 12.3186 68.8895 11.8744 68.3038 11.8744V14.7468H66.4585V8.49854H68.3038V11.1933H68.333L70.0319 8.49854H72.17L70.1783 11.2525C70.7348 11.519 71.1449 12.0225 71.4085 12.6739L72.2872 14.7468H70.2076Z" fill="white"/>
<path d="M75.7727 14.8063C75.5091 14.8063 75.1869 14.7471 75.0111 14.6879V17.2346H73.1073V8.82456C73.6052 8.55805 74.5132 8.38037 75.5091 8.38037C77.5593 8.38037 78.6723 9.53527 78.6723 11.6378C78.7016 13.533 77.6765 14.8063 75.7727 14.8063ZM75.5676 9.80178C75.3626 9.80178 75.1283 9.86101 75.0111 9.89062V13.2369C75.1283 13.2961 75.3626 13.3257 75.5676 13.3257C76.3585 13.3257 76.7978 12.615 76.7978 11.5785C76.7978 10.4236 76.3585 9.80178 75.5676 9.80178Z" fill="white"/>
<path d="M85.3503 11.8745L81.5133 12.3779C81.6598 13.059 82.2456 13.3848 83.0071 13.3848C83.6222 13.3848 84.2959 13.2367 84.7352 12.9998L85.2624 14.4212C84.7059 14.6877 83.7686 14.8654 82.8314 14.8654C80.6932 14.8654 79.6388 13.444 79.6388 11.608C79.6388 9.68316 80.7518 8.35059 82.5971 8.35059C84.3837 8.35059 85.3503 9.56471 85.3503 11.2822C85.3796 11.4895 85.3796 11.6672 85.3503 11.8745ZM82.5678 9.68316C81.8941 9.68316 81.3962 10.157 81.3669 11.1638L83.5343 10.8973C83.5636 10.1274 83.1829 9.68316 82.5678 9.68316Z" fill="white"/>
<path d="M92.8779 16.4348H91.5891L91.5305 14.7468H87.5178L87.4593 16.4348H86.1705L86.0533 13.5327C87.1371 12.9108 87.5178 11.4894 87.7522 10.068L87.9865 8.49854H91.9406L92.4385 13.2662L92.995 13.5327L92.8779 16.4348ZM90.4175 9.91995H89.451L89.3631 10.453C89.2166 11.4006 88.953 12.6443 88.2501 13.355H90.6811L90.4175 9.91995Z" fill="white"/>
<path d="M98.1207 14.7471V11.6082C98.1207 11.1936 98.15 10.7494 98.15 10.7494H98.1207C98.1207 10.7494 97.9743 11.1344 97.74 11.4897L95.8654 14.7175H94.0787V8.46924H95.719V11.4601C95.719 11.8747 95.6897 12.3485 95.6897 12.3485H95.719C95.719 12.3485 95.8947 11.9339 96.0997 11.5786L97.9157 8.46924H99.761V14.7175H98.1207V14.7471Z" fill="white"/>
<path d="M104.154 9.97917V14.7468H102.251V9.97917H100.845V8.49854H105.531V9.97917H104.154Z" fill="white"/>
<path d="M33.6246 22.5354C33.4196 22.565 33.2439 22.5946 32.8338 22.5946C32.248 22.5946 31.5743 22.2689 31.5743 21.114V20.4329C31.5743 19.2484 32.248 18.9523 32.8338 18.9523C33.1267 18.9523 33.4196 18.9819 33.6246 19.0411C33.6539 19.0411 33.7125 19.0707 33.7125 19.1003V19.3372C33.7125 19.3668 33.7125 19.3964 33.6539 19.3964C33.4782 19.3964 33.1267 19.3668 32.8631 19.3668C32.3945 19.3668 32.043 19.6333 32.043 20.4625V21.1436C32.043 21.9431 32.3945 22.2393 32.8631 22.2393C33.1267 22.2393 33.4782 22.2097 33.6539 22.2097C33.7125 22.2097 33.7418 22.2097 33.7418 22.2985V22.5058C33.7125 22.5058 33.6539 22.5354 33.6246 22.5354Z" fill="white"/>
<path d="M34.3569 20.0183C34.3569 19.9591 34.3862 19.9295 34.4447 19.9295H34.6791C34.7376 19.9295 34.7669 19.9591 34.7669 20.0183V21.9135L35.8799 20.0183C35.9385 19.9295 35.9678 19.9295 36.085 19.9295H36.3193C36.4072 19.9295 36.4364 19.9591 36.4364 20.0775V22.4762C36.4364 22.5354 36.4071 22.565 36.3486 22.565H36.1143C36.0557 22.565 36.0264 22.5354 36.0264 22.4762V20.6106C36.0264 20.581 36.0264 20.581 35.9971 20.6106L34.8841 22.5058C34.8548 22.565 34.7962 22.5946 34.7376 22.5946H34.474C34.3862 22.5946 34.3276 22.5354 34.3276 22.4466V20.0183H34.3569Z" fill="white"/>
<path d="M38.7503 22.565C38.6039 22.5946 38.3696 22.6242 38.1645 22.6242C37.5202 22.6242 37.1394 22.1504 37.1394 21.4693V21.0844C37.1394 20.3737 37.4909 19.9295 38.1645 19.9295C38.3696 19.9295 38.6039 19.9591 38.7503 19.9887C38.8382 20.0183 38.8382 20.0183 38.8382 20.1072V20.2848C38.8382 20.3441 38.7796 20.3737 38.7503 20.3441C38.5453 20.3144 38.3989 20.3144 38.1645 20.3144C37.7838 20.3144 37.5787 20.581 37.5787 21.114V21.4989C37.5787 22.032 37.7838 22.2985 38.1645 22.2985C38.3989 22.2985 38.5453 22.2985 38.7503 22.2689C38.8089 22.2689 38.8382 22.2985 38.8382 22.3281V22.5058C38.8675 22.5058 38.8382 22.5354 38.7503 22.565Z" fill="white"/>
<path d="M41.5329 20.2848H40.742V22.4762C40.742 22.5354 40.7127 22.565 40.6542 22.565H40.4198C40.3613 22.565 40.332 22.5354 40.332 22.4762V20.2848H39.5412C39.4826 20.2848 39.4533 20.2552 39.4533 20.196V20.0479C39.4533 19.9887 39.4826 19.9591 39.5412 19.9591H41.5329C41.5914 19.9591 41.6207 19.9887 41.6207 20.0479V20.196C41.6207 20.2256 41.5621 20.2848 41.5329 20.2848Z" fill="white"/>
<path d="M44.1396 21.3805H42.558V21.4397C42.558 22.0024 42.7923 22.2097 43.2317 22.2097C43.4953 22.2097 43.8468 22.18 44.0811 22.1504C44.1396 22.1504 44.1689 22.1504 44.1689 22.2097V22.3873C44.1689 22.4466 44.1396 22.4762 44.0811 22.5058C43.8175 22.565 43.5539 22.5946 43.2317 22.5946C42.6752 22.5946 42.1479 22.3281 42.1479 21.4397V20.9955C42.1479 20.3144 42.5287 19.8702 43.2024 19.8702C43.9053 19.8702 44.2568 20.3144 44.2568 20.9955V21.262C44.2275 21.3509 44.1982 21.3805 44.1396 21.3805ZM43.7882 21.0251C43.7882 20.4921 43.5831 20.2848 43.1731 20.2848C42.763 20.2848 42.5287 20.5217 42.5287 21.0251V21.0548H43.7882V21.0251Z" fill="white"/>
<path d="M47.3322 22.565H47.1272C47.0686 22.565 47.0393 22.5354 47.0393 22.4762V20.4625L46.4828 21.4693C46.4535 21.5582 46.395 21.5878 46.2778 21.5878H46.1021C45.9849 21.5878 45.9263 21.5582 45.897 21.4693L45.3405 20.4625V22.4762C45.3405 22.5354 45.3112 22.565 45.2527 22.565H45.0476C44.989 22.565 44.9598 22.5354 44.9598 22.4762V20.0183C44.9598 19.9591 44.989 19.9295 45.0476 19.9295H45.3698C45.4577 19.9295 45.487 19.9295 45.5163 19.9887L46.1899 21.2324C46.1899 21.262 46.1899 21.2621 46.2192 21.2621C46.2192 21.2621 46.2485 21.262 46.2485 21.2324L46.9222 19.9887C46.9515 19.9295 47.01 19.9295 47.0686 19.9295H47.3908C47.4494 19.9295 47.4787 19.9591 47.4787 20.0183V22.4762C47.4201 22.5354 47.3908 22.565 47.3322 22.565Z" fill="white"/>
<path d="M49.9097 22.565H49.7047C49.6461 22.565 49.6168 22.5354 49.6168 22.4762V22.3577C49.3825 22.5058 49.1482 22.5946 48.8846 22.5946C48.4745 22.5946 48.1231 22.4169 48.1231 21.8247V21.7655C48.1231 21.2324 48.4159 20.9955 49.2654 20.9955H49.6168V20.8179C49.6168 20.4033 49.4704 20.2848 49.1189 20.2848C48.7967 20.2848 48.5917 20.3144 48.3867 20.3144C48.3281 20.3144 48.2695 20.3144 48.2695 20.2256V20.0479C48.2695 19.9887 48.2988 19.9591 48.3574 19.9591C48.5624 19.9295 48.7674 19.8999 49.0896 19.8999C49.7633 19.8999 50.0269 20.2256 50.0269 20.8179V22.5058C50.0269 22.5354 49.9683 22.565 49.9097 22.565ZM49.5875 21.2917H49.2361C48.6503 21.2917 48.5038 21.4101 48.5038 21.7655V21.8247C48.5038 22.18 48.6796 22.2689 48.9432 22.2689C49.1482 22.2689 49.3532 22.2097 49.5875 22.0912V21.2917Z" fill="white"/>
<path d="M53.0437 22.5946C52.3408 22.5946 51.9893 22.1208 51.9893 21.4101V21.0548C51.9893 20.344 52.3408 19.8702 53.0437 19.8702C53.7467 19.8702 54.0982 20.344 54.0982 21.0548V21.4101C54.0982 22.1504 53.7467 22.5946 53.0437 22.5946ZM53.6881 21.0548C53.6881 20.5513 53.4831 20.2552 53.0437 20.2552C52.6044 20.2552 52.3994 20.5513 52.3994 21.0548V21.4101C52.3994 21.9135 52.6044 22.2097 53.0437 22.2097C53.4831 22.2097 53.6881 21.9135 53.6881 21.4101V21.0548Z" fill="white"/>
<path d="M56.8221 22.565H56.5878C56.5292 22.565 56.4999 22.5354 56.4999 22.4762V21.4101H55.2405V22.4762C55.2405 22.5354 55.2112 22.565 55.1526 22.565H54.9183C54.8597 22.565 54.8304 22.5354 54.8304 22.4762V20.0183C54.8304 19.9591 54.8597 19.9295 54.9183 19.9295H55.1526C55.2112 19.9295 55.2405 19.9591 55.2405 20.0183V21.0252H56.4999V20.0183C56.4999 19.9591 56.5292 19.9295 56.5878 19.9295H56.8221C56.8807 19.9295 56.91 19.9591 56.91 20.0183V22.4762C56.91 22.5354 56.8807 22.565 56.8221 22.565Z" fill="white"/>
<path d="M58.7552 20.3441C58.7552 20.2848 58.7259 20.2552 58.6674 20.2552C58.6088 20.2552 58.5795 20.2848 58.5795 20.3441L57.9937 22.4762C57.9937 22.5058 57.9351 22.5354 57.9058 22.5354H57.6129C57.5544 22.5354 57.5251 22.5058 57.5251 22.4466V22.4169L58.1402 20.2256C58.228 19.9295 58.433 19.8702 58.6381 19.8702C58.8138 19.8702 59.0481 19.9295 59.1067 20.2256L59.7218 22.4466V22.4762C59.7218 22.5058 59.6925 22.565 59.6339 22.565H59.341C59.3117 22.565 59.2824 22.5354 59.2532 22.5058L58.7552 20.3441Z" fill="white"/>
<path d="M62.1528 22.565H61.9185C61.8599 22.565 61.8307 22.5354 61.8307 22.4762V22.3577C61.5963 22.5058 61.362 22.5946 61.0984 22.5946C60.6884 22.5946 60.3369 22.4169 60.3369 21.8247V21.7655C60.3369 21.2324 60.6298 20.9955 61.4792 20.9955H61.8307V20.8179C61.8307 20.4033 61.6842 20.2848 61.3327 20.2848C61.0105 20.2848 60.8055 20.3144 60.6005 20.3144C60.5419 20.3144 60.4833 20.3144 60.4833 20.2256V20.0479C60.4833 19.9887 60.5126 19.9591 60.5712 19.9591C60.7762 19.9295 60.9813 19.8999 61.3034 19.8999C61.9771 19.8999 62.2407 20.2256 62.2407 20.8179V22.5058C62.2407 22.5354 62.1821 22.565 62.1528 22.565ZM61.8307 21.2917H61.4792C60.8934 21.2917 60.7469 21.4101 60.7469 21.7655V21.8247C60.7469 22.18 60.8934 22.2689 61.1863 22.2689C61.3913 22.2689 61.5963 22.2097 61.8307 22.0912V21.2917Z" fill="white"/>
<path d="M63.0315 22.417V20.0183C63.0315 19.9591 63.0608 19.9295 63.1194 19.9295H63.3537C63.4123 19.9295 63.4416 19.9591 63.4416 20.0183V21.9135C63.4416 21.9135 63.4416 21.9135 63.4709 21.9135L64.5839 20.0183C64.6425 19.9295 64.6718 19.9295 64.7889 19.9295H65.0232C65.1111 19.9295 65.1404 19.9591 65.1404 20.0775V22.4762C65.1404 22.5354 65.1111 22.565 65.0525 22.565H64.8182C64.7596 22.565 64.7303 22.5354 64.7303 22.4762V20.6106C64.7303 20.581 64.7303 20.581 64.7011 20.6106L63.588 22.5058C63.5588 22.565 63.5002 22.5946 63.4416 22.5946H63.178C63.0901 22.565 63.0315 22.5058 63.0315 22.417ZM64.8182 18.893C64.8182 18.8634 64.8182 18.8042 64.7596 18.8042H64.5839C64.5253 18.8042 64.5253 18.8338 64.5253 18.893C64.496 19.1595 64.2617 19.278 64.0567 19.278C63.8224 19.278 63.6173 19.1595 63.588 18.893C63.588 18.8338 63.5588 18.8042 63.5295 18.8042H63.3537C63.2951 18.8042 63.2951 18.8338 63.2951 18.893C63.3244 19.3372 63.7052 19.5741 64.0567 19.5741C64.4082 19.5741 64.7889 19.3668 64.8182 18.893Z" fill="white"/>
<path d="M67.9229 22.565H67.6886C67.63 22.565 67.6007 22.5354 67.6007 22.4762V21.4101H66.3413V22.4762C66.3413 22.5354 66.312 22.565 66.2534 22.565H66.0191C65.9605 22.565 65.9312 22.5354 65.9312 22.4762V20.0183C65.9312 19.9591 65.9605 19.9295 66.0191 19.9295H66.2534C66.312 19.9295 66.3413 19.9591 66.3413 20.0183V21.0252H67.6007V20.0183C67.6007 19.9591 67.63 19.9295 67.6886 19.9295H67.9229C67.9815 19.9295 68.0108 19.9591 68.0108 20.0183V22.4762C68.0108 22.5354 67.9815 22.565 67.9229 22.565Z" fill="white"/>
<path d="M71.0569 21.3805H68.8016C68.743 21.3805 68.7138 21.3509 68.7138 21.2917V21.114C68.7138 21.0548 68.743 21.0251 68.8016 21.0251H71.0569C71.1155 21.0251 71.1448 21.0548 71.1448 21.114V21.2917C71.1448 21.3509 71.1155 21.3805 71.0569 21.3805Z" fill="white"/>
<path d="M73.6637 22.565H73.3415C73.283 22.565 73.283 22.565 73.2244 22.5058L72.2871 21.3213V22.4762C72.2871 22.5354 72.2578 22.565 72.1992 22.565H71.9649C71.9063 22.565 71.8771 22.5354 71.8771 22.4762V20.0183C71.8771 19.9591 71.9063 19.9295 71.9649 19.9295H72.1992C72.2578 19.9295 72.2871 19.9591 72.2871 20.0183V21.0548L73.2244 19.9591C73.2537 19.9295 73.283 19.9295 73.3122 19.9295H73.6344C73.693 19.9295 73.693 19.9591 73.693 19.9887C73.693 20.0183 73.693 20.0183 73.6637 20.0479L72.6093 21.2028L73.6637 22.5058L73.693 22.5354C73.7223 22.5354 73.693 22.565 73.6637 22.565Z" fill="white"/>
<path d="M75.3332 22.5946C75.1868 22.5946 74.9525 22.565 74.7767 22.5354V23.3942C74.7767 23.4534 74.7474 23.483 74.6889 23.483H74.4545C74.396 23.483 74.3667 23.4534 74.3667 23.3942V20.0775C74.3667 20.0183 74.3667 19.9887 74.4545 19.9591C74.7181 19.8999 75.0403 19.8406 75.3332 19.8406C76.0362 19.8406 76.3584 20.3144 76.3584 21.0252V21.3805C76.3877 22.18 76.0362 22.5946 75.3332 22.5946ZM75.9483 21.0844C75.9483 20.581 75.8019 20.2552 75.3332 20.2552C75.1282 20.2552 74.9232 20.2848 74.7767 20.3144V22.2097C74.9232 22.2393 75.1868 22.2689 75.3332 22.2689C75.8019 22.2689 75.9483 21.9728 75.9483 21.4397V21.0844Z" fill="white"/>
<path d="M79.0237 21.3805H77.4421V21.4397C77.4421 22.0024 77.6764 22.2097 78.1158 22.2097C78.3794 22.2097 78.7309 22.18 78.9652 22.1504C79.0238 22.1504 79.053 22.1504 79.053 22.2097V22.3873C79.053 22.4466 79.0238 22.4762 78.9652 22.5058C78.7016 22.565 78.438 22.5946 78.1158 22.5946C77.5593 22.5946 77.032 22.3281 77.032 21.4397V20.9955C77.032 20.3144 77.4128 19.8702 78.0865 19.8702C78.7894 19.8702 79.1409 20.3144 79.1409 20.9955V21.262C79.1116 21.3509 79.0823 21.3805 79.0237 21.3805ZM78.7016 21.0251C78.7016 20.4921 78.4965 20.2848 78.0865 20.2848C77.6764 20.2848 77.4421 20.5217 77.4421 21.0251V21.0548H78.7016V21.0251Z" fill="white"/>
<path d="M82.2749 22.2985V23.0092C82.2749 23.0684 82.2456 23.098 82.1871 23.098H81.9527C81.8941 23.098 81.8649 23.0684 81.8649 23.0092V22.5946H80.0782V23.0092C80.0782 23.0684 80.0489 23.098 79.9903 23.098H79.756C79.6974 23.098 79.6681 23.0684 79.6681 23.0092V22.2985C79.6681 22.2393 79.6974 22.2097 79.756 22.2097H79.9024L80.4589 20.2552C80.5468 19.9591 80.7519 19.8999 80.9569 19.8999C81.1326 19.8999 81.3669 19.9591 81.4255 20.2552L81.982 22.2097H82.1871C82.2456 22.2097 82.2749 22.2393 82.2749 22.2985ZM80.3418 22.2097H81.5134L81.0155 20.3737C80.9862 20.3144 80.9862 20.2848 80.9276 20.2848C80.869 20.2848 80.8397 20.3144 80.8397 20.3737L80.3418 22.2097Z" fill="white"/>
<path d="M82.89 20.0183C82.89 19.9591 82.9193 19.9295 82.9779 19.9295H83.2122C83.2708 19.9295 83.3001 19.9591 83.3001 20.0183V21.9135L84.4131 20.0183C84.4716 19.9295 84.5009 19.9295 84.6181 19.9295H84.8524C84.9403 19.9295 84.9696 19.9591 84.9696 20.0775V22.4762C84.9696 22.5354 84.9403 22.565 84.8817 22.565H84.6474C84.5888 22.565 84.5595 22.5354 84.5595 22.4762V20.6106C84.5595 20.581 84.5595 20.581 84.5302 20.6106L83.4172 22.5058C83.3879 22.565 83.3293 22.5946 83.2708 22.5946H83.0072C82.9193 22.5946 82.8607 22.5354 82.8607 22.4466V20.0183H82.89Z" fill="white"/>
<path d="M87.7228 20.2848H86.932V22.4762C86.932 22.5354 86.8734 22.565 86.8441 22.565H86.6098C86.5512 22.565 86.5219 22.5354 86.5219 22.4762V20.2848H85.7311C85.6725 20.2848 85.6432 20.2552 85.6432 20.196V20.0479C85.6432 19.9887 85.6725 19.9591 85.7311 19.9591H87.7228C87.7814 19.9591 87.8107 19.9887 87.8107 20.0479V20.196C87.8107 20.2256 87.7814 20.2848 87.7228 20.2848Z" fill="white"/>
<path d="M89.363 22.5946C88.6601 22.5946 88.3086 22.1208 88.3086 21.4101V21.0548C88.3086 20.344 88.6601 19.8702 89.363 19.8702C90.066 19.8702 90.4175 20.344 90.4175 21.0548V21.4101C90.4175 22.1504 90.066 22.5946 89.363 22.5946ZM90.0074 21.0548C90.0074 20.5513 89.8024 20.2552 89.363 20.2552C88.9237 20.2552 88.7187 20.5513 88.7187 21.0548V21.4101C88.7187 21.9135 88.9237 22.2097 89.363 22.2097C89.8024 22.2097 90.0074 21.9135 90.0074 21.4101V21.0548Z" fill="white"/>
<path d="M91.9698 22.5946C91.7941 22.5946 91.4133 22.5946 91.2669 22.565C91.179 22.565 91.1204 22.5058 91.1204 22.4169V20.0183C91.1204 19.9295 91.179 19.8999 91.2669 19.8702C91.4133 19.8702 91.6769 19.8406 92.0284 19.8406C92.5556 19.8406 93.1414 19.9295 93.1414 20.5513V20.581C93.1414 20.8179 93.0243 21.0548 92.7899 21.1436C93.0535 21.2621 93.1707 21.4693 93.1707 21.7062V21.7359C93.1707 22.3873 92.6728 22.5946 91.9698 22.5946ZM92.7314 20.6106C92.7314 20.3144 92.4678 20.2256 91.9991 20.2256C91.8527 20.2256 91.6769 20.2256 91.5598 20.2256V21.0252H92.1456C92.4385 21.0252 92.7314 20.9955 92.7314 20.6106ZM92.7606 21.7655C92.7606 21.3805 92.4385 21.3805 92.1456 21.3805H91.5598V22.2689C91.7062 22.2689 91.8234 22.2689 91.9698 22.2689C92.5556 22.2689 92.7606 22.1208 92.7606 21.7951V21.7655Z" fill="white"/>
<path d="M95.631 22.565H95.426C95.3674 22.565 95.3381 22.5354 95.3381 22.4762V22.3577C95.1038 22.5058 94.8695 22.5946 94.6059 22.5946C94.1958 22.5946 93.8444 22.4169 93.8444 21.8247V21.7655C93.8444 21.2324 94.1373 20.9955 94.9867 20.9955H95.3381V20.8179C95.3381 20.4033 95.1917 20.2848 94.8402 20.2848C94.518 20.2848 94.313 20.3144 94.108 20.3144C94.0494 20.3144 93.9908 20.3144 93.9908 20.2256V20.0479C93.9908 19.9887 94.0201 19.9591 94.0787 19.9591C94.2837 19.9295 94.4887 19.8999 94.8109 19.8999C95.4846 19.8999 95.7482 20.2256 95.7482 20.8179V22.5058C95.7482 22.5354 95.6896 22.565 95.631 22.565ZM95.3089 21.2917H94.9574C94.3716 21.2917 94.2251 21.4101 94.2251 21.7655V21.8247C94.2251 22.18 94.3716 22.2689 94.6645 22.2689C94.8695 22.2689 95.0745 22.2097 95.3089 22.0912V21.2917Z" fill="white"/>
<path d="M98.5307 22.565H98.2964C98.2378 22.565 98.2085 22.5354 98.2085 22.4762V21.4101H96.9491V22.4762C96.9491 22.5354 96.9198 22.565 96.8612 22.565H96.6269C96.5683 22.565 96.539 22.5354 96.539 22.4762V20.0183C96.539 19.9591 96.5683 19.9295 96.6269 19.9295H96.8612C96.9198 19.9295 96.9491 19.9591 96.9491 20.0183V21.0252H98.2085V20.0183C98.2085 19.9591 98.2378 19.9295 98.2964 19.9295H98.5307C98.5893 19.9295 98.6186 19.9591 98.6186 20.0183V22.4762C98.6186 22.5354 98.5893 22.565 98.5307 22.565Z" fill="white"/>
<path d="M99.4094 20.0183C99.4094 19.9591 99.4387 19.9295 99.4973 19.9295H99.7316C99.7902 19.9295 99.8195 19.9591 99.8195 20.0183V21.9135C99.8195 21.9135 99.8195 21.9135 99.8488 21.9135L100.962 20.0183C101.02 19.9295 101.05 19.9295 101.167 19.9295H101.401C101.489 19.9295 101.518 19.9591 101.518 20.0775V22.4762C101.518 22.5354 101.489 22.565 101.43 22.565H101.196C101.138 22.565 101.108 22.5354 101.108 22.4762V20.6106C101.108 20.581 101.108 20.581 101.079 20.6106L99.9659 22.5058C99.9366 22.565 99.878 22.5946 99.8195 22.5946H99.5559C99.468 22.5946 99.4094 22.5354 99.4094 22.4466V20.0183Z" fill="white"/>
<path d="M104.125 22.565H103.891C103.832 22.565 103.803 22.5354 103.803 22.4762V21.4989C103.598 21.4989 103.598 21.4989 103.451 21.4989C103.422 21.4989 103.393 21.4989 103.364 21.4989L102.661 22.5058C102.631 22.565 102.602 22.565 102.543 22.565H102.28C102.221 22.565 102.192 22.5058 102.221 22.4466L102.924 21.4397C102.543 21.3509 102.309 21.0844 102.309 20.6994V20.6698C102.309 20.0775 102.836 19.8999 103.451 19.8999C103.686 19.8999 103.92 19.8999 104.096 19.9295C104.184 19.9295 104.213 19.9591 104.213 20.0183V22.4762C104.213 22.5354 104.154 22.565 104.125 22.565ZM103.803 20.2552C103.686 20.2552 103.569 20.2552 103.451 20.2552C102.953 20.2552 102.719 20.3737 102.719 20.6994V20.729C102.719 21.0844 102.953 21.1732 103.451 21.1732C103.539 21.1732 103.627 21.1732 103.803 21.1732V20.2552Z" fill="white"/>
<mask id="mask0_4725_29703" style="mask-type:alpha" maskUnits="userSpaceOnUse" x="0" y="0" width="26" height="26">
<path d="M12.8582 26C19.9596 26 25.7164 20.1797 25.7164 13C25.7164 5.8203 19.9596 0 12.8582 0C5.75682 0 0 5.8203 0 13C0 20.1797 5.75682 26 12.8582 26Z" fill="#F8CF1D"/>
</mask>
<g mask="url(#mask0_4725_29703)">
<path d="M0.0292505 13.0298C0.0292502 20.2095 5.78606 26.0298 12.8875 26.0298C19.9889 26.0298 25.7457 20.2095 25.7457 13.0298C25.7457 5.85008 19.9889 0.0297849 12.8875 0.0297846C5.78607 0.0297843 0.0292508 5.85008 0.0292505 13.0298Z" fill="url(#paint0_linear_4725_29703)"/>
<path d="M0.0292505 13.0298C0.0292502 20.2095 5.78606 26.0298 12.8875 26.0298C19.9889 26.0298 25.7457 20.2095 25.7457 13.0298C25.7457 5.85008 19.9889 0.0297849 12.8875 0.0297846C5.78607 0.0297843 0.0292508 5.85008 0.0292505 13.0298Z" fill="#F8CF1D"/>
<path d="M25.7457 26.0002L25.7457 21.6767L21.4694 21.6767L21.4694 26.0002L25.7457 26.0002Z" fill="#F6EC19"/>
<path d="M25.7457 21.6767L25.7457 17.3533L21.4694 17.3533L21.4694 21.6767L25.7457 21.6767Z" fill="#F6DC1B"/>
<path d="M25.7457 17.3533L25.7457 13.0298L21.4694 13.0298L21.4694 17.3533L25.7457 17.3533Z" fill="#F6CF1C"/>
<path d="M25.7457 13.0298L25.7457 8.70632L21.4694 8.70632L21.4694 13.0298L25.7457 13.0298Z" fill="#F6C11D"/>
<path d="M25.7457 8.70632L25.7457 4.38286L21.4694 4.38286L21.4694 8.70632L25.7457 8.70632Z" fill="#F7B31E"/>
<path d="M25.7457 4.35325L25.7457 0.0297852L21.4694 0.029785L21.4694 4.35325L25.7457 4.35325Z" fill="#F7A51E"/>
<path d="M21.4694 26.0002L21.4694 21.6767L17.1931 21.6767L17.1931 26.0002L21.4694 26.0002Z" fill="#F6EC19"/>
<path d="M21.4694 21.6767L21.4694 17.3533L17.1931 17.3533L17.1931 21.6767L21.4694 21.6767Z" fill="#F6DC1B"/>
<path d="M21.4694 17.3533L21.4694 13.0298L17.1931 13.0298L17.1931 17.3533L21.4694 17.3533Z" fill="#F6CF1C"/>
<path d="M21.4694 13.0298L21.4694 8.70632L17.1931 8.70632L17.1931 13.0298L21.4694 13.0298Z" fill="#F6C11D"/>
<path d="M21.4694 8.70632L21.4694 4.38286L17.1931 4.38286L17.1931 8.70632L21.4694 8.70632Z" fill="#F7B31E"/>
<path d="M21.4694 4.35325L21.4694 0.029785L17.1931 0.0297848L17.1931 4.35325L21.4694 4.35325Z" fill="#F7A51E"/>
<path d="M17.1931 26.0002L17.1931 21.6767L12.9168 21.6767L12.9168 26.0002L17.1931 26.0002Z" fill="#F6EC19"/>
<path d="M17.1931 21.6767L17.1931 17.3533L12.9168 17.3533L12.9168 21.6767L17.1931 21.6767Z" fill="#F6DC1B"/>
<path d="M17.1931 17.3533L17.1931 13.0298L12.9168 13.0298L12.9168 17.3533L17.1931 17.3533Z" fill="#F6CF1C"/>
<path d="M17.1931 13.0298L17.1931 8.70632L12.9168 8.70632L12.9168 13.0298L17.1931 13.0298Z" fill="#F6C11D"/>
<path d="M17.1931 8.70632L17.1931 4.38286L12.9168 4.38286L12.9168 8.70632L17.1931 8.70632Z" fill="#F7B31E"/>
<path d="M17.1931 4.35325L17.1931 0.0297848L12.9168 0.0297846L12.9168 4.35325L17.1931 4.35325Z" fill="#F7A51E"/>
<path d="M12.8875 26.0002L12.8875 21.6767L8.61115 21.6767L8.61115 26.0002L12.8875 26.0002Z" fill="#F6EC19"/>
<path d="M12.8875 21.6767L12.8875 17.3533L8.61115 17.3533L8.61115 21.6767L12.8875 21.6767Z" fill="#F6DC1B"/>
<path d="M12.8875 17.3533L12.8875 13.0298L8.61115 13.0298L8.61115 17.3533L12.8875 17.3533Z" fill="#F6CF1C"/>
<path d="M12.8875 13.0298L12.8875 8.70632L8.61115 8.70632L8.61115 13.0298L12.8875 13.0298Z" fill="#F6C11D"/>
<path d="M12.8875 8.70632L12.8875 4.38286L8.61115 4.38286L8.61115 8.70632L12.8875 8.70632Z" fill="#F7B31E"/>
<path d="M12.8875 4.35325L12.8875 0.0297846L8.61115 0.0297844L8.61115 4.35325L12.8875 4.35325Z" fill="#F7A51E"/>
<path d="M8.61115 26.0002L8.61115 21.6767L4.33485 21.6767L4.33485 26.0002L8.61115 26.0002Z" fill="#F6EC19"/>
<path d="M8.61115 21.6767L8.61115 17.3533L4.33485 17.3533L4.33485 21.6767L8.61115 21.6767Z" fill="#F6DC1B"/>
<path d="M8.61115 17.3533L8.61115 13.0298L4.33485 13.0298L4.33485 17.3533L8.61115 17.3533Z" fill="#F6CF1C"/>
<path d="M8.61115 13.0298L8.61115 8.70632L4.33485 8.70632L4.33485 13.0298L8.61115 13.0298Z" fill="#F6C11D"/>
<path d="M8.61115 8.70632L8.61115 4.38286L4.33485 4.38286L4.33485 8.70632L8.61115 8.70632Z" fill="#F7B31E"/>
<path d="M8.61115 4.35325L8.61115 0.0297844L4.33485 0.0297842L4.33485 4.35325L8.61115 4.35325Z" fill="#F7A51E"/>
<path d="M4.33485 26.0002L4.33485 21.6767L0.0585432 21.6767L0.058543 26.0002L4.33485 26.0002Z" fill="#F6EC19"/>
<path d="M4.33485 21.6767L4.33485 17.3533L0.0585434 17.3533L0.0585432 21.6767L4.33485 21.6767Z" fill="#F6DC1B"/>
<path d="M4.33485 17.3533L4.33485 13.0298L0.0585436 13.0298L0.0585434 17.3533L4.33485 17.3533Z" fill="#F6CF1C"/>
<path d="M4.33485 13.0298L4.33485 8.70632L0.0585438 8.70632L0.0585436 13.0298L4.33485 13.0298Z" fill="#F6C11D"/>
<path d="M4.33485 8.70632L4.33485 4.38286L0.058544 4.38286L0.0585438 8.70632L4.33485 8.70632Z" fill="#F7B31E"/>
<path d="M4.33485 4.35325L4.33485 0.0297842L0.0585442 0.029784L0.058544 4.35325L4.33485 4.35325Z" fill="#F7A51E"/>
<path d="M-0.0293241 13.0298C-0.0293245 20.2095 5.72749 26.0298 12.8289 26.0298C19.9303 26.0298 25.6871 20.2095 25.6871 13.0298C25.6871 5.85008 19.9303 0.0297849 12.8289 0.0297846C5.72749 0.0297843 -0.0293238 5.85008 -0.0293241 13.0298Z" fill="#F8CF1D"/>
<path d="M25.6578 4.35325L25.6578 0.0297852L21.3815 0.029785L21.3815 4.35325L25.6578 4.35325Z" fill="#F6EC19"/>
<path d="M21.3815 4.35325L21.3815 0.029785L17.1052 0.0297848L17.1052 4.35325L21.3815 4.35325Z" fill="#F6DC1B"/>
<path d="M17.1052 4.35325L17.1052 0.0297848L12.8289 0.0297846L12.8289 4.35325L17.1052 4.35325Z" fill="#F6CF1C"/>
<path d="M12.8289 4.35325L12.8289 0.0297846L8.55257 0.0297844L8.55257 4.35325L12.8289 4.35325Z" fill="#F6C11D"/>
<path d="M8.55257 4.35325L8.55257 0.0297844L4.27627 0.0297842L4.27627 4.35325L8.55257 4.35325Z" fill="#F7B31E"/>
<path d="M4.24697 4.35325L4.24697 0.0297842L-0.029335 0.029784L-0.0293352 4.35325L4.24697 4.35325Z" fill="#F7A51E"/>
<path d="M25.6578 8.70632L25.6578 4.38286L21.3815 4.38286L21.3815 8.70632L25.6578 8.70632Z" fill="#F6EC19"/>
<path d="M21.3815 8.70632L21.3815 4.38286L17.1052 4.38286L17.1052 8.70632L21.3815 8.70632Z" fill="#F6DC1B"/>
<path d="M17.1052 8.70632L17.1052 4.38286L12.8289 4.38286L12.8289 8.70632L17.1052 8.70632Z" fill="#F6CF1C"/>
<path d="M12.8289 8.70632L12.8289 4.38286L8.55257 4.38286L8.55257 8.70632L12.8289 8.70632Z" fill="#F6C11D"/>
<path d="M8.55257 8.70632L8.55257 4.38286L4.27627 4.38286L4.27627 8.70632L8.55257 8.70632Z" fill="#F7B31E"/>
<path d="M4.24697 8.70632L4.24697 4.38286L-0.0293352 4.38286L-0.0293354 8.70632L4.24697 8.70632Z" fill="#F7A51E"/>
<path d="M25.6578 13.0298L25.6578 8.70632L21.3815 8.70632L21.3815 13.0298L25.6578 13.0298Z" fill="#F6EC19"/>
<path d="M21.3815 13.0298L21.3815 8.70632L17.1052 8.70632L17.1052 13.0298L21.3815 13.0298Z" fill="#F6DC1B"/>
<path d="M17.1052 13.0298L17.1052 8.70632L12.8289 8.70632L12.8289 13.0298L17.1052 13.0298Z" fill="#F6CF1C"/>
<path d="M12.8289 13.0298L12.8289 8.70632L8.55257 8.70632L8.55257 13.0298L12.8289 13.0298Z" fill="#F6C11D"/>
<path d="M8.55257 13.0298L8.55257 8.70632L4.27627 8.70632L4.27627 13.0298L8.55257 13.0298Z" fill="#F7B31E"/>
<path d="M4.24697 13.0298L4.24697 8.70632L-0.0293354 8.70632L-0.0293241 13.0298L4.24697 13.0298Z" fill="#F7A51E"/>
<path d="M25.6578 17.3533L25.6578 13.0298L21.3815 13.0298L21.3815 17.3533L25.6578 17.3533Z" fill="#F6EC19"/>
<path d="M21.3815 17.3533L21.3815 13.0298L17.1052 13.0298L17.1052 17.3533L21.3815 17.3533Z" fill="#F6DC1B"/>
<path d="M17.1052 17.3533L17.1052 13.0298L12.8289 13.0298L12.8289 17.3533L17.1052 17.3533Z" fill="#F6CF1C"/>
<path d="M12.8289 17.3533L12.8289 13.0298L8.55257 13.0298L8.55257 17.3533L12.8289 17.3533Z" fill="#F6C11D"/>
<path d="M8.55257 17.3533L8.55257 13.0298L4.27627 13.0298L4.27627 17.3533L8.55257 17.3533Z" fill="#F7B31E"/>
<path d="M4.24697 17.3533L4.24697 13.0298L-0.0293241 13.0298L-0.0293358 17.3533L4.24697 17.3533Z" fill="#F7A51E"/>
<path d="M25.6578 21.6767L25.6578 17.3533L21.3815 17.3533L21.3815 21.6767L25.6578 21.6767Z" fill="#F6EC19"/>
<path d="M21.3815 21.6767L21.3815 17.3533L17.1052 17.3533L17.1052 21.6767L21.3815 21.6767Z" fill="#F6DC1B"/>
<path d="M17.1052 21.6767L17.1052 17.3533L12.8289 17.3533L12.8289 21.6767L17.1052 21.6767Z" fill="#F6CF1C"/>
<path d="M12.8289 21.6767L12.8289 17.3533L8.55257 17.3533L8.55257 21.6767L12.8289 21.6767Z" fill="#F6C11D"/>
<path d="M8.55257 21.6767L8.55257 17.3533L4.27627 17.3533L4.27627 21.6767L8.55257 21.6767Z" fill="#F7B31E"/>
<path d="M4.24697 21.6767L4.24697 17.3533L-0.0293358 17.3533L-0.029336 21.6767L4.24697 21.6767Z" fill="#F7A51E"/>
<path d="M25.6578 26.0002L25.6578 21.6767L21.3815 21.6767L21.3815 26.0002L25.6578 26.0002Z" fill="#F6EC19"/>
<path d="M21.3815 26.0002L21.3815 21.6767L17.1052 21.6767L17.1052 26.0002L21.3815 26.0002Z" fill="#F6DC1B"/>
<path d="M17.1052 26.0002L17.1052 21.6767L12.8289 21.6767L12.8289 26.0002L17.1052 26.0002Z" fill="#F6CF1C"/>
<path d="M12.8289 26.0002L12.8289 21.6767L8.55257 21.6767L8.55257 26.0002L12.8289 26.0002Z" fill="#F6C11D"/>
<path d="M8.55257 26.0002L8.55257 21.6767L4.27627 21.6767L4.27627 26.0002L8.55257 26.0002Z" fill="#F7B31E"/>
<path d="M4.24697 26.0002L4.24697 21.6767L-0.029336 21.6767L-0.0293361 26.0002L4.24697 26.0002Z" fill="#F7A51E"/>
</g>
<path d="M4.12986 4.14616C-0.702954 9.03226 -0.702954 16.9389 4.12986 21.7954C8.96267 26.6815 16.783 26.6815 21.5866 21.7954C26.4194 16.9093 26.4194 9.00265 21.5866 4.14616C16.783 -0.710334 8.96267 -0.739947 4.12986 4.14616ZM21.2351 21.44C16.6073 26.1188 9.10912 26.1188 4.48133 21.44C-0.146449 16.7612 -0.146449 9.18032 4.48133 4.50151C9.10912 -0.17731 16.6073 -0.17731 21.2351 4.50151C25.8629 9.18032 25.8629 16.7612 21.2351 21.44Z" fill="url(#paint1_linear_4725_29703)"/>
<path d="M12.3895 19.87L28.1181 0.977051H26.39L12.8874 12.2891L5.94576 10.2162L5.00848 10.8381L12.3895 19.87Z" fill="white"/>
<path d="M12.5067 20.0477L27.8838 1.24356H26.4779L12.9753 12.7333L6.00434 10.6604L5.2428 11.1342L12.5067 20.0477Z" fill="url(#paint2_linear_4725_29703)"/>
<defs>
<linearGradient id="paint0_linear_4725_29703" x1="3.76655" y1="3.84631" x2="22.1353" y2="22.0561" gradientUnits="userSpaceOnUse">
<stop stop-color="#F8ED34"/>
<stop offset="1" stop-color="#F8ED34"/>
</linearGradient>
<linearGradient id="paint1_linear_4725_29703" x1="18.0806" y1="24.3018" x2="7.44871" y2="1.75021" gradientUnits="userSpaceOnUse">
<stop stop-color="#F2F2F2" stop-opacity="0"/>
<stop offset="0.1" stop-color="#FFC90E" stop-opacity="0"/>
<stop offset="0.8928" stop-color="#FFC90E" stop-opacity="0"/>
<stop offset="1" stop-color="white"/>
</linearGradient>
<linearGradient id="paint2_linear_4725_29703" x1="16.569" y1="0.989872" x2="16.569" y2="20.0413" gradientUnits="userSpaceOnUse">
<stop stop-color="#808184"/>
<stop offset="0.0117962" stop-color="#7E7E81"/>
<stop offset="0.1307" stop-color="#646364"/>
<stop offset="0.255" stop-color="#4F4D4E"/>
<stop offset="0.3832" stop-color="#3E3D3D"/>
<stop offset="0.5167" stop-color="#323030"/>
<stop offset="0.6576" stop-color="#292727"/>
<stop offset="0.811" stop-color="#242121"/>
<stop offset="1" stop-color="#221F1F"/>
</linearGradient>
</defs>
</svg>
