<svg width="26" height="26" viewBox="0 0 26 26" fill="none" xmlns="http://www.w3.org/2000/svg">
<path d="M18.4323 20.1804L21.037 23.1694C20.5204 23.5712 19.9545 23.9533 19.3334 24.3056C17.4503 25.3844 15.2676 26 12.9507 26C5.81875 26 0 20.1606 0 13.001C0 5.83936 5.81875 0 12.9507 0C14.9816 0 16.9101 0.475067 18.6275 1.31831C18.8976 1.44697 19.1638 1.58949 19.43 1.74389L18.239 2.81477L16.4526 0.956071L13.4299 3.66395L11.6395 1.69638L6.00212 6.79147L9.61444 10.788L8.19278 12.039L11.7519 16.0394L10.3381 17.2885L15.4214 22.9675L18.4323 20.1804ZM24.6158 12.1122L26 13.6582L24.462 15.0497L23.0758 13.5038L24.6158 12.1122ZM22.4843 17.5597L24.5645 19.8796L22.2536 21.9679L20.1714 19.648L22.4843 17.5597ZM16.3501 3.31359L18.4303 5.6335L16.1194 7.72181L14.0391 5.4019L16.3501 3.31359ZM11.4659 4.11527L14.2383 7.20716L11.1584 9.99026L8.38602 6.89836L11.4659 4.11527ZM18.2489 12.3834L16.1687 10.0655L18.4757 7.97716L20.5598 10.2951L18.2489 12.3834ZM21.106 8.91344L22.642 7.52189L24.0262 9.06784L22.4922 10.4594L21.106 8.91344ZM20.2246 17.2806L18.1404 14.9646L20.4514 12.8743L22.5356 15.1903L20.2246 17.2806ZM19.1382 4.31915L20.6781 2.9276L22.0623 4.47354L20.5243 5.8651L19.1382 4.31915ZM13.3648 15.2694L10.5924 12.1775L13.6724 9.39049L16.4447 12.4824L13.3648 15.2694ZM15.5554 20.6139L12.7851 17.522L15.863 14.7389L18.6354 17.8308L15.5554 20.6139Z" fill="#0369AF"/>
</svg>
