<svg width="15" height="8" viewBox="0 0 15 8" fill="none" xmlns="http://www.w3.org/2000/svg">
<path fill-rule="evenodd" clip-rule="evenodd" d="M4.5 0C2.29086 0 0.5 1.79086 0.5 4C0.5 6.20914 2.29086 8 4.5 8H10.5C12.7091 8 14.5 6.20914 14.5 4C14.5 1.79086 12.7091 0 10.5 0H4.5ZM5.5 5C5.5 5.55228 5.05228 6 4.5 6C3.94772 6 3.5 5.55228 3.5 5C3.5 4.44772 3.94772 4 4.5 4C5.05228 4 5.5 4.44772 5.5 5ZM11.5 5C11.5 5.55228 11.0523 6 10.5 6C9.94772 6 9.5 5.55228 9.5 5C9.5 4.44772 9.94772 4 10.5 4C11.0523 4 11.5 4.44772 11.5 5Z" fill="white"/>
</svg>
