<svg width="10" height="14" viewBox="0 0 10 14" fill="none" xmlns="http://www.w3.org/2000/svg">
<path fill-rule="evenodd" clip-rule="evenodd" d="M7.26237 4.92942C8.03391 5.53007 8.97917 5.88351 10 5.88351V3.74402C9.80679 3.74411 9.61409 3.72215 9.42508 3.6785V5.3626C8.40431 5.3626 7.4592 5.00916 6.68744 4.40851V8.77452C6.68744 10.9586 5.06172 12.7291 3.05636 12.7291C2.30815 12.7291 1.61268 12.4827 1.03493 12.0602C1.69431 12.7945 2.61384 13.25 3.63115 13.25C5.63665 13.25 7.26243 11.4796 7.26243 9.29535V4.92942H7.26237ZM7.97159 2.77096C7.57729 2.30182 7.31841 1.69549 7.26237 1.02517V0.75H6.71754C6.85467 1.60192 7.32243 2.32978 7.97159 2.77096ZM2.30329 10.3843C2.08301 10.0697 1.96394 9.68482 1.96447 9.28913C1.96447 8.29018 2.7081 7.48027 3.62551 7.48027C3.79646 7.48014 3.9664 7.50872 4.12937 7.565V5.37773C3.93896 5.34932 3.7468 5.33727 3.55465 5.34171V7.04417C3.39162 6.98789 3.2216 6.95931 3.05058 6.95944C2.13317 6.95944 1.38961 7.76934 1.38961 8.76838C1.38961 9.47473 1.76129 10.0864 2.30329 10.3843Z" fill="white"/>
<path fill-rule="evenodd" clip-rule="evenodd" d="M6.68744 4.40851C7.4592 5.00916 8.40431 5.3626 9.42508 5.3626V3.6785C8.8553 3.54637 8.35088 3.22204 7.97159 2.77096C7.32243 2.32978 6.85467 1.60192 6.71754 0.75H5.28647V9.29528C5.28323 10.2915 4.54087 11.0981 3.62544 11.0981C3.08597 11.0981 2.60672 10.8181 2.30322 10.3843C1.76122 10.0864 1.38954 9.47473 1.38954 8.76838C1.38954 7.76934 2.1331 6.95944 3.05051 6.95944C3.22627 6.95944 3.39568 6.98924 3.55458 7.04417V5.34171C1.58448 5.38603 0 7.1392 0 9.29535C0 10.3717 0.394586 11.3474 1.03493 12.0603C1.61268 12.4828 2.30815 12.7292 3.05636 12.7292C5.06172 12.7292 6.68744 10.9586 6.68744 8.7746L6.68744 4.40851Z" fill="white"/>
</svg>
