<svg width="14" height="12" viewBox="0 0 14 12" fill="none" xmlns="http://www.w3.org/2000/svg">
<path d="M12.1171 3.41603C12.1171 3.53643 12.1171 3.65684 12.1171 3.76004C12.1171 7.32048 9.46632 11.4313 4.63455 11.4313C3.14141 11.4313 1.7657 10.9841 0.591309 10.2273C0.792632 10.2445 1.01073 10.2617 1.21206 10.2617C2.43677 10.2617 3.57761 9.83171 4.48356 9.1093C3.32595 9.0921 2.35289 8.30089 2.03413 7.23448C2.2019 7.26888 2.35289 7.28608 2.53744 7.28608C2.77231 7.28608 3.00719 7.25168 3.22529 7.18288C2.01735 6.94208 1.11139 5.85846 1.11139 4.55125C1.11139 4.53405 1.11139 4.53405 1.11139 4.51685C1.46371 4.72325 1.86636 4.84365 2.30256 4.86085C1.59793 4.37925 1.12817 3.55364 1.12817 2.60762C1.12817 2.10882 1.26239 1.64441 1.48049 1.24881C2.77231 2.88283 4.71844 3.94924 6.89944 4.06964C6.84911 3.88044 6.83233 3.65684 6.83233 3.45043C6.83233 1.95402 8.00672 0.75 9.46632 0.75C10.2213 0.75 10.9091 1.0768 11.3789 1.59281C11.9829 1.47241 12.5365 1.24881 13.0566 0.939202C12.8553 1.57561 12.4358 2.09162 11.899 2.43562C12.4358 2.36682 12.9391 2.22922 13.4089 2.00562C13.0734 2.55602 12.6372 3.03763 12.1171 3.41603Z" fill="white"/>
</svg>
