<svg width="8" height="14" viewBox="0 0 8 14" fill="none" xmlns="http://www.w3.org/2000/svg">
<path d="M4.00013 7.19305C5.70921 7.19305 7.09841 5.80322 7.09841 4.09449C7.09841 2.38497 5.70921 0.994629 4.00013 0.994629C2.2915 0.994629 0.901855 2.38497 0.901855 4.09449C0.901855 5.80329 2.2915 7.19305 4.00013 7.19305ZM4.00013 2.81109C4.70765 2.81109 5.28296 3.38677 5.28296 4.09449C5.28296 4.80163 4.70765 5.37732 4.00013 5.37732C3.29335 5.37732 2.71731 4.80163 2.71731 4.09449C2.71731 3.38684 3.29335 2.81109 4.00013 2.81109Z" fill="white"/>
<path d="M5.25348 9.72165C5.88424 9.57779 6.49246 9.3283 7.05266 8.97626C7.47665 8.70897 7.60448 8.14803 7.33729 7.72402C7.07032 7.29907 6.51026 7.17119 6.08554 7.43848C4.81643 8.23686 3.18243 8.2365 1.91405 7.43848C1.48926 7.17119 0.929198 7.29907 0.662738 7.72402C0.395476 8.14854 0.522941 8.70897 0.947 8.97626C1.50706 9.32786 2.11535 9.57779 2.74612 9.72165L1.01398 11.4544C0.659817 11.8091 0.659819 12.3839 1.01427 12.7386C1.19172 12.9158 1.42381 13.0045 1.65584 13.0045C1.88829 13.0045 2.12082 12.9158 2.2982 12.7386L3.99961 11.0358L5.70242 12.7386C6.05658 13.0931 6.63123 13.0931 6.98568 12.7386C7.3405 12.384 7.3405 11.8088 6.98568 11.4544L5.25348 9.72165Z" fill="white"/>
</svg>
