<svg width="12" height="12" viewBox="0 0 12 12" fill="none" xmlns="http://www.w3.org/2000/svg">
<path fill-rule="evenodd" clip-rule="evenodd" d="M9 0H3C1.34315 0 0 1.34315 0 3V9C0 10.6569 1.34315 12 3 12H9C10.6569 12 12 10.6569 12 9V3C12 1.34315 10.6569 0 9 0ZM8.39999 5.62218C8.47403 6.12153 8.38874 6.63151 8.15624 7.07959C7.92374 7.52767 7.55587 7.89103 7.10496 8.11798C6.65405 8.34494 6.14305 8.42394 5.64465 8.34374C5.14626 8.26354 4.68584 8.02823 4.32889 7.67127C3.97193 7.31432 3.73662 6.8539 3.65642 6.35551C3.57622 5.85711 3.65522 5.34612 3.88218 4.8952C4.10913 4.44429 4.47249 4.07643 4.92057 3.84393C5.36865 3.61143 5.87864 3.52613 6.37798 3.60018C6.88734 3.67571 7.35889 3.91306 7.723 4.27716C8.08711 4.64127 8.32445 5.11283 8.39999 5.62218ZM9.30002 1.70024C8.74773 1.70024 8.30002 2.14796 8.30002 2.70024C8.30002 3.25253 8.74773 3.70024 9.30002 3.70024H9.30689C9.85918 3.70024 10.3069 3.25253 10.3069 2.70024C10.3069 2.14796 9.85918 1.70024 9.30689 1.70024H9.30002Z" fill="white"/>
</svg>
