<svg width="17" height="8" viewBox="0 0 17 8" fill="none" xmlns="http://www.w3.org/2000/svg">
<path fill-rule="evenodd" clip-rule="evenodd" d="M5.5 0C3.29086 0 1.5 1.79086 1.5 4C1.5 6.20914 3.29086 8 5.5 8H11.5C13.7091 8 15.5 6.20914 15.5 4C15.5 1.79086 13.7091 0 11.5 0H5.5ZM6.5 5C6.5 5.55228 6.05228 6 5.5 6C4.94772 6 4.5 5.55228 4.5 5C4.5 4.44772 4.94772 4 5.5 4C6.05228 4 6.5 4.44772 6.5 5ZM12.5 5C12.5 5.55228 12.0523 6 11.5 6C10.9477 6 10.5 5.55228 10.5 5C10.5 4.44772 10.9477 4 11.5 4C12.0523 4 12.5 4.44772 12.5 5Z" fill="white"/>
<line x1="1" y1="5.5" x2="1" y2="0.5" stroke="white" stroke-linecap="round"/>
<line x1="16" y1="5.5" x2="16" y2="0.5" stroke="white" stroke-linecap="round"/>
</svg>
