<svg width="16" height="12" viewBox="0 0 16 12" fill="none" xmlns="http://www.w3.org/2000/svg">
<path fill-rule="evenodd" clip-rule="evenodd" d="M14.6948 1.44653C14.9309 1.68988 15.0985 1.99122 15.1809 2.32011C15.4007 3.53888 15.5074 4.77535 15.4996 6.01376C15.504 7.23366 15.3973 8.45143 15.1809 9.65198C15.0985 9.98086 14.9309 10.2822 14.6948 10.5256C14.4588 10.7689 14.1627 10.9457 13.8364 11.038C12.6445 11.3567 8.12381 11.3567 8.12381 11.3567C8.12381 11.3567 3.35602 11.3567 2.16407 11.038C1.84447 10.9505 1.55283 10.7821 1.31733 10.549C1.08183 10.316 0.910415 10.0261 0.819661 9.70742C0.599821 8.48865 0.493109 7.25217 0.500884 6.01376C0.494811 4.78461 0.601517 3.55749 0.819661 2.34783C0.901981 2.01894 1.06963 1.7176 1.30569 1.47425C1.54174 1.23089 1.83784 1.05414 2.16407 0.961843C3.35602 0.643066 8.12381 0.643066 8.12381 0.643066C8.12381 0.643066 12.6445 0.643066 13.8364 0.934124C14.1627 1.02642 14.4588 1.20317 14.6948 1.44653ZM10.5493 6.01412L6.5646 8.2802V3.74803L10.5493 6.01412Z" fill="white"/>
</svg>
