<svg width="9" height="12" viewBox="0 0 9 12" fill="none" xmlns="http://www.w3.org/2000/svg">
<path d="M7.7774 6.28851C7.41236 5.88817 6.87924 5.62292 6.30681 5.49322V5.43936C6.71569 5.26053 7.07263 4.98083 7.31239 4.60047C7.55196 4.2201 7.67829 3.78621 7.67829 3.29832C7.67829 2.87761 7.59468 2.50623 7.42106 2.18406C7.2473 1.86195 6.98621 1.60456 6.63437 1.41214C6.30897 1.23318 5.96145 1.11041 5.59 1.05448C5.21828 0.998555 4.67286 0.965332 3.9518 0.965332H0.418945V11.0354H4.41347C5.09496 11.0354 5.65666 10.9402 6.09858 10.8148C6.54043 10.6896 6.94604 10.4629 7.3154 10.1677C7.62759 9.92158 7.87599 9.60234 8.06068 9.22643C8.24536 8.85053 8.33112 8.41024 8.33112 7.91363C8.33112 7.2334 8.14225 6.68898 7.7774 6.28851ZM2.87222 2.79625H3.10754C3.54717 2.79625 3.878 2.80564 4.10017 2.81229C4.32214 2.81909 4.51454 2.86123 4.67725 2.9328C4.84871 3.00897 4.97504 3.1334 5.05649 3.30345C5.13781 3.47356 5.1785 3.63987 5.1785 3.80092C5.1785 4.02023 5.14114 4.21305 5.06637 4.3785C4.99159 4.54414 4.85532 4.67404 4.65749 4.76798C4.47706 4.85307 4.30239 4.91892 4.13308 4.9277C3.96383 4.93676 3.66813 4.96006 3.2461 4.96006H2.87222V2.79625ZM5.64351 8.51018C5.54008 8.70053 5.3764 8.84467 5.15213 8.94321C4.89706 9.05506 4.64643 9.14873 4.40025 9.15772C4.15394 9.16671 3.70987 9.20446 3.06796 9.20446H2.87222V6.62453H3.39114C3.83083 6.62453 4.18142 6.63272 4.4431 6.63945C4.70466 6.6461 4.91021 6.68106 5.05976 6.73911C5.306 6.82873 5.49069 6.96175 5.61374 7.13632C5.73687 7.31083 5.79849 7.55311 5.79849 7.86197C5.79849 8.10351 5.74674 8.32003 5.64351 8.51018Z" fill="white"/>
</svg>
