<svg width="14" height="14" viewBox="0 0 14 14" fill="none" xmlns="http://www.w3.org/2000/svg">
<path d="M8.25844 8.25844C7.23316 9.31635 7.15859 10.6352 7.07004 13.5247C9.76375 13.5247 11.6232 13.5154 12.5833 12.5833C13.5154 11.6232 13.5247 9.6752 13.5247 7.07004C10.6352 7.16325 9.31635 7.23316 8.25844 8.25844ZM0.475586 7.07004C0.475586 9.6752 0.484907 11.6232 1.41699 12.5833C2.37703 13.5154 4.23652 13.5247 6.93023 13.5247C6.83702 10.6352 6.76712 9.31635 5.74183 8.25844C4.68392 7.23316 3.36503 7.15859 0.475586 7.07004ZM6.93023 0.475586C4.24118 0.475586 2.37703 0.484907 1.41699 1.41699C0.484907 2.37703 0.475586 4.32507 0.475586 6.93023C3.36503 6.83702 4.68392 6.76712 5.74183 5.74183C6.76712 4.68392 6.84168 3.36503 6.93023 0.475586ZM8.25844 5.74183C7.23316 4.68392 7.15859 3.36503 7.07004 0.475586C9.76375 0.475586 11.6232 0.484907 12.5833 1.41699C13.5154 2.37703 13.5247 4.32507 13.5247 6.93023C10.6352 6.83702 9.31635 6.76712 8.25844 5.74183Z" fill="white"/>
</svg>
