<svg width="16" height="13" viewBox="0 0 16 13" fill="none" xmlns="http://www.w3.org/2000/svg">
<path d="M14.5088 0.101661L1.06518 5.11663C0.329943 5.32574 0.353373 6.04122 0.897167 6.21331L4.26563 7.24906L5.55441 11.142C5.71119 11.5681 5.83919 11.7287 6.10673 11.7323C6.38795 11.7362 6.49562 11.635 6.78762 11.3805C7.12956 11.0641 7.6504 10.5663 8.47335 9.778L11.9771 12.3285C12.6219 12.6789 13.0875 12.4973 13.248 11.7384L15.4447 1.03337C15.6801 0.103234 15.1257 -0.174194 14.5088 0.101661ZM4.79424 7.01115L12.4524 2.27748C12.8296 2.02812 12.9479 2.30629 12.7776 2.49841L6.42188 8.13109L6.09577 10.9423L4.79424 7.01115Z" fill="white"/>
</svg>
