<svg width="80" height="80" viewBox="0 0 80 80" fill="none" xmlns="http://www.w3.org/2000/svg">
<path d="M16 51.3765H23.5V63.5138C23.5 66.7092 20.9097 69.2996 17.7143 69.2996C13.1777 69.2996 9.5 65.6219 9.5 61.0853V57.8765C9.5 54.2866 12.4102 51.3765 16 51.3765Z" stroke="#5460A8" stroke-width="3"/>
<path d="M31.7642 5.5H69C72.5899 5.5 75.5 8.41015 75.5 12V62C75.5 65.5899 72.5899 68.5 69 68.5H23.1104C23.1287 68.4701 23.1471 68.44 23.1655 68.4097C24.2168 66.6721 25.2642 64.1074 25.2642 60.8033V11.9982C25.2642 8.4088 28.1739 5.5 31.7642 5.5Z" stroke="#5460A8" stroke-width="3"/>
<path d="M60.4268 57.9609C64.1037 57.9609 67.0843 54.9802 67.0843 51.3034C67.0843 47.6266 64.1037 44.646 60.4268 44.646C56.75 44.646 53.7694 47.6266 53.7694 51.3034C53.7694 54.9802 56.75 57.9609 60.4268 57.9609Z" stroke="#5460A8" stroke-width="2" stroke-linecap="round" stroke-linejoin="round"/>
<path d="M56.8223 56.905L55.6715 65.5692L60.4268 62.716L65.1821 65.5692L64.0313 56.8955" stroke="#5460A8" stroke-width="2" stroke-linecap="round" stroke-linejoin="round"/>
<path d="M33.931 19.499H65.213" stroke="#5460A8" stroke-width="3" stroke-linecap="round"/>
<path d="M33.931 29.3701H65.213" stroke="#5460A8" stroke-width="3" stroke-linecap="round"/>
<path d="M33.931 35.77H65.213" stroke="#5460A8" stroke-width="3" stroke-linecap="round"/>
<path d="M33.931 42.1704H47.954" stroke="#5460A8" stroke-width="3" stroke-linecap="round"/>
<path d="M34.1539 48.5693H43.3077" stroke="#5460A8" stroke-width="3" stroke-linecap="round"/>
<path d="M34.1539 55.1079H45.9231" stroke="#5460A8" stroke-width="3" stroke-linecap="round"/>
<path d="M11 56.5H18.5V68.7143C18.5 71.9096 15.9096 74.5 12.7143 74.5C8.17766 74.5 4.5 70.8223 4.5 66.2857V63C4.5 59.4101 7.41015 56.5 11 56.5Z" fill="white" stroke="#5460A8" stroke-width="3"/>
<path d="M16.8269 74.5C18.1016 72.8024 19.2642 70.285 19.2642 66.8033V66.7736V66.7434V66.7126V66.6813V66.6494V66.617V66.584V66.5505V66.5165V66.4819V66.4467V66.411V66.3748V66.3381V66.3008V66.263V66.2246V66.1858V66.1464V66.1065V66.066V66.0251V65.9836V65.9416V65.8991V65.856V65.8125V65.7685V65.7239V65.6789V65.6333V65.5872V65.5406V65.4936V65.446V65.398V65.3494V65.3004V65.2508V65.2008V65.1503V65.0993V65.0478V64.9958V64.9434V64.8905V64.8371V64.7832V64.7288V64.674V64.6187V64.563V64.5068V64.4501V64.3929V64.3353V64.2773V64.2187V64.1597V64.1003V64.0404V63.9801V63.9193V63.8581V63.7964V63.7343V63.6717V63.6087V63.5453V63.4814V63.4171V63.3524V63.2872V63.2216V63.1556V63.0891V63.0222V62.9549V62.8872V62.8191V62.7505V62.6816V62.6122V62.5424V62.4722V62.4016V62.3306V62.2591V62.1873V62.1151V62.0425V61.9694V61.896V61.8222V61.748V61.6734V61.5984V61.523V61.4473V61.3712V61.2946V61.2177V61.1404V61.0628V60.9848V60.9064V60.8276V60.7484V60.6689V60.5891V60.5088V60.4282V60.3472V60.2659V60.1842V60.1022V60.0198V59.9371V59.854V59.7705V59.6868V59.6026V59.5182V59.4333V59.3482V59.2627V59.1769V59.0907V59.0042V58.9174V58.8302V58.7428V58.6549V58.5668V58.4784V58.3896V58.3005V58.2111V58.1214V58.0313V57.941V57.8503V57.7594V57.6681V57.5765V57.4846V57.3925V57.3V57.2072V57.1141V57.0208V56.9271V56.8332V56.7389V56.6444V56.5496V56.4545V56.3591V56.2635V56.1676V56.0714V55.9749V55.8781V55.7811V55.6838V55.5862V55.4884V55.3903V55.292V55.1933V55.0945V54.9953V54.896V54.7963V54.6964V54.5963V54.4959V54.3953V54.2944V54.1933V54.0919V53.9903V53.8884V53.7864V53.6841V53.5815V53.4787V53.3757V53.2725V53.169V53.0654V52.9615V52.8573V52.753V52.6485V52.5437V52.4387V52.3335V52.2281V52.1225V52.0167V51.9106V51.8044V51.698V51.5914V51.4845V51.3775V51.2703V51.1629V51.0553V50.9475V50.8396V50.7314V50.6231V50.5145V50.4058V50.297V50.1879V50.0787V49.9693V49.8597V49.75V49.6401V49.53V49.4198V49.3093V49.1988V49.0881V48.9772V48.8662V48.755V48.6436V48.5322V48.4205V48.3087V48.1968V48.0847V47.9725V47.8602V47.7477V47.6351V47.5223V47.4094V47.2964V47.1833V47.07V46.9566V46.8431V46.7294V46.6157V46.5018V46.3878V46.2737V46.1594V46.0451V45.9306V45.8161V45.7014V45.5867V45.4718V45.3568V45.2418V45.1266V45.0113V44.896V44.7805V44.665V44.5494V44.4336V44.3179V44.202V44.086V43.97V43.8538V43.7377V43.6214V43.505V43.3886V43.2721V43.1556V43.039V42.9223V42.8056V42.6888V42.5719V42.455V42.338V42.221V42.1039V41.9868V41.8696V41.7524V41.6351V41.5178V41.4005V41.2831V41.1656V41.0482V40.9307V40.8132V40.6956V40.578V40.4604V40.3428V40.2251V40.1074V39.9897V39.872V39.7542V39.6365V39.5187V39.4009V39.2832V39.1654V39.0476V38.9298V38.812V38.6941V38.5763V38.4585V38.3407V38.2229V38.1052V37.9874V37.8696V37.7519V37.6341V37.5164V37.3987V37.281V37.1634V37.0458V36.9281V36.8106V36.693V36.5755V36.458V36.3406V36.2231V36.1058V35.9884V35.8711V35.7539V35.6367V35.5195V35.4024V35.2853V35.1683V35.0514V34.9345V34.8176V34.7008V34.5841V34.4675V34.3509V34.2343V34.1179V34.0015V33.8852V33.7689V33.6527V33.5366V33.4206V33.3047V33.1888V33.073V32.9574V32.8418V32.7262V32.6108V32.4955V32.3803V32.2651V32.1501V32.0351V31.9203V31.8056V31.6909V31.5764V31.462V31.3477V31.2335V31.1194V31.0054V30.8916V30.7779V30.6642V30.5508V30.4374V30.3242V30.211V30.0981V29.9852V29.8725V29.7599V29.6475V29.5352V29.423V29.311V29.1991V29.0873V28.9757V28.8643V28.753V28.6419V28.5309V28.42V28.3094V28.1989V28.0885V27.9783V27.8683V27.7584V27.6487V27.5392V27.4299V27.3207V27.2117V27.1028V26.9942V26.8857V26.7774V26.6693V26.5614V26.4537V26.3462V26.2388V26.1316V26.0247V25.9179V25.8113V25.705V25.5988V25.4928V25.3871V25.2815V25.1762V25.071V24.9661V24.8614V24.7569V24.6526V24.5486V24.4447V24.3411V24.2377V24.1346V24.0316V23.9289V23.8264V23.7242V23.6222V23.5204V23.4189V23.3176V23.2165V23.1157V23.0152V22.9148V22.8148V22.715V22.6154V22.5161V22.417V22.3182V22.2197V22.1214V22.0234V21.9256V21.8281V21.7309V21.634V21.5373V21.4409V21.3448V21.2489V21.1533V21.0581V20.963V20.8683V20.7739V20.6797V20.5859V20.4923V20.399V20.306V20.2133V20.1209V20.0288V19.937V19.8456V19.7544V19.6635V19.5729V19.4827V19.3927V19.3031V19.2138V19.1248V19.0361V18.9477V18.8597V18.772V18.6846V18.5975V18.5108V18.4244V18.3383V18.2526V18.1672V18.0822V17.9974C19.2642 14.4082 22.1737 11.5 25.7642 11.5H63C66.5899 11.5 69.5 14.4101 69.5 18V68C69.5 71.5899 66.5899 74.5 63 74.5H16.8269Z" fill="white" stroke="#5460A8" stroke-width="3"/>
<path d="M55.427 60.9609C59.1038 60.9609 62.0844 57.9802 62.0844 54.3034C62.0844 50.6266 59.1038 47.646 55.427 47.646C51.7502 47.646 48.7695 50.6266 48.7695 54.3034C48.7695 57.9802 51.7502 60.9609 55.427 60.9609Z" stroke="#5460A8" stroke-width="3" stroke-linecap="round" stroke-linejoin="round"/>
<path d="M51.8224 59.905L50.6716 68.5692L55.4269 65.716L60.1822 68.5692L59.0315 59.8955" stroke="#5460A8" stroke-width="3" stroke-linecap="round" stroke-linejoin="round"/>
<path d="M28.931 24.499H60.213" stroke="#5460A8" stroke-width="3" stroke-linecap="round"/>
<path d="M28.931 34.3701H60.213" stroke="#5460A8" stroke-width="3" stroke-linecap="round"/>
<path d="M28.931 40.77H60.213" stroke="#5460A8" stroke-width="3" stroke-linecap="round"/>
<path d="M28.931 47.1704H42.954" stroke="#5460A8" stroke-width="3" stroke-linecap="round"/>
<path d="M29.1539 53.5693H38.3077" stroke="#5460A8" stroke-width="3" stroke-linecap="round"/>
<path d="M29.1539 60.1079H40.9231" stroke="#5460A8" stroke-width="3" stroke-linecap="round"/>
</svg>
