<svg width="24" height="24" viewBox="0 0 24 24" fill="none" xmlns="http://www.w3.org/2000/svg">
<path d="M2 15.7778C2 16.3671 2.23413 16.9324 2.65087 17.3491C3.06762 17.7659 3.63285 18 4.22222 18H18L22 22V4.22222C22 3.63285 21.7659 3.06762 21.3491 2.65087C20.9324 2.23413 20.3671 2 19.7778 2H4.22222C3.63285 2 3.06762 2.23413 2.65087 2.65087C2.23413 3.06762 2 3.63285 2 4.22222V15.7778Z" stroke="#A8AEC0" stroke-width="2" stroke-linecap="round" stroke-linejoin="round"/>
<path d="M9.43945 7.36013C9.64634 6.772 10.0547 6.27606 10.5922 5.96017C11.1297 5.64427 11.7617 5.5288 12.3762 5.6342C12.9907 5.7396 13.548 6.05907 13.9495 6.53603C14.351 7.013 14.5708 7.61667 14.5699 8.24013C14.5699 10.0001 11.9299 10.8801 11.9299 10.8801" stroke="#A8AEC0" stroke-width="2" stroke-linecap="round" stroke-linejoin="round"/>
<path d="M12.0002 14.3999H12.0104" stroke="#A8AEC0" stroke-width="2" stroke-linecap="round" stroke-linejoin="round"/>
</svg>
