<svg width="24" height="24" viewBox="0 0 24 24" fill="none" xmlns="http://www.w3.org/2000/svg">
<path d="M23 19C23 16.2573 23 8.36311 23 3.99555C23 2.3387 21.6588 1 20.0019 1C16.1748 1 9.77643 1 7.5 1" stroke="#A8AEC0" stroke-width="2" stroke-linecap="round" stroke-linejoin="round"/>
<path d="M1 16.7778C1 17.3671 1.23413 17.9324 1.65087 18.3491C2.06762 18.7659 2.63285 19 3.22222 19H16L20 23V6.22222C20 5.63285 19.7659 5.06762 19.3491 4.65087C18.9324 4.23413 18.3671 4 17.7778 4H3.22222C2.63285 4 2.06762 4.23413 1.65087 4.65087C1.23413 5.06762 1 5.63285 1 6.22222V16.7778Z" stroke="#A8AEC0" stroke-width="2" stroke-linecap="round" stroke-linejoin="round"/>
<path d="M14 15C14 15 12.6875 13 10.5 13C8.3125 13 7 15 7 15" stroke="#A8AEC0" stroke-width="2" stroke-linecap="round" stroke-linejoin="round"/>
<path d="M8 9H8.01" stroke="#A8AEC0" stroke-width="2" stroke-linecap="round" stroke-linejoin="round"/>
<path d="M13 9H13.01" stroke="#A8AEC0" stroke-width="2" stroke-linecap="round" stroke-linejoin="round"/>
</svg>
