<svg width="24" height="24" viewBox="0 0 24 24" fill="none" xmlns="http://www.w3.org/2000/svg">
<g clip-path="url(#clip0_5145_34143)">
<path d="M22.9999 6.99126C22.9999 11.4673 17.6408 15.3039 17.6408 15.3039C17.6408 15.3039 12.2817 11.4673 12.2817 6.99126C12.2817 5.46496 12.8464 4.00117 13.8514 2.92191C14.8564 1.84265 16.2195 1.23633 17.6408 1.23633C19.0621 1.23633 20.4252 1.84265 21.4303 2.92191C22.4353 4.00117 22.9999 5.46496 22.9999 6.99126Z" stroke="#A8AEC0" stroke-width="2" stroke-linecap="round" stroke-linejoin="round"/>
<path d="M17.6408 8.11859C18.6083 8.11859 19.3925 7.33434 19.3925 6.36691C19.3925 5.39949 18.6083 4.61523 17.6408 4.61523C16.6734 4.61523 15.8892 5.39949 15.8892 6.36691C15.8892 7.33434 16.6734 8.11859 17.6408 8.11859Z" stroke="#A8AEC0" stroke-width="2" stroke-linecap="round" stroke-linejoin="round"/>
<path d="M4.94116 23.0081C11.9479 23.0081 17.6408 23.8839 17.6408 18.6289" stroke="#A8AEC0" stroke-width="2" stroke-linecap="round"/>
<path d="M9.11056 13.3494C9.11056 16.7365 5.05528 19.6397 5.05528 19.6397C5.05528 19.6397 1 16.7365 1 13.3494C1 12.1945 1.42725 11.0868 2.18776 10.2701C2.94828 9.45344 3.97975 8.99463 5.05528 8.99463C6.13081 8.99463 7.16228 9.45344 7.9228 10.2701C8.68331 11.0868 9.11056 12.1945 9.11056 13.3494Z" stroke="#A8AEC0" stroke-width="2" stroke-linecap="round" stroke-linejoin="round"/>
<path d="M4.9412 14.2496C5.66677 14.2496 6.25496 13.6614 6.25496 12.9358C6.25496 12.2103 5.66677 11.6221 4.9412 11.6221C4.21563 11.6221 3.62744 12.2103 3.62744 12.9358C3.62744 13.6614 4.21563 14.2496 4.9412 14.2496Z" fill="#A8AEC0"/>
</g>
<defs>
<clipPath id="clip0_5145_34143">
<rect width="24" height="24" fill="white"/>
</clipPath>
</defs>
</svg>
