<svg width="40" height="41" viewBox="0 0 40 41" fill="none" xmlns="http://www.w3.org/2000/svg">
<path d="M11.579 4.00879L7.28076 9.53511V33.8509C7.28076 34.7303 7.58266 35.5737 8.12005 36.1955C8.65743 36.8173 9.38628 37.1667 10.1463 37.1667H30.2047C30.9647 37.1667 31.6936 36.8173 32.2309 36.1955C32.7683 35.5737 33.0702 34.7303 33.0702 33.8509V9.53511L28.772 4.00879H11.579Z" stroke="#5ABD32" stroke-width="2" stroke-linecap="round" stroke-linejoin="round"/>
<path d="M9.12292 9.53516H31.2282" stroke="#5ABD32" stroke-width="2" stroke-linecap="round" stroke-linejoin="round"/>
<path d="M25.7018 18.7456C25.7018 20.2113 25.1196 21.6169 24.0832 22.6533C23.0468 23.6897 21.6412 24.2719 20.1755 24.2719C18.7098 24.2719 17.3042 23.6897 16.2678 22.6533C15.2314 21.6169 14.6492 20.2113 14.6492 18.7456" stroke="#5ABD32" stroke-width="2" stroke-linecap="round" stroke-linejoin="round"/>
</svg>
