<svg width="29" height="36" viewBox="0 0 29 36" fill="none" xmlns="http://www.w3.org/2000/svg">
<path d="M5.57901 1.00879L1.28076 6.53511V30.8509C1.28076 31.7303 1.58266 32.5737 2.12005 33.1955C2.65743 33.8173 3.38628 34.1667 4.14626 34.1667H24.2047C24.9647 34.1667 25.6936 33.8173 26.2309 33.1955C26.7683 32.5737 27.0702 31.7303 27.0702 30.8509V6.53511L22.772 1.00879H5.57901Z" stroke="#A8AEC0" stroke-width="2" stroke-linecap="round" stroke-linejoin="round"/>
<path d="M3.12292 6.53516H25.2282" stroke="#A8AEC0" stroke-width="2" stroke-linecap="round" stroke-linejoin="round"/>
<path d="M19.7018 15.7456C19.7018 17.2113 19.1196 18.6169 18.0832 19.6533C17.0468 20.6897 15.6412 21.2719 14.1755 21.2719C12.7098 21.2719 11.3042 20.6897 10.2678 19.6533C9.2314 18.6169 8.64917 17.2113 8.64917 15.7456" stroke="#A8AEC0" stroke-width="2" stroke-linecap="round" stroke-linejoin="round"/>
</svg>
