<svg width="32" height="39" viewBox="0 0 32 39" fill="none" xmlns="http://www.w3.org/2000/svg">
<path d="M31 16.1666C31 27.8333 16 37.8333 16 37.8333C16 37.8333 1 27.8333 1 16.1666C1 12.1884 2.58035 8.37307 5.3934 5.56002C8.20644 2.74698 12.0218 1.16663 16 1.16663C19.9782 1.16663 23.7936 2.74698 26.6066 5.56002C29.4196 8.37307 31 12.1884 31 16.1666Z" stroke="#A8AEC0" stroke-width="2" stroke-linecap="round" stroke-linejoin="round"/>
<path d="M16.0001 21.1666C18.7615 21.1666 21.0001 18.928 21.0001 16.1666C21.0001 13.4052 18.7615 11.1666 16.0001 11.1666C13.2387 11.1666 11.0001 13.4052 11.0001 16.1666C11.0001 18.928 13.2387 21.1666 16.0001 21.1666Z" stroke="#A8AEC0" stroke-width="2" stroke-linecap="round" stroke-linejoin="round"/>
</svg>
