<svg width="36" height="30" viewBox="0 0 36 30" fill="none" xmlns="http://www.w3.org/2000/svg">
<path fill-rule="evenodd" clip-rule="evenodd" d="M0.333008 4.83325C0.333008 2.62411 2.12387 0.833252 4.33301 0.833252H21.6663C23.8755 0.833252 25.6663 2.62411 25.6663 4.83325V6.70093C25.9791 6.59039 26.3157 6.53024 26.6663 6.53024H29.1106C29.9062 6.53024 30.6693 6.84631 31.2319 7.40892L34.7876 10.9646C35.3502 11.5272 35.6663 12.2903 35.6663 13.0859V20.803C35.6663 22.4598 34.3232 23.803 32.6663 23.803H32.1721C32.1214 23.0611 31.8653 22.3756 31.4601 21.803H32.6663C33.2186 21.803 33.6663 21.3553 33.6663 20.803V13.0859C33.6663 12.8207 33.5609 12.5664 33.3734 12.3788L29.8177 8.82314C29.6302 8.6356 29.3758 8.53024 29.1106 8.53024H26.6663C26.1172 8.53024 25.6714 8.97285 25.6663 9.52078V20.4999L25.6663 20.5189V20.803C25.6663 20.8937 25.6784 20.9817 25.701 21.0653C24.9925 21.6639 24.4982 22.5081 24.3494 23.4666C23.6398 24.1088 22.6988 24.4999 21.6663 24.4999H13.3407C13.3556 24.3606 13.3632 24.2191 13.3632 24.0757C13.3632 23.5155 13.2463 22.9825 13.0354 22.4999H21.6663C22.7664 22.4999 23.6591 21.6117 23.6663 20.5133V9.53024L23.6663 9.51385V4.83325C23.6663 3.72868 22.7709 2.83325 21.6663 2.83325H4.33301C3.22844 2.83325 2.33301 3.72868 2.33301 4.83325V8.4999H0.333008V4.83325ZM0.333008 15.1666V20.4999C0.333008 22.7091 2.12387 24.4999 4.33301 24.4999H5.50703C5.49211 24.3606 5.48446 24.2191 5.48446 24.0757C5.48446 23.5155 5.60143 22.9825 5.81228 22.4999H4.33301C3.22844 22.4999 2.33301 21.6045 2.33301 20.4999V15.1666H0.333008Z" fill="#A8AEC0"/>
<path d="M9.42377 28.015C11.5994 28.015 13.3632 26.2513 13.3632 24.0756C13.3632 21.9 11.5994 20.1362 9.42377 20.1362C7.2481 20.1362 5.48438 21.9 5.48438 24.0756C5.48438 26.2513 7.2481 28.015 9.42377 28.015Z" stroke="#A8AEC0" stroke-width="2" stroke-linecap="round" stroke-linejoin="round"/>
<path d="M28.242 28.0151C30.4177 28.0151 32.1814 26.2514 32.1814 24.0757C32.1814 21.9001 30.4177 20.1364 28.242 20.1364C26.0663 20.1364 24.3026 21.9001 24.3026 24.0757C24.3026 26.2514 26.0663 28.0151 28.242 28.0151Z" stroke="#A8AEC0" stroke-width="2" stroke-linecap="round" stroke-linejoin="round"/>
<path d="M12.9997 8.49988H1.33301" stroke="#A8AEC0" stroke-width="2" stroke-linecap="round" stroke-linejoin="round"/>
<path d="M7.99967 15.1666H1.33301" stroke="#A8AEC0" stroke-width="2" stroke-linecap="round" stroke-linejoin="round"/>
</svg>
