<svg width="38" height="31" viewBox="0 0 38 31" fill="none" xmlns="http://www.w3.org/2000/svg">
<path d="M18.2744 22.0067L17.4585 21.4286L18.2744 22.0067ZM16.6891 11.8326L17.1891 12.6986L16.6891 11.8326ZM24.9789 18.1359L25.0716 19.1316L24.9789 18.1359ZM21.1861 18.9947L21.6861 19.8608L21.1861 18.9947ZM27.8846 18.2337C31.1924 16.324 32.3257 12.0944 30.416 8.78659L28.6839 9.78659C30.0414 12.1378 29.2358 15.1442 26.8846 16.5017L27.8846 18.2337ZM25.0716 19.1316C26.0352 19.0419 26.9946 18.7476 27.8846 18.2337L26.8846 16.5017C26.2492 16.8685 25.5686 17.0767 24.8862 17.1402L25.0716 19.1316ZM20.6861 18.1287L20.4146 18.2854L21.4146 20.0175L21.6861 19.8608L20.6861 18.1287ZM16.9063 24.5721C17.7964 24.0582 18.5309 23.3745 19.0904 22.5849L17.4585 21.4286C17.0623 21.9878 16.5417 22.4732 15.9063 22.84L16.9063 24.5721ZM7.45919 22.0407C9.36893 25.3485 13.5986 26.4818 16.9063 24.5721L15.9063 22.84C13.5551 24.1975 10.5487 23.3919 9.19124 21.0407L7.45919 22.0407ZM9.99054 12.5936C6.68277 14.5033 5.54945 18.7329 7.45919 22.0407L9.19124 21.0407C7.83378 18.6895 8.63936 15.6831 10.9905 14.3256L9.99054 12.5936ZM12.8036 11.6957C11.8399 11.7854 10.8806 12.0797 9.99054 12.5936L10.9905 14.3256C11.6259 13.9588 12.3066 13.7507 12.9889 13.6871L12.8036 11.6957ZM17.1891 12.6986L17.4605 12.5419L16.4605 10.8099L16.1891 10.9665L17.1891 12.6986ZM20.9688 6.25524C20.0788 6.76911 19.3443 7.45281 18.7848 8.24247L20.4167 9.39872C20.8129 8.83953 21.3335 8.35412 21.9688 7.98729L20.9688 6.25524ZM30.416 8.78659C28.5062 5.47882 24.2766 4.3455 20.9688 6.25524L21.9688 7.98729C24.32 6.62983 27.3265 7.43541 28.6839 9.78659L30.416 8.78659ZM17.4605 12.5419C18.8249 11.7542 19.7061 10.4015 20.4167 9.39872L18.7848 8.24247C17.9823 9.37505 17.3625 10.2891 16.4605 10.8099L17.4605 12.5419ZM20.4146 18.2854C19.0503 19.0732 18.169 20.4258 17.4585 21.4286L19.0904 22.5849C19.8929 21.4523 20.5126 20.5383 21.4146 20.0175L20.4146 18.2854ZM12.9889 13.6871C14.2127 13.5732 15.8247 13.4863 17.1891 12.6986L16.1891 10.9665C15.287 11.4873 14.1856 11.5671 12.8036 11.6957L12.9889 13.6871ZM24.8862 17.1402C23.6625 17.2541 22.0505 17.341 20.6861 18.1287L21.6861 19.8608C22.5881 19.34 23.6896 19.2602 25.0716 19.1316L24.8862 17.1402Z" fill="#A8AEC0"/>
<ellipse cx="24.4267" cy="12.2445" rx="2.53534" ry="2.53534" transform="rotate(-30 24.4267 12.2445)" stroke="#A8AEC0" stroke-width="2" stroke-linecap="round" stroke-linejoin="round"/>
<ellipse cx="13.4484" cy="18.5828" rx="2.53534" ry="2.53533" transform="rotate(-30 13.4484 18.5828)" stroke="#A8AEC0" stroke-width="2" stroke-linecap="round" stroke-linejoin="round"/>
<path fill-rule="evenodd" clip-rule="evenodd" d="M3.85944 1.8276C7.16721 -0.0821446 11.3968 1.05118 13.3066 4.35895C13.8204 5.249 14.1147 6.20836 14.2044 7.17198L14.2226 7.3681V7.36811C14.3417 8.65882 14.4377 9.69857 14.9336 10.5575L15.0903 10.8289C15.1514 10.9348 15.0535 11.0754 14.9341 11.0494C14.4172 10.937 13.891 10.878 13.3643 10.8721C13.0699 10.8689 12.7951 10.7002 12.7053 10.4198C12.4018 9.4713 12.3144 8.4898 12.2397 7.6528L12.2397 7.65207C12.2307 7.55165 12.222 7.45332 12.213 7.35737C12.1495 6.67499 11.9414 5.99433 11.5745 5.35895C10.2171 3.00777 7.21062 2.20219 4.85944 3.55965C2.50825 4.9171 1.70268 7.92355 3.06014 10.2747C3.42697 10.9101 3.91236 11.4307 4.47154 11.8269C4.54996 11.8825 4.63053 11.9391 4.71279 11.9969L4.7139 11.9977L4.71403 11.9977C5.32429 12.4265 6.02806 12.9211 6.64684 13.5422C6.89829 13.7946 6.90283 14.1899 6.71246 14.4911C6.45392 14.9001 6.23731 15.328 6.06264 15.7686C6.03191 15.8461 5.92433 15.8552 5.88264 15.783C5.38671 14.9241 4.53427 14.3211 3.47606 13.5726L3.31529 13.4588C2.52564 12.8993 1.84195 12.1648 1.32808 11.2747C-0.581656 7.96696 0.551669 3.73734 3.85944 1.8276ZM8.64696 7.04918C8.22299 6.31484 7.28399 6.06324 6.54965 6.48721C5.81531 6.91118 5.56371 7.85018 5.98768 8.58452C6.41165 9.31886 7.35065 9.57046 8.08499 9.14649C8.81933 8.72252 9.07094 7.78352 8.64696 7.04918ZM5.54965 4.75516C7.24058 3.7789 9.40276 4.35826 10.379 6.04918C11.3553 7.74011 10.7759 9.90228 9.08499 10.8785C7.39407 11.8548 5.23189 11.2754 4.25563 9.58452C3.27938 7.89359 3.85873 5.73141 5.54965 4.75516Z" fill="#A8AEC0"/>
<path fill-rule="evenodd" clip-rule="evenodd" d="M33.9903 29.8296C30.6825 31.7394 26.4529 30.606 24.5432 27.2983C24.0293 26.4082 23.735 25.4489 23.6453 24.4852L23.6272 24.2891C23.508 22.9984 23.4121 21.9587 22.9161 21.0997L22.7594 20.8283C22.6487 20.6364 22.8026 20.365 23.0236 20.3796C23.4346 20.4067 23.8471 20.4036 24.2576 20.3703C24.5624 20.3456 24.863 20.4943 24.9781 20.7776C25.4191 21.8625 25.5232 23.0312 25.61 24.0044L25.61 24.0045L25.61 24.0045L25.61 24.0046C25.619 24.1052 25.6277 24.2037 25.6367 24.2999C25.7002 24.9822 25.9084 25.6629 26.2752 26.2983C27.6327 28.6495 30.6391 29.455 32.9903 28.0976C35.3415 26.7401 36.1471 23.7337 34.7896 21.3825C34.4228 20.7471 33.9374 20.2265 33.3782 19.8303C33.2994 19.7745 33.2184 19.7176 33.1357 19.6595L33.1357 19.6595L33.1357 19.6595L33.1357 19.6595C32.3007 19.0728 31.2907 18.3631 30.5628 17.3742C30.4005 17.1538 30.4181 16.8559 30.5686 16.6272C30.7848 16.2989 30.9754 15.9587 31.1405 15.6094C31.2582 15.3602 31.6726 15.3641 31.8104 15.6027L31.9671 15.8742C32.463 16.7332 33.3155 17.3361 34.3737 18.0847L34.5344 18.1984C35.3241 18.7579 36.0078 19.4925 36.5216 20.3825C38.4314 23.6903 37.2981 27.9199 33.9903 29.8296ZM29.2028 24.608C29.6267 25.3424 30.5657 25.594 31.3001 25.17C32.0344 24.746 32.286 23.807 31.862 23.0727C31.4381 22.3384 30.4991 22.0868 29.7647 22.5107C29.0304 22.9347 28.7788 23.8737 29.2028 24.608ZM32.3001 26.9021C30.6091 27.8783 28.447 27.299 27.4707 25.608C26.4945 23.9171 27.0738 21.7549 28.7647 20.7787C30.4557 19.8024 32.6178 20.3818 33.5941 22.0727C34.5704 23.7636 33.991 25.9258 32.3001 26.9021Z" fill="#A8AEC0"/>
</svg>
