<svg width="39" height="24" viewBox="0 0 39 24" fill="none" xmlns="http://www.w3.org/2000/svg">
<path d="M14.1661 6.66675H27.4994M14.1661 6.66675L17.4994 17.5001M14.1661 6.66675L7.49939 16.6667L17.4994 17.5001M14.1661 6.66675L12.4994 2.50008M27.4994 6.66675L17.4994 17.5001M27.4994 6.66675L31.6661 16.6667M27.4994 6.66675L25.8327 1.66675H22.4994M12.4994 2.50008H16.6661M12.4994 2.50008H9.99939" stroke="#5ABD32" stroke-width="2" stroke-linecap="round" stroke-linejoin="round"/>
<path d="M37.4993 16.6667C37.4993 19.8884 34.8876 22.5 31.666 22.5C28.4443 22.5 25.8326 19.8884 25.8326 16.6667C25.8326 13.445 28.4443 10.8334 31.666 10.8334C34.8876 10.8334 37.4993 13.445 37.4993 16.6667Z" stroke="#5ABD32" stroke-width="2" stroke-linecap="round" stroke-linejoin="round"/>
<ellipse cx="7.49935" cy="16.6667" rx="5.83333" ry="5.83333" stroke="#5ABD32" stroke-width="2" stroke-linecap="round" stroke-linejoin="round"/>
</svg>
