<svg width="30" height="30" viewBox="0 0 30 30" fill="none" xmlns="http://www.w3.org/2000/svg">
<path d="M23.1112 23.728H0.406936C0.300121 23.7281 0.197558 23.6861 0.121426 23.6112C0.0452946 23.5362 0.00169548 23.4344 0 23.3276V4.87349C0 4.82005 0.0105371 4.76713 0.0309874 4.71776C0.0514377 4.66839 0.0814314 4.62352 0.119219 4.58573C0.157006 4.54794 0.201839 4.51799 0.251211 4.49754C0.300582 4.47709 0.353497 4.46655 0.406936 4.46655H23.1112C23.2191 4.46655 23.3226 4.50942 23.3989 4.58573C23.4753 4.66205 23.5182 4.76556 23.5182 4.87349V23.3276C23.5165 23.4344 23.4728 23.5362 23.3967 23.6112C23.3205 23.6861 23.218 23.7281 23.1112 23.728ZM0.813872 22.9206H22.7043V5.28042H0.813872V22.9206Z" fill="#5460A8"/>
<path d="M9.79872 18.6317H6.67885C6.57092 18.6317 6.46744 18.5888 6.39113 18.5125C6.31482 18.4362 6.27191 18.3327 6.27191 18.2247V15.4796C6.27191 15.3716 6.31482 15.2682 6.39113 15.1919C6.46744 15.1155 6.57092 15.0726 6.67885 15.0726C6.78677 15.0726 6.89033 15.1155 6.96664 15.1919C7.04296 15.2682 7.08578 15.3716 7.08578 15.4796V17.8178H9.79872C9.90664 17.8178 10.0101 17.8607 10.0864 17.937C10.1627 18.0133 10.2057 18.1168 10.2057 18.2247C10.2057 18.3327 10.1627 18.4362 10.0864 18.5125C10.0101 18.5888 9.90664 18.6317 9.79872 18.6317Z" fill="#5460A8"/>
<path d="M16.8394 18.6317H13.7196C13.6117 18.6317 13.5082 18.5888 13.4319 18.5125C13.3556 18.4362 13.3127 18.3327 13.3127 18.2247C13.3127 18.1168 13.3556 18.0133 13.4319 17.937C13.5082 17.8607 13.6117 17.8178 13.7196 17.8178H16.4326V15.4796C16.4326 15.3716 16.4754 15.2682 16.5517 15.1919C16.628 15.1155 16.7315 15.0726 16.8394 15.0726C16.9473 15.0726 17.0509 15.1155 17.1272 15.1919C17.2035 15.2682 17.2463 15.3716 17.2463 15.4796V18.1989C17.2499 18.2545 17.242 18.3102 17.2232 18.3626C17.2043 18.415 17.1749 18.4629 17.1367 18.5035C17.0986 18.5441 17.0525 18.5764 17.0014 18.5984C16.9502 18.6205 16.8951 18.6318 16.8394 18.6317Z" fill="#5460A8"/>
<path d="M6.67885 13.122C6.57092 13.122 6.46744 13.0792 6.39113 13.0029C6.31482 12.9265 6.27191 12.823 6.27191 12.7151V9.96992C6.27191 9.862 6.31482 9.75848 6.39113 9.68217C6.46744 9.60585 6.57092 9.56299 6.67885 9.56299H9.79872C9.90664 9.56299 10.0101 9.60585 10.0864 9.68217C10.1627 9.75848 10.2057 9.862 10.2057 9.96992C10.2057 10.0778 10.1627 10.1814 10.0864 10.2577C10.0101 10.334 9.90664 10.3769 9.79872 10.3769H7.08578V12.7151C7.08578 12.823 7.04296 12.9265 6.96664 13.0029C6.89033 13.0792 6.78677 13.122 6.67885 13.122Z" fill="#5460A8"/>
<path d="M16.8394 13.122C16.7315 13.122 16.628 13.0792 16.5517 13.0029C16.4754 12.9265 16.4326 12.823 16.4326 12.7151V10.3769H13.7196C13.6117 10.3769 13.5082 10.334 13.4319 10.2577C13.3556 10.1814 13.3127 10.0778 13.3127 9.96992C13.3127 9.862 13.3556 9.75848 13.4319 9.68217C13.5082 9.60585 13.6117 9.56299 13.7196 9.56299H16.8394C16.9473 9.56299 17.0509 9.60585 17.1272 9.68217C17.2035 9.75848 17.2463 9.862 17.2463 9.96992V12.7151C17.2463 12.823 17.2035 12.9265 17.1272 13.0029C17.0509 13.0792 16.9473 13.122 16.8394 13.122Z" fill="#5460A8"/>
<path d="M29.3834 7.26989C29.2755 7.26989 29.172 7.22699 29.0957 7.15067C29.0194 7.07436 28.9765 6.97088 28.9765 6.86296V3.63333C28.9765 3.57989 28.987 3.52698 29.0074 3.4776C29.0279 3.42823 29.0579 3.38336 29.0957 3.34557C29.1335 3.30779 29.1783 3.27783 29.2277 3.25738C29.277 3.23693 29.33 3.22639 29.3834 3.22639C29.4368 3.22639 29.4897 3.23693 29.5391 3.25738C29.5885 3.27783 29.6333 3.30779 29.6711 3.34557C29.7089 3.38336 29.7389 3.42823 29.7593 3.4776C29.7798 3.52698 29.7903 3.57989 29.7903 3.63333V6.86296C29.7903 6.97088 29.7474 7.07436 29.6711 7.15067C29.5948 7.22699 29.4913 7.26989 29.3834 7.26989ZM29.3834 0.81064H26.1538C26.0965 0.817903 26.0383 0.812862 25.9831 0.795895C25.9279 0.778929 25.8769 0.750425 25.8336 0.712237C25.7902 0.674049 25.7555 0.62705 25.7318 0.57441C25.708 0.521771 25.6957 0.464696 25.6957 0.406937C25.6957 0.349177 25.708 0.292063 25.7318 0.239424C25.7555 0.186784 25.7902 0.139824 25.8336 0.101636C25.8769 0.063448 25.9279 0.0349053 25.9831 0.0179387C26.0383 0.000971975 26.0965 -0.00402909 26.1538 0.00323345H29.3834C29.4407 -0.00402909 29.4989 0.000971975 29.5541 0.0179387C29.6093 0.0349053 29.6603 0.063448 29.7036 0.101636C29.7469 0.139824 29.7817 0.186784 29.8055 0.239424C29.8292 0.292063 29.8415 0.349177 29.8415 0.406937C29.8415 0.464696 29.8292 0.521771 29.8055 0.57441C29.7817 0.62705 29.7469 0.674049 29.7036 0.712237C29.6603 0.750425 29.6093 0.778929 29.5541 0.795895C29.4989 0.812862 29.4407 0.817903 29.3834 0.81064ZM22.8854 0.81064H19.6558C19.5985 0.817903 19.5403 0.812862 19.4851 0.795895C19.4299 0.778929 19.3789 0.750425 19.3355 0.712237C19.2922 0.674049 19.2575 0.62705 19.2337 0.57441C19.21 0.521771 19.1977 0.464696 19.1977 0.406937C19.1977 0.349177 19.21 0.292063 19.2337 0.239424C19.2575 0.186784 19.2922 0.139824 19.3355 0.101636C19.3789 0.063448 19.4299 0.0349053 19.4851 0.0179387C19.5403 0.000971975 19.5985 -0.00402909 19.6558 0.00323345H22.8854C22.9427 -0.00402909 23.0009 0.000971975 23.0561 0.0179387C23.1113 0.0349053 23.1623 0.063448 23.2056 0.101636C23.249 0.139824 23.2836 0.186784 23.3074 0.239424C23.3312 0.292063 23.3435 0.349177 23.3435 0.406937C23.3435 0.464696 23.3312 0.521771 23.3074 0.57441C23.2836 0.62705 23.249 0.674049 23.2056 0.712237C23.1623 0.750425 23.1113 0.778929 23.0561 0.795895C23.0009 0.812862 22.9427 0.817903 22.8854 0.81064ZM16.3874 0.81064H13.1578C13.1005 0.817903 13.0423 0.812862 12.987 0.795895C12.9318 0.778929 12.8809 0.750425 12.8376 0.712237C12.7942 0.674049 12.7595 0.62705 12.7358 0.57441C12.712 0.521771 12.6996 0.464696 12.6996 0.406937C12.6996 0.349177 12.712 0.292063 12.7358 0.239424C12.7595 0.186784 12.7942 0.139824 12.8376 0.101636C12.8809 0.063448 12.9318 0.0349053 12.987 0.0179387C13.0423 0.000971975 13.1005 -0.00402909 13.1578 0.00323345H16.3874C16.4857 0.0156895 16.576 0.0635449 16.6415 0.137867C16.707 0.212189 16.7431 0.307873 16.7431 0.406937C16.7431 0.506 16.707 0.601645 16.6415 0.675967C16.576 0.750289 16.4857 0.798184 16.3874 0.81064Z" fill="#5460A8"/>
<path d="M26.2438 26.8673H3.53303C3.42511 26.8673 3.32163 26.8244 3.24532 26.7481C3.169 26.6718 3.1261 26.5683 3.1261 26.4604V23.3276C3.1261 23.2197 3.169 23.1162 3.24532 23.0399C3.32163 22.9636 3.42511 22.9207 3.53303 22.9207H22.6977V8.00626C22.6977 7.95282 22.7082 7.89991 22.7286 7.85054C22.7491 7.80117 22.7791 7.75633 22.8169 7.71854C22.8547 7.68076 22.8995 7.65076 22.9489 7.63031C22.9982 7.60986 23.0512 7.59937 23.1046 7.59937H26.2438C26.3506 7.60106 26.4525 7.64466 26.5274 7.72079C26.6023 7.79692 26.6443 7.89945 26.6443 8.00626V16.4873C26.6515 16.5446 26.6465 16.6028 26.6295 16.658C26.6125 16.7132 26.584 16.7642 26.5459 16.8075C26.5077 16.8508 26.4607 16.8855 26.408 16.9093C26.3554 16.9331 26.2983 16.9454 26.2406 16.9454C26.1828 16.9454 26.1257 16.9331 26.0731 16.9093C26.0204 16.8855 25.9734 16.8508 25.9352 16.8075C25.8971 16.7642 25.8686 16.7132 25.8516 16.658C25.8346 16.6028 25.8296 16.5446 25.8368 16.4873V8.4132H23.5115V23.3276C23.5098 23.4344 23.4662 23.5363 23.3901 23.6112C23.314 23.6861 23.2114 23.7281 23.1046 23.7281H3.93997V26.0534H25.8368V23.3276C25.8296 23.2703 25.8346 23.2121 25.8516 23.1569C25.8686 23.1017 25.8971 23.0508 25.9352 23.0074C25.9734 22.9641 26.0204 22.9294 26.0731 22.9056C26.1257 22.8818 26.1828 22.8695 26.2406 22.8695C26.2983 22.8695 26.3554 22.8818 26.408 22.9056C26.4607 22.9294 26.5077 22.9641 26.5459 23.0074C26.584 23.0508 26.6125 23.1017 26.6295 23.1569C26.6465 23.2121 26.6515 23.2703 26.6443 23.3276V26.4604C26.6443 26.5672 26.6023 26.6697 26.5274 26.7459C26.4525 26.822 26.3506 26.8656 26.2438 26.8673Z" fill="#5460A8"/>
<path d="M29.3831 30H6.67885C6.57092 30 6.46744 29.9571 6.39113 29.8808C6.31482 29.8045 6.27191 29.701 6.27191 29.5931V26.4603C6.27191 26.3524 6.31482 26.2489 6.39113 26.1726C6.46744 26.0963 6.57092 26.0534 6.67885 26.0534H25.8435V23.3276C25.8362 23.2703 25.8413 23.2121 25.8582 23.1569C25.8752 23.1017 25.9037 23.0507 25.9419 23.0074C25.9801 22.9641 26.0271 22.9293 26.0797 22.9056C26.1323 22.8818 26.1894 22.8695 26.2472 22.8695C26.3049 22.8695 26.362 22.8818 26.4147 22.9056C26.4673 22.9293 26.5143 22.9641 26.5525 23.0074C26.5907 23.0507 26.6192 23.1017 26.6361 23.1569C26.6531 23.2121 26.6581 23.2703 26.6509 23.3276V26.4603C26.6509 26.5671 26.6089 26.6697 26.534 26.7458C26.459 26.822 26.3572 26.8656 26.2504 26.8673H7.08578V29.1797H28.9762V11.5524H26.6509V16.4872C26.6581 16.5445 26.6531 16.6027 26.6361 16.6579C26.6192 16.7132 26.5907 16.7641 26.5525 16.8075C26.5143 16.8508 26.4673 16.8855 26.4147 16.9093C26.362 16.933 26.3049 16.9453 26.2472 16.9453C26.1894 16.9453 26.1323 16.933 26.0797 16.9093C26.0271 16.8855 25.9801 16.8508 25.9419 16.8075C25.9037 16.7641 25.8752 16.7132 25.8582 16.6579C25.8413 16.6027 25.8362 16.5445 25.8435 16.4872V11.1455C25.8435 11.092 25.854 11.0391 25.8745 10.9897C25.8949 10.9404 25.9249 10.8955 25.9627 10.8577C26.0005 10.8199 26.0453 10.79 26.0947 10.7695C26.1441 10.7491 26.197 10.7385 26.2504 10.7385H29.3831C29.4366 10.7385 29.4895 10.7491 29.5389 10.7695C29.5882 10.79 29.6331 10.8199 29.6709 10.8577C29.7086 10.8955 29.7386 10.9404 29.7591 10.9897C29.7795 11.0391 29.7901 11.092 29.7901 11.1455V29.5931C29.7901 29.6465 29.7795 29.6994 29.7591 29.7488C29.7386 29.7982 29.7086 29.843 29.6709 29.8808C29.6331 29.9186 29.5882 29.9486 29.5389 29.969C29.4895 29.9895 29.4366 30 29.3831 30Z" fill="#5460A8"/>
</svg>
