<svg width="30" height="30" viewBox="0 0 30 30" fill="none" xmlns="http://www.w3.org/2000/svg">
<path d="M19.2327 6.46174H17.7974C17.7089 6.4507 17.6274 6.4077 17.5684 6.34085C17.5094 6.27399 17.4768 6.18787 17.4768 6.09868C17.4768 6.00949 17.5094 5.92339 17.5684 5.85653C17.6274 5.78967 17.7089 5.74668 17.7974 5.73564H18.8724V0.731723H16.7223V4.48607C16.7223 4.58161 16.6843 4.67323 16.6168 4.74079C16.5492 4.80835 16.4576 4.84631 16.3621 4.84631C16.2665 4.84631 16.1749 4.80835 16.1074 4.74079C16.0398 4.67323 16.0018 4.58161 16.0018 4.48607V0.365861C16.0018 0.269795 16.0396 0.177581 16.107 0.109128C16.1744 0.0406746 16.266 0.00147794 16.3621 0H19.2327C19.3287 0.00147794 19.4203 0.0406746 19.4877 0.109128C19.5551 0.177581 19.5929 0.269795 19.5929 0.365861V6.09586C19.5937 6.14364 19.5849 6.19111 19.5672 6.23546C19.5494 6.27982 19.523 6.3202 19.4895 6.35424C19.4559 6.38829 19.416 6.41534 19.3719 6.43379C19.3278 6.45225 19.2805 6.46175 19.2327 6.46174Z" fill="#5460A8"/>
<path d="M17.5213 8.17297C17.4358 8.17313 17.3531 8.1434 17.2873 8.08891C17.2215 8.03442 17.1768 7.95862 17.1611 7.87466L16.9246 6.53504C16.9121 6.44273 16.9359 6.34916 16.9909 6.27398C17.0459 6.1988 17.1279 6.14786 17.2197 6.13184C17.3115 6.11581 17.4058 6.13595 17.483 6.18804C17.5603 6.24013 17.6143 6.32012 17.6339 6.41121L17.8759 7.74521C17.8923 7.83991 17.8709 7.93729 17.8161 8.01628C17.7613 8.09528 17.6777 8.14955 17.5832 8.16736L17.5213 8.17297Z" fill="#5460A8"/>
<path d="M12.4555 27.0909C12.3687 27.089 12.2853 27.0572 12.2192 27.0009C12.1569 26.9485 12.1145 26.8763 12.0991 26.7963C12.0837 26.7164 12.0963 26.6336 12.1347 26.5618L16.8009 17.6629H10.9752C10.9279 17.6629 10.8811 17.6536 10.8374 17.6355C10.7937 17.6174 10.7539 17.5908 10.7205 17.5574C10.687 17.5239 10.6605 17.4842 10.6424 17.4405C10.6243 17.3968 10.615 17.3499 10.615 17.3026V11.3756H9.78755C9.71039 11.3758 9.63522 11.3511 9.57311 11.3054C9.511 11.2596 9.46525 11.1951 9.44256 11.1213C9.41987 11.0476 9.42147 10.9685 9.4471 10.8957C9.47273 10.8229 9.52103 10.7603 9.58493 10.7171L14.4031 7.42992L12.8777 5.17845C12.8289 5.10411 12.8089 5.01454 12.8213 4.92649C12.8337 4.83843 12.8778 4.75792 12.9452 4.7L16.1311 2.00949C16.2036 1.94778 16.2976 1.91729 16.3925 1.92467C16.4875 1.93205 16.5756 1.97672 16.6377 2.0489C16.6997 2.12233 16.7304 2.21722 16.723 2.31307C16.7157 2.40892 16.6709 2.49801 16.5983 2.56109L13.6601 5.04335L15.2023 7.33423C15.229 7.37339 15.2477 7.41743 15.2573 7.46381C15.2669 7.5102 15.2673 7.55802 15.2584 7.60455C15.2495 7.65108 15.2315 7.6954 15.2055 7.73498C15.1795 7.77455 15.1459 7.80861 15.1067 7.83519L10.9584 10.6495C11.0057 10.6495 11.0525 10.6588 11.0962 10.6769C11.1399 10.6951 11.1796 10.7216 11.2131 10.755C11.2465 10.7885 11.2731 10.8282 11.2912 10.8719C11.3093 10.9156 11.3186 10.9625 11.3186 11.0098V16.9311H17.3806C17.4427 16.932 17.5036 16.9485 17.5577 16.979C17.6118 17.0095 17.6573 17.053 17.6903 17.1056C17.7193 17.1602 17.7345 17.2211 17.7345 17.2829C17.7345 17.3448 17.7193 17.4057 17.6903 17.4602L13.4575 25.5374L21.1575 20.0044V17.4321C21.1587 17.3788 21.1707 17.3263 21.193 17.2779C21.2153 17.2295 21.2473 17.1862 21.287 17.1507L22.4127 16.1994V12.5914C22.4112 12.1948 22.253 11.8148 21.9726 11.5344C21.6921 11.2539 21.3121 11.0957 20.9155 11.0942H12.889C12.8019 11.0939 12.7178 11.0626 12.6518 11.0058C12.5858 10.9491 12.5421 10.8706 12.5287 10.7846C12.5185 10.6975 12.5395 10.6096 12.5879 10.5364C12.6364 10.4633 12.7091 10.4096 12.7933 10.385L16.6039 9.3099C16.6957 9.28387 16.7941 9.29532 16.8775 9.34175C16.9609 9.38818 17.0224 9.46581 17.0486 9.55757C17.0745 9.65086 17.0625 9.75064 17.015 9.83505C16.9675 9.91946 16.8885 9.9816 16.7953 10.0079L15.4951 10.3737H20.9155C21.5037 10.3737 22.0677 10.6074 22.4836 11.0233C22.8995 11.4392 23.1332 12.0032 23.1332 12.5914V16.3908C23.1339 16.4436 23.1226 16.4958 23.1002 16.5436C23.0777 16.5913 23.0448 16.6334 23.0038 16.6666L21.878 17.6235V20.1958C21.8783 20.2532 21.8646 20.3099 21.8381 20.3609C21.8116 20.4119 21.7732 20.4556 21.726 20.4885L12.6638 27.0009C12.6061 27.0529 12.533 27.0845 12.4555 27.0909V27.0909Z" fill="#5460A8"/>
<path d="M21.5459 15.7829C21.4868 15.782 21.4288 15.7665 21.3771 15.7378L19.7448 14.8429L10.9696 14.6571C10.8811 14.6461 10.7997 14.6031 10.7406 14.5362C10.6816 14.4694 10.649 14.3833 10.649 14.2941C10.649 14.2049 10.6816 14.1188 10.7406 14.0519C10.7997 13.9851 10.8811 13.9421 10.9696 13.931L19.8348 14.1224C19.8934 14.1268 19.9507 14.1421 20.0037 14.1674L21.6923 15.1018C21.7652 15.1389 21.8233 15.1998 21.857 15.2744C21.8907 15.349 21.8981 15.4329 21.8778 15.5122C21.8575 15.5915 21.8107 15.6615 21.7453 15.7107C21.6799 15.7599 21.5996 15.7854 21.5178 15.7829H21.5459Z" fill="#5460A8"/>
<path d="M21.546 13.4019C21.4865 13.4037 21.4278 13.3881 21.3772 13.3569L19.7448 12.4675L10.9697 12.2761C10.8742 12.2761 10.7825 12.2382 10.715 12.1706C10.6474 12.1031 10.6095 12.0114 10.6095 11.9159C10.6095 11.8204 10.6474 11.7287 10.715 11.6612C10.7825 11.5936 10.8742 11.5557 10.9697 11.5557L19.8349 11.747C19.894 11.7486 19.9518 11.7641 20.0037 11.7921L21.6924 12.7264C21.7342 12.7489 21.7713 12.7793 21.8013 12.8161C21.8314 12.8529 21.8538 12.8953 21.8674 12.9408C21.881 12.9863 21.8855 13.0341 21.8805 13.0813C21.8756 13.1286 21.8614 13.1744 21.8387 13.2161C21.8091 13.2689 21.7669 13.3135 21.7158 13.3459C21.6647 13.3783 21.6063 13.3975 21.546 13.4019V13.4019Z" fill="#5460A8"/>
<path d="M13.3392 29.9953C12.4773 30.0376 11.6258 29.7921 10.9188 29.2974C10.1195 28.6782 9.75936 27.6707 9.84379 26.3085L7.59231 23.7868C7.5584 23.75 7.53275 23.7064 7.51721 23.6588C7.50167 23.6112 7.49658 23.5608 7.50223 23.511C7.50752 23.4616 7.52272 23.4136 7.5469 23.3701C7.57107 23.3266 7.60372 23.2884 7.64295 23.2578L8.70115 22.4585C8.77355 22.4049 8.86343 22.3803 8.95304 22.3897C9.04265 22.3991 9.12547 22.4417 9.18521 22.5092L12.4499 26.1903L18.7483 19.4359L17.1104 17.5503C17.0483 17.4768 17.0177 17.3819 17.0251 17.2861C17.0325 17.1902 17.0773 17.1011 17.1498 17.0381C17.2223 16.9763 17.3163 16.9459 17.4112 16.9532C17.5061 16.9606 17.5943 17.0053 17.6564 17.0775L19.5082 19.2107C19.5679 19.2761 19.601 19.3614 19.601 19.45C19.601 19.5385 19.5679 19.6238 19.5082 19.6892L12.7144 27.0065C12.6805 27.0444 12.6388 27.0746 12.5922 27.095C12.5456 27.1154 12.4951 27.1255 12.4442 27.1247C12.3938 27.1244 12.344 27.1132 12.2984 27.0918C12.2527 27.0704 12.2122 27.0394 12.1796 27.0008L8.8756 23.2747L8.39718 23.6349L10.4798 25.9708C10.542 26.0467 10.574 26.1429 10.5698 26.241C10.4685 27.4286 10.7331 28.2729 11.3579 28.7626C12.4836 29.6632 14.5831 29.2242 15.3655 29.0159L14.5437 25.2953C14.533 25.2487 14.5316 25.2005 14.5397 25.1534C14.5478 25.1063 14.5651 25.0612 14.5908 25.0208C14.6165 24.9805 14.6499 24.9457 14.6892 24.9184C14.7285 24.8911 14.7728 24.8719 14.8195 24.8619C14.8658 24.8512 14.9137 24.8499 14.9605 24.858C15.0072 24.8662 15.0519 24.8836 15.0918 24.9094C15.1317 24.9351 15.166 24.9686 15.1927 25.0078C15.2194 25.047 15.238 25.0912 15.2473 25.1377L16.1479 29.1848C16.1679 29.2719 16.1548 29.3634 16.1111 29.4414C16.0674 29.5195 15.9962 29.5785 15.9115 29.6069C15.0775 29.8609 14.211 29.9917 13.3392 29.9953V29.9953Z" fill="#5460A8"/>
<path d="M10.9752 16.7511H8.06526C7.96972 16.7511 7.87811 16.7131 7.81055 16.6455C7.743 16.578 7.70502 16.4864 7.70502 16.3908V14.1056C7.70651 13.7274 7.85777 13.3652 8.12573 13.0983C8.39368 12.8314 8.75652 12.6815 9.13473 12.6815H10.9752C11.0226 12.6815 11.0694 12.6908 11.1131 12.7089C11.1569 12.727 11.1966 12.7536 11.23 12.787C11.2635 12.8205 11.29 12.8602 11.3081 12.9039C11.3262 12.9476 11.3355 12.9945 11.3355 13.0418V16.3908C11.3355 16.4864 11.2976 16.578 11.23 16.6455C11.1625 16.7131 11.0708 16.7511 10.9752 16.7511V16.7511ZM8.43114 16.0306H10.6151V13.402H9.13473C8.94812 13.402 8.76915 13.4761 8.6372 13.6081C8.50525 13.74 8.43114 13.919 8.43114 14.1056V16.0306Z" fill="#5460A8"/>
<path d="M16.807 6.83325C16.5398 6.83325 16.2787 6.75402 16.0565 6.60558C15.8343 6.45714 15.6612 6.24616 15.5589 5.99932C15.4567 5.75248 15.43 5.48086 15.4821 5.21882C15.5342 4.95677 15.6628 4.71606 15.8517 4.52713C16.0407 4.33821 16.2814 4.20955 16.5434 4.15742C16.8055 4.1053 17.0771 4.13206 17.3239 4.23431C17.5708 4.33656 17.7818 4.5097 17.9302 4.73185C18.0786 4.95401 18.1578 5.21517 18.1578 5.48235C18.1564 5.84017 18.0136 6.18292 17.7606 6.43594C17.5075 6.68896 17.1648 6.83177 16.807 6.83325V6.83325ZM16.807 4.85194C16.6823 4.85194 16.5604 4.88891 16.4567 4.95818C16.3531 5.02745 16.2723 5.12592 16.2246 5.24111C16.1768 5.3563 16.1644 5.48305 16.1887 5.60534C16.213 5.72763 16.2731 5.83996 16.3612 5.92812C16.4494 6.01629 16.5617 6.07633 16.684 6.10065C16.8063 6.12498 16.9331 6.1125 17.0483 6.06478C17.1634 6.01707 17.2619 5.93627 17.3311 5.8326C17.4004 5.72893 17.4374 5.60703 17.4374 5.48235C17.4374 5.39956 17.4211 5.3176 17.3894 5.24111C17.3577 5.16463 17.3113 5.09512 17.2527 5.03658C17.1942 4.97804 17.1247 4.93162 17.0483 4.89993C16.9718 4.86825 16.8898 4.85194 16.807 4.85194V4.85194Z" fill="#5460A8"/>
<path d="M16.7504 10.019C16.7095 10.027 16.6675 10.027 16.6266 10.019C16.3302 9.909 16.0818 9.69855 15.9246 9.42427C15.7674 9.14998 15.7114 8.82925 15.7663 8.51792C15.8212 8.20658 15.9835 7.92437 16.225 7.72041C16.4666 7.51644 16.772 7.40364 17.0882 7.40166C17.2701 7.40007 17.4502 7.4365 17.6172 7.50861C17.6609 7.52704 17.7004 7.55391 17.7337 7.58766C17.7669 7.62141 17.7932 7.66139 17.811 7.70531C17.8288 7.74923 17.8377 7.79622 17.8373 7.8436C17.8369 7.89098 17.8271 7.93781 17.8086 7.98142C17.7702 8.06858 17.6993 8.13734 17.611 8.17308C17.5228 8.20882 17.424 8.20871 17.3358 8.17279C17.2578 8.13639 17.1733 8.11634 17.0873 8.11387C17.0013 8.1114 16.9156 8.12656 16.8357 8.15841C16.7558 8.19026 16.6832 8.23814 16.6225 8.29909C16.5618 8.36005 16.5142 8.43277 16.4826 8.51282C16.4511 8.59286 16.4363 8.67851 16.4391 8.7645C16.4419 8.85049 16.4622 8.93501 16.4989 9.01283C16.5356 9.09066 16.5878 9.16014 16.6523 9.21702C16.7169 9.2739 16.7924 9.31697 16.8743 9.34357C16.9534 9.37292 17.0196 9.4291 17.0615 9.50232C17.1034 9.57554 17.1184 9.66114 17.1036 9.74421C17.0889 9.82728 17.0455 9.90255 16.9809 9.95689C16.9164 10.0112 16.8348 10.0412 16.7504 10.0415V10.019Z" fill="#5460A8"/>
<path d="M17.0883 10.0811C16.9306 10.0814 16.7741 10.0528 16.6267 9.99663C16.542 9.96027 16.4745 9.89282 16.4381 9.80818C16.4016 9.72354 16.3989 9.62813 16.4306 9.5416C16.4624 9.45507 16.5261 9.384 16.6086 9.343C16.6911 9.302 16.7863 9.29418 16.8744 9.32118C16.9435 9.34377 17.0157 9.35517 17.0883 9.35495C17.2348 9.35852 17.3778 9.31054 17.4924 9.21937C17.6071 9.12821 17.686 8.99966 17.7155 8.85619C17.745 8.71272 17.7232 8.56344 17.6538 8.43443C17.5844 8.30543 17.4719 8.20491 17.336 8.15042C17.2479 8.1131 17.1782 8.04232 17.1423 7.95366C17.1064 7.86499 17.1073 7.76569 17.1446 7.67761C17.1819 7.58954 17.2527 7.51988 17.3414 7.48399C17.4301 7.4481 17.5293 7.4489 17.6174 7.48622C17.9045 7.60782 18.1408 7.82501 18.286 8.10093C18.4312 8.37686 18.4766 8.69454 18.4143 9.00007C18.352 9.3056 18.1859 9.58018 17.9442 9.77721C17.7025 9.97424 17.4001 10.0816 17.0883 10.0811V10.0811Z" fill="#5460A8"/>
</svg>
