<svg width="30" height="30" viewBox="0 0 30 30" fill="none" xmlns="http://www.w3.org/2000/svg">
<g clip-path="url(#clip0_4720_27304)">
<path d="M29.641 19.6851H15.538C14.3254 19.6836 13.163 19.2009 12.3061 18.3429C11.4492 17.485 10.9679 16.3219 10.9679 15.1094C10.9694 13.8977 11.4514 12.7362 12.3081 11.8794C13.1648 11.0227 14.3264 10.5407 15.538 10.5392H29.641C29.6883 10.5385 29.7353 10.5472 29.7792 10.565C29.823 10.5828 29.8629 10.6092 29.8964 10.6427C29.9299 10.6761 29.9563 10.716 29.974 10.7599C29.9918 10.8038 30.0006 10.8508 29.9998 10.8981V12.5804C29.9998 12.6755 29.962 12.7668 29.8947 12.8341C29.8274 12.9014 29.7361 12.9392 29.641 12.9392H15.3137C14.7584 12.936 14.2215 13.139 13.8072 13.5088C13.3928 13.8786 13.1304 14.389 13.0707 14.9411C13.0707 14.9972 13.0707 15.0589 13.0707 15.1206C13.0707 15.1823 13.0707 15.2439 13.0707 15.3056C13.1304 15.8578 13.3928 16.3682 13.8072 16.738C14.2215 17.1078 14.7584 17.3107 15.3137 17.3075H29.641C29.7361 17.3075 29.8274 17.3453 29.8947 17.4126C29.962 17.4799 29.9998 17.5712 29.9998 17.6664V19.3486C29.9941 19.4399 29.9538 19.5255 29.8871 19.588C29.8204 19.6505 29.7324 19.6853 29.641 19.6851ZM15.538 11.2738C14.541 11.3118 13.5975 11.7347 12.9056 12.4535C12.2137 13.1723 11.8271 14.1312 11.8271 15.129C11.8271 16.1267 12.2137 17.0857 12.9056 17.8045C13.5975 18.5233 14.541 18.9461 15.538 18.9841H29.2821V18.0028H15.3137C14.5758 18.009 13.8623 17.7383 13.3142 17.2441C12.7661 16.75 12.4231 16.0683 12.353 15.3337C12.353 15.2552 12.353 15.171 12.353 15.0925C12.353 15.014 12.353 14.9355 12.353 14.857C12.4194 14.1209 12.7612 13.437 13.3102 12.9421C13.8591 12.4472 14.5747 12.1778 15.3137 12.1878H29.2821V11.2402L15.538 11.2738Z" fill="#5460A8"/>
<path d="M12.1851 12.9H6.63928C6.5441 12.9 6.45284 12.8622 6.38554 12.7949C6.31823 12.7276 6.2804 12.6363 6.2804 12.5411V10.8589C6.2804 10.7637 6.31823 10.6724 6.38554 10.6051C6.45284 10.5378 6.5441 10.5 6.63928 10.5H15.5384C15.6336 10.5 15.7249 10.5378 15.7922 10.6051C15.8595 10.6724 15.8973 10.7637 15.8973 10.8589C15.8973 10.9541 15.8595 11.0454 15.7922 11.1127C15.7249 11.18 15.6336 11.2178 15.5384 11.2178C14.9436 11.2151 14.3564 11.3517 13.8238 11.6165C13.2912 11.8814 12.828 12.2672 12.4711 12.743C12.4392 12.7899 12.3967 12.8286 12.347 12.8559C12.2973 12.8832 12.2418 12.8983 12.1851 12.9ZM6.99817 12.1767H12.0393C12.3413 11.8077 12.6988 11.4879 13.0992 11.229H6.99256L6.99817 12.1767Z" fill="#5460A8"/>
<path d="M4.53066 16.444H0.224124C0.176995 16.444 0.130284 16.4347 0.0867423 16.4166C0.0432008 16.3986 0.00363207 16.3722 -0.0296931 16.3388C-0.0630183 16.3055 -0.0894182 16.266 -0.107454 16.2224C-0.125489 16.1789 -0.134766 16.1322 -0.134766 16.0851V14.4028C-0.134766 14.3557 -0.125489 14.309 -0.107454 14.2655C-0.0894182 14.2219 -0.0630183 14.1824 -0.0296931 14.1491C0.00363207 14.1157 0.0432008 14.0893 0.0867423 14.0713C0.130284 14.0532 0.176995 14.0439 0.224124 14.0439H4.53066C4.57779 14.0439 4.62443 14.0532 4.66797 14.0713C4.71151 14.0893 4.75108 14.1157 4.78441 14.1491C4.81773 14.1824 4.8442 14.2219 4.86224 14.2655C4.88027 14.309 4.88955 14.3557 4.88955 14.4028V16.0851C4.88955 16.1322 4.88027 16.1789 4.86224 16.2224C4.8442 16.266 4.81773 16.3055 4.78441 16.3388C4.75108 16.3722 4.71151 16.3986 4.66797 16.4166C4.62443 16.4347 4.57779 16.444 4.53066 16.444ZM0.605397 15.7206H4.18861V14.7785H0.605397V15.7206Z" fill="#5460A8"/>
<path d="M15.5384 19.6851H6.63928C6.59216 19.6851 6.54551 19.6758 6.50197 19.6578C6.45843 19.6397 6.41886 19.6133 6.38554 19.58C6.35221 19.5466 6.32574 19.5071 6.30771 19.4635C6.28967 19.42 6.2804 19.3733 6.2804 19.3262V17.6439C6.2804 17.5968 6.28967 17.5501 6.30771 17.5066C6.32574 17.4631 6.35221 17.4235 6.38554 17.3902C6.41886 17.3568 6.45843 17.3304 6.50197 17.3124C6.54551 17.2943 6.59216 17.2851 6.63928 17.2851H12.1851C12.2404 17.2844 12.2952 17.2967 12.3448 17.3211C12.3945 17.3454 12.4378 17.3811 12.4711 17.4252C12.828 17.9015 13.2911 18.2879 13.8236 18.5536C14.3561 18.8194 14.9433 18.9572 15.5384 18.9561C15.6336 18.9561 15.7249 18.9939 15.7922 19.0612C15.8595 19.1285 15.8973 19.2198 15.8973 19.315C15.8988 19.363 15.8906 19.4109 15.8733 19.4558C15.8559 19.5006 15.8297 19.5415 15.7963 19.576C15.7628 19.6105 15.7227 19.638 15.6784 19.6567C15.6341 19.6755 15.5865 19.6851 15.5384 19.6851ZM6.99256 18.9393H13.0655C12.6803 18.678 12.3347 18.3626 12.0393 18.0028H6.99256V18.9393Z" fill="#5460A8"/>
<path d="M6.63921 19.0907C6.57592 19.0905 6.51391 19.073 6.4598 19.0402C5.76456 18.6392 5.18715 18.0622 4.78569 17.3673C4.38424 16.6723 4.17285 15.8839 4.17285 15.0813C4.17285 14.2787 4.38424 13.4903 4.78569 12.7953C5.18715 12.1003 5.76456 11.5233 6.4598 11.1224C6.51375 11.0891 6.57585 11.0715 6.63921 11.0715C6.70258 11.0715 6.76468 11.0891 6.81862 11.1224C6.87366 11.1541 6.91928 11.2 6.9508 11.2551C6.98233 11.3103 6.99867 11.3729 6.9981 11.4364V12.1766H7.49157C7.57421 12.174 7.6552 12.2 7.72088 12.2502C7.78655 12.3005 7.83284 12.3719 7.85196 12.4523C7.87108 12.5327 7.86186 12.6173 7.82581 12.6917C7.78977 12.7662 7.72918 12.8258 7.65421 12.8607C7.23906 13.0652 6.88943 13.3819 6.64496 13.7748C6.4005 14.1678 6.27095 14.6213 6.27095 15.0841C6.27095 15.5469 6.4005 16.0004 6.64496 16.3934C6.88943 16.7863 7.23906 17.103 7.65421 17.3075C7.72867 17.3422 7.78893 17.4014 7.82499 17.4752C7.86106 17.549 7.87068 17.633 7.8523 17.713C7.83393 17.7931 7.78867 17.8644 7.72403 17.9151C7.65939 17.9658 7.57932 17.9928 7.49718 17.9916H6.99249V18.7318C6.99104 18.8265 6.95277 18.917 6.88577 18.9839C6.81878 19.0509 6.72833 19.0892 6.6336 19.0907H6.63921ZM6.28032 12.1205C5.84515 12.4815 5.49492 12.9339 5.25452 13.4457C5.01412 13.9574 4.88947 14.5159 4.88947 15.0813C4.88947 15.6467 5.01412 16.2051 5.25452 16.7169C5.49492 17.2286 5.84515 17.6811 6.28032 18.0421V17.6271C6.28074 17.5645 6.29752 17.5031 6.32899 17.449C6.36047 17.3949 6.4056 17.35 6.4598 17.3187C5.87345 16.7193 5.54509 15.9142 5.54509 15.0757C5.54509 14.2372 5.87345 13.432 6.4598 12.8327C6.40737 12.7999 6.36395 12.7545 6.33358 12.7006C6.30321 12.6467 6.28684 12.5861 6.28594 12.5243L6.28032 12.1205Z" fill="#5460A8"/>
</g>
<defs>
<clipPath id="clip0_4720_27304">
<rect width="30" height="30" fill="white"/>
</clipPath>
</defs>
</svg>
