<svg width="30" height="30" viewBox="0 0 30 30" fill="none" xmlns="http://www.w3.org/2000/svg">
<g clip-path="url(#clip0_4720_27305)">
<path d="M12.5476 23.1753C12.4951 23.1755 12.4432 23.1639 12.3958 23.1416L3.12463 18.7843C3.08829 18.7638 3.05431 18.7393 3.0234 18.7112L0.167302 15.9001C0.12779 15.861 0.0980644 15.8131 0.0804831 15.7604C0.0629019 15.7076 0.057997 15.6515 0.0661392 15.5965C0.0720107 15.5403 0.0914185 15.4864 0.12276 15.4394C0.154102 15.3923 0.196407 15.3537 0.246022 15.3266L13.2391 7.95019C13.2911 7.92164 13.3486 7.90439 13.4078 7.89959L29.6674 7.5004C29.7158 7.49809 29.7642 7.50573 29.8095 7.52285C29.8548 7.53996 29.8962 7.5662 29.931 7.59992C29.9657 7.63365 29.9932 7.67415 30.0117 7.71893C30.0302 7.7637 30.0393 7.81179 30.0385 7.86023V11.6047C30.0385 11.7001 30.0006 11.7916 29.9331 11.8591C29.8656 11.9266 29.7741 11.9645 29.6787 11.9645H27.6321L12.7949 23.1079C12.7225 23.1577 12.6353 23.1815 12.5476 23.1753ZM3.46195 18.1546L12.5026 22.3995L27.2667 11.3179C27.3291 11.2689 27.4066 11.2431 27.486 11.2448H29.2908V8.2313L13.4865 8.62486L0.988133 15.7202L3.46195 18.1546Z" fill="#5460A8"/>
<path d="M13.5036 22.4613C13.4442 22.4632 13.3856 22.4475 13.335 22.4164L4.04137 17.5025C3.97872 17.4727 3.92741 17.4234 3.89519 17.3619L2.31536 14.5508C2.26839 14.4673 2.25645 14.3686 2.28228 14.2763C2.30811 14.184 2.3696 14.1058 2.45311 14.0588C2.53661 14.0119 2.6353 14 2.72756 14.0258C2.81982 14.0517 2.89808 14.1131 2.94506 14.1966L4.46867 16.9178L13.6723 21.781C13.7142 21.8035 13.7511 21.8339 13.7811 21.8707C13.8111 21.9074 13.8336 21.9497 13.8472 21.9952C13.8608 22.0407 13.8652 22.0884 13.8603 22.1356C13.8554 22.1828 13.8412 22.2285 13.8185 22.2702C13.7891 22.3283 13.744 22.377 13.6884 22.4107C13.6328 22.4445 13.5687 22.4621 13.5036 22.4613Z" fill="#5460A8"/>
<path d="M10.4733 20.8589C10.3939 20.8606 10.3162 20.8358 10.2523 20.7886C10.1884 20.7414 10.1419 20.6744 10.12 20.598C10.0982 20.5217 10.1023 20.4402 10.1316 20.3664C10.161 20.2925 10.2139 20.2305 10.2821 20.1899L14.4033 17.6261V8.23129C14.4038 8.13445 14.4421 8.04163 14.5101 7.97267C14.577 7.90501 14.6679 7.8666 14.7631 7.86584C15.1623 7.86584 15.3253 7.86584 15.5615 7.86584C15.7976 7.86584 15.9719 7.86584 16.3879 7.86584C16.4357 7.86584 16.483 7.87533 16.527 7.89376C16.571 7.9122 16.6109 7.9392 16.6444 7.97321C16.6779 8.00722 16.7043 8.04756 16.722 8.09187C16.7398 8.13617 16.7485 8.18357 16.7478 8.23129V16.8165C16.7478 16.8638 16.7385 16.9106 16.7204 16.9542C16.7023 16.9979 16.6758 17.0375 16.6424 17.071C16.609 17.1044 16.5693 17.1309 16.5257 17.149C16.482 17.167 16.4352 17.1763 16.3879 17.1763C16.3407 17.1763 16.2939 17.167 16.2503 17.149C16.2066 17.1309 16.1669 17.1044 16.1335 17.071C16.1001 17.0375 16.0736 16.9979 16.0555 16.9542C16.0374 16.9106 16.0281 16.8638 16.0281 16.8165V8.55176H15.5952C15.4603 8.55176 15.3253 8.55176 15.1229 8.55176V17.7554C15.1237 17.8364 15.0981 17.9153 15.0498 17.9803L14.9374 18.1209C14.9111 18.1547 14.8787 18.1833 14.8418 18.2052L10.6645 20.8027C10.6075 20.8394 10.5411 20.8589 10.4733 20.8589Z" fill="#5460A8"/>
<path d="M16.3876 17.1764C16.3102 17.1738 16.2357 17.1468 16.1747 17.0992C16.1137 17.0516 16.0694 16.9859 16.0482 16.9115C16.0269 16.8371 16.0298 16.7579 16.0565 16.6853C16.0831 16.6126 16.1321 16.5503 16.1964 16.5073L26.7382 9.95735V7.92208C26.7382 7.87483 26.7475 7.82804 26.7656 7.78439C26.7837 7.74073 26.8102 7.70106 26.8436 7.66765C26.877 7.63423 26.9167 7.60773 26.9604 7.58965C27.004 7.57157 27.0508 7.56226 27.098 7.56226C27.1935 7.56226 27.285 7.60017 27.3524 7.66765C27.4199 7.73513 27.4579 7.82665 27.4579 7.92208V10.171C27.4587 10.2319 27.4436 10.292 27.414 10.3453C27.3844 10.3986 27.3414 10.4432 27.2892 10.4746L16.5563 17.1539C16.5025 17.1741 16.4448 17.1818 16.3876 17.1764Z" fill="#5460A8"/>
<path d="M3.27667 15.8888C3.21253 15.8882 3.14965 15.8708 3.09439 15.8382C3.03912 15.8056 2.99337 15.7591 2.96179 15.7032C2.9389 15.6619 2.92436 15.6165 2.91903 15.5695C2.91371 15.5225 2.91772 15.475 2.93077 15.4296C2.94382 15.3841 2.9657 15.3417 2.99515 15.3048C3.02459 15.2678 3.061 15.237 3.10235 15.2141L14.3469 8.979C14.3883 8.9561 14.4337 8.94158 14.4807 8.93625C14.5276 8.93093 14.5752 8.9349 14.6206 8.94795C14.666 8.96101 14.7084 8.98288 14.7454 9.01232C14.7824 9.04177 14.8132 9.0782 14.8361 9.11955C14.8597 9.16071 14.8749 9.20621 14.8806 9.25334C14.8863 9.30047 14.8825 9.34827 14.8694 9.3939C14.8563 9.43953 14.8342 9.48206 14.8043 9.51895C14.7744 9.55585 14.7374 9.58637 14.6955 9.60869L3.45093 15.8438C3.39724 15.8725 3.33752 15.8879 3.27667 15.8888Z" fill="#5460A8"/>
<path d="M16.388 9.6538C16.2925 9.6538 16.201 9.61589 16.1336 9.54841C16.0661 9.48093 16.0281 9.38941 16.0281 9.29398C16.0281 9.19855 16.0661 9.10702 16.1336 9.03954C16.201 8.97206 16.2925 8.93415 16.388 8.93415L27.121 8.48999C27.2164 8.48999 27.3079 8.5279 27.3754 8.59538C27.4429 8.66286 27.4807 8.75438 27.4807 8.84982C27.4807 8.94525 27.4429 9.03677 27.3754 9.10425C27.3079 9.17174 27.2164 9.20964 27.121 9.20964L16.388 9.6538Z" fill="#5460A8"/>
</g>
<defs>
<clipPath id="clip0_4720_27305">
<rect width="30" height="30" fill="white"/>
</clipPath>
</defs>
</svg>
