<svg width="38" height="39" viewBox="0 0 38 39" fill="none" xmlns="http://www.w3.org/2000/svg">
<path d="M12.6666 37.4167C14.0934 37.4167 15.25 36.2601 15.25 34.8333C15.25 33.4066 14.0934 32.25 12.6666 32.25C11.2399 32.25 10.0833 33.4066 10.0833 34.8333C10.0833 36.2601 11.2399 37.4167 12.6666 37.4167Z" stroke="#5460A8" stroke-width="2" stroke-linecap="round" stroke-linejoin="round"/>
<path d="M28.5 37.4167C29.9267 37.4167 31.0833 36.2601 31.0833 34.8333C31.0833 33.4066 29.9267 32.25 28.5 32.25C27.0732 32.25 25.9166 33.4066 25.9166 34.8333C25.9166 36.2601 27.0732 37.4167 28.5 37.4167Z" stroke="#5460A8" stroke-width="2" stroke-linecap="round" stroke-linejoin="round"/>
<path d="M1.58331 1.58333H6.33331L10.5766 24.3675C10.7214 25.0965 11.118 25.7513 11.6969 26.2173C12.2759 26.6833 13.0003 26.9309 13.7433 26.9167H30.7166C31.4597 26.9309 32.1841 26.6833 32.763 26.2173C33.342 25.7513 33.7385 25.0965 33.8833 24.3675L36.4166 9.49999H7.91665" stroke="#5460A8" stroke-width="2" stroke-linecap="round" stroke-linejoin="round"/>
</svg>
