<svg width="221" height="53" viewBox="0 0 221 53" fill="none" xmlns="http://www.w3.org/2000/svg">
<path d="M220.553 32.9525C220.553 39.6881 215.066 45.1484 208.299 45.1484H12.2541C5.48636 45.1484 0 39.6881 0 32.9525V24.2411C0 17.5055 5.48636 12.0452 12.2541 12.0452H208.299C215.066 12.0452 220.553 17.5055 220.553 24.2411V32.9525Z" fill="#4066AA"/>
<path d="M103.03 51.6933C117.01 51.6933 128.344 40.4139 128.344 26.5C128.344 12.5861 117.01 1.30672 103.03 1.30672C89.0499 1.30672 77.7166 12.5861 77.7166 26.5C77.7166 40.4139 89.0499 51.6933 103.03 51.6933Z" fill="#5ABD32"/>
<path fill-rule="evenodd" clip-rule="evenodd" d="M103.03 2.61341C89.7751 2.61341 79.0296 13.3078 79.0296 26.5C79.0296 39.6922 89.7751 50.3866 103.03 50.3866C116.285 50.3866 127.031 39.6922 127.031 26.5C127.031 13.3078 116.285 2.61341 103.03 2.61341ZM76.4037 26.5C76.4037 11.8645 88.3248 0 103.03 0C117.736 0 129.657 11.8645 129.657 26.5C129.657 41.1355 117.736 53 103.03 53C88.3248 53 76.4037 41.1355 76.4037 26.5Z" fill="white"/>
<path d="M90.8058 22.4056C91.752 22.4056 92.6553 22.5833 93.4877 22.903L95.5771 18.8557L94.7814 16.7658C94.7508 16.684 94.7385 16.6012 94.735 16.5193L93.0667 16.5454L93.0457 15.1089C93.0457 15.1089 98.9277 15.1089 99.3487 15.1089C99.8809 15.1089 99.8809 15.6525 99.3487 15.8207C99.0266 15.9226 96.6003 16.4906 96.6003 16.4906L96.3578 16.4932L96.9933 18.164H110.095C109.958 17.7494 109.837 17.3844 109.735 17.0856C109.587 16.6456 109.472 16.325 109.447 16.2702C109.278 15.8564 109.113 15.582 108.942 15.4382C108.774 15.2971 108.585 15.1934 108.078 15.1865C106.809 15.1865 105.761 15.1865 105.761 15.1865C105.761 14.3685 105.761 14.4791 105.761 13.6237C105.761 13.6237 106.809 13.6237 108.078 13.6237C108.846 13.6158 109.515 13.8475 109.983 14.2648C110.447 14.6795 110.694 15.1865 110.898 15.6665C110.967 15.8329 111.068 16.1247 111.223 16.5846C111.647 17.833 112.409 20.1729 113.18 22.5528C113.657 22.4561 114.153 22.4047 114.659 22.4047C118.768 22.4047 122.099 25.7203 122.1 29.8094C122.099 33.9002 118.768 37.2141 114.659 37.2149C110.55 37.2141 107.219 33.9002 107.219 29.8094C107.219 26.7735 109.055 24.1662 111.68 23.0241C111.398 22.1486 111.114 21.2775 110.851 20.4656C109.05 22.6408 104.884 27.6568 103.593 29.0698C102.813 29.9209 102.292 30.4505 101.77 30.8164C101.572 30.9593 101.363 31.069 101.15 31.1492C101.134 31.157 101.12 31.1657 101.105 31.1727C101.077 31.1832 101.049 31.1884 101.021 31.1945C100.744 31.2851 100.465 31.3269 100.201 31.3269C100.183 31.3269 100.162 31.3269 100.141 31.3269C99.6551 31.3243 99.2017 31.2546 98.5426 31.2215C98.4192 31.2145 98.2747 31.2058 98.1137 31.1962C97.4607 34.6224 94.4383 37.2132 90.8067 37.2141C86.6963 37.2132 83.3667 33.8985 83.3658 29.8085C83.3658 25.7203 86.6954 22.4056 90.8058 22.4056ZM108.788 29.8103C108.795 33.0387 111.416 35.6469 114.658 35.6521C117.901 35.6469 120.521 33.0387 120.528 29.8103C120.521 26.5844 117.901 23.9754 114.658 23.9684C114.319 23.9693 113.987 24.0006 113.664 24.0564C114.666 27.1629 115.555 29.9435 115.557 29.9462C115.688 30.3573 115.459 30.7973 115.047 30.9288C114.967 30.9532 114.886 30.9654 114.808 30.9654C114.475 30.9654 114.166 30.7528 114.061 30.4209C114.059 30.414 113.168 27.6342 112.165 24.5259C110.172 25.4581 108.793 27.473 108.788 29.8103ZM102.431 28.0201C103.225 27.1507 105.283 24.7446 107.127 22.572C108.039 21.4996 108.896 20.483 109.535 19.726H97.5867L101.214 29.2606C101.514 28.9957 101.907 28.5959 102.431 28.0201ZM98.6222 29.663C99.0756 29.6874 99.438 29.7223 99.7198 29.744L96.3263 20.8245L94.8847 23.6182C96.8638 24.9127 98.1846 27.1202 98.2415 29.6413C98.3841 29.65 98.5128 29.6569 98.6222 29.663ZM94.16 25.0207L92.0365 29.136C92.6046 29.1856 93.3337 29.2484 94.1066 29.3154C94.9591 29.3878 95.865 29.4618 96.6668 29.5263C96.574 27.6594 95.6051 26.0269 94.16 25.0207ZM90.8058 35.6521C93.6077 35.6469 95.9464 33.6973 96.532 31.0821C94.0899 30.8922 90.7393 30.5899 90.7349 30.5891C90.4758 30.5655 90.243 30.414 90.1179 30.1875C89.9927 29.9618 89.9883 29.6848 90.1073 29.454L92.7639 24.3055C92.1512 24.0895 91.4921 23.9701 90.8058 23.9693C87.5637 23.9762 84.9414 26.5853 84.9352 29.8111C84.9414 33.0378 87.5637 35.6469 90.8058 35.6521Z" fill="white"/>
<path d="M10.8055 19.3714C11.1705 19.3139 11.5854 19.2556 12.0476 19.1989C12.5097 19.1414 13.0008 19.0935 13.5207 19.0552C14.0406 19.0169 14.5754 18.9881 15.1242 18.9681C15.6731 18.9498 16.207 18.9402 16.7278 18.9402C17.6136 18.9402 18.4364 19.0308 19.197 19.2138C19.9576 19.3967 20.6124 19.6798 21.1612 20.0649C21.71 20.4499 22.1432 20.9456 22.461 21.551C22.7787 22.1565 22.9371 22.8821 22.9371 23.7289C22.9371 24.3639 22.8312 24.9746 22.6194 25.5609C22.4067 26.148 22.1039 26.6716 21.7091 27.1341C21.3143 27.5958 20.8426 27.9809 20.2937 28.2875C19.7449 28.5959 19.1244 28.7971 18.4311 28.893V29.0367C18.7961 29.1125 19.1629 29.251 19.5287 29.4522C19.8946 29.6535 20.222 29.9104 20.5108 30.2267C20.7997 30.5412 21.0307 30.914 21.2041 31.3435C21.3774 31.7738 21.464 32.2564 21.464 32.7904C21.464 34.0126 21.2233 35.0589 20.7419 35.9283C20.2605 36.7977 19.6154 37.505 18.8066 38.0495C17.9978 38.5939 17.0543 38.9947 15.9759 39.2525C14.8975 39.5104 13.7614 39.6393 12.5675 39.6393C12.2585 39.6393 11.8594 39.6393 11.3684 39.6393C10.8773 39.6393 10.3521 39.6245 9.79457 39.5958C9.23526 39.567 8.6777 39.5243 8.11926 39.4668C7.55994 39.4102 7.05052 39.3231 6.58836 39.2081L10.8055 19.3714ZM10.8344 36.2175C10.9106 36.2558 11.0506 36.2846 11.2528 36.3037C11.455 36.3229 11.6765 36.3377 11.9172 36.3473C12.1579 36.3569 12.403 36.3656 12.6533 36.376C12.9036 36.3856 13.1154 36.39 13.2888 36.39C13.7702 36.39 14.2656 36.3333 14.7768 36.2184C15.2871 36.1034 15.7483 35.9117 16.1632 35.6434C16.5772 35.3751 16.9186 35.0301 17.1882 34.6085C17.4578 34.1877 17.5926 33.6703 17.5926 33.057C17.5926 32.5779 17.4867 32.185 17.2749 31.8775C17.0622 31.5708 16.7838 31.3269 16.4372 31.144C16.0906 30.9628 15.6906 30.8373 15.238 30.7703C14.7855 30.7032 14.3181 30.6701 13.8367 30.6701H11.9881L10.8344 36.2175ZM12.6542 27.737H13.8962C14.1658 27.737 14.4835 27.7326 14.8494 27.7222C15.2144 27.7126 15.5234 27.6882 15.7737 27.6498C16.1203 27.5915 16.4906 27.4948 16.8862 27.3598C17.281 27.2239 17.6372 27.0296 17.955 26.7778C18.2727 26.527 18.537 26.2072 18.7497 25.8196C18.9615 25.4319 19.0675 24.9476 19.0675 24.3665C19.0675 23.5337 18.7935 22.9631 18.2447 22.653C17.6959 22.3429 16.9974 22.1878 16.1501 22.1878C15.6494 22.1878 15.1864 22.1983 14.7636 22.2166C14.34 22.2357 14.0126 22.2662 13.7815 22.3045L12.6542 27.737Z" fill="white"/>
<path d="M27.2699 19.2277H38.6505L37.8995 22.734H30.2739L29.2629 27.4199H36.2241L35.4442 30.9271H28.5408L27.472 35.8429H35.2421L34.5199 39.3501H22.9949L27.2699 19.2277Z" fill="white"/>
<path d="M51.0945 22.7349H47.0839C46.641 24.5564 46.2218 26.2133 45.827 27.7082C45.4322 29.2031 45.0375 30.5455 44.6427 31.7329C44.248 32.9211 43.8287 33.9752 43.3858 34.8951C42.9429 35.8159 42.4615 36.6199 41.9416 37.3099C41.5932 37.769 41.2308 38.1436 40.8536 38.431C40.4763 38.7185 40.0991 38.9441 39.7218 39.1062C39.3446 39.2691 38.9822 39.3832 38.6338 39.4511C38.2855 39.5182 37.9572 39.5522 37.6474 39.5522C36.7581 39.5522 36.0613 39.418 35.558 39.1489L36.6845 35.7567C36.7808 35.795 36.8824 35.8237 36.9874 35.8429C37.0933 35.8621 37.194 35.8716 37.2911 35.8716C37.6185 35.8908 37.9502 35.815 38.2881 35.6417C38.6242 35.4692 38.9376 35.1913 39.2264 34.808C39.573 34.3872 39.9389 33.7731 40.324 32.9681C40.7092 32.1632 41.1083 31.1283 41.5232 29.8643C41.9372 28.5994 42.3705 27.0949 42.823 25.35C43.2755 23.6069 43.7526 21.565 44.2532 19.2277H55.5761L51.3011 39.351H47.5461L51.0945 22.7349Z" fill="white"/>
<path d="M55.9235 31.8182C55.9235 30.0359 56.1686 28.3546 56.6597 26.7735C57.1507 25.1924 57.8483 23.8125 58.7543 22.6338C59.6593 21.4543 60.7517 20.5257 62.0331 19.8453C63.3137 19.1658 64.743 18.8252 66.3221 18.8252C67.3619 18.8252 68.3011 18.9785 69.1388 19.2843C69.9764 19.5918 70.6889 20.0649 71.2762 20.7078C71.8636 21.3498 72.3205 22.1591 72.6478 23.1365C72.9752 24.1139 73.1389 25.2743 73.1389 26.6149C73.1389 28.4164 72.8929 30.1134 72.4027 31.7032C71.9117 33.2948 71.2185 34.6886 70.323 35.8865C69.4276 37.0843 68.3589 38.0286 67.1168 38.7185C65.8748 39.4085 64.5023 39.7534 63.0003 39.7534C60.728 39.7534 58.9853 39.0879 57.7722 37.7559C56.559 36.4231 55.9419 34.4447 55.9235 31.8182ZM59.8808 31.7032C59.8808 33.0831 60.1451 34.186 60.6747 35.0092C61.2042 35.8333 62.076 36.2454 63.2892 36.2454C64.175 36.2454 64.9785 35.9823 65.7006 35.4552C66.4227 34.9291 67.0442 34.2191 67.5632 33.3288C68.0832 32.4376 68.4823 31.4166 68.7624 30.2667C69.0416 29.1168 69.1817 27.919 69.1817 26.6733C69.1817 25.1593 68.8832 24.0573 68.2862 23.3673C67.6893 22.6774 66.8709 22.3324 65.831 22.3324C64.9645 22.3324 64.1706 22.5816 63.4485 23.0799C62.7263 23.5782 62.0996 24.2542 61.571 25.1061C61.0414 25.959 60.6265 26.9556 60.3289 28.0959C60.0296 29.2362 59.8808 30.4384 59.8808 31.7032Z" fill="white"/>
<path d="M144.306 38.5173C143.016 39.3414 141.436 39.7534 139.569 39.7534C138.298 39.7534 137.19 39.5426 136.247 39.121C135.303 38.6994 134.518 38.1148 133.893 37.3665C133.266 36.6199 132.8 35.7479 132.492 34.7505C132.184 33.7539 132.031 32.6807 132.031 31.5316C132.031 29.2702 132.347 27.3389 132.983 25.7386C133.619 24.1392 134.457 22.8255 135.496 21.8002C136.536 20.7748 137.725 20.023 139.064 19.543C140.402 19.0639 141.773 18.8252 143.179 18.8252C144.277 18.8252 145.216 18.9071 145.996 19.0691C146.776 19.2312 147.387 19.4185 147.831 19.6302L146.357 22.9649C145.972 22.7541 145.508 22.5955 144.97 22.4901C144.432 22.3847 143.748 22.3316 142.919 22.3316C141.937 22.3316 141.022 22.5328 140.175 22.9353C139.327 23.3377 138.596 23.9127 137.979 24.6592C137.364 25.4067 136.876 26.317 136.521 27.3911C136.165 28.4635 135.987 29.6813 135.987 31.0412C135.987 32.6702 136.397 33.9447 137.214 34.8646C138.032 35.7854 139.125 36.2445 140.492 36.2445C141.359 36.2445 142.076 36.1539 142.644 35.9718C143.212 35.7906 143.747 35.565 144.248 35.2967L144.306 38.5173Z" fill="white"/>
<path d="M153.376 30.7555H152.017L150.197 39.351H146.443L150.717 19.2277H154.473L152.566 28.1386L153.461 27.8223L160.307 19.2277H164.813L157.534 27.7657L155.801 28.7719L157.071 29.8922L161.463 39.3501H157.275L153.376 30.7555Z" fill="white"/>
<path d="M176.159 22.7349H172.15C171.705 24.5564 171.288 26.2133 170.893 27.7082C170.497 29.2031 170.103 30.5455 169.708 31.7329C169.313 32.9211 168.894 33.9752 168.451 34.8951C168.008 35.8159 167.526 36.6199 167.007 37.3099C166.658 37.769 166.295 38.1436 165.919 38.431C165.541 38.7185 165.164 38.9441 164.788 39.1062C164.409 39.2691 164.047 39.3832 163.699 39.4511C163.352 39.5182 163.022 39.5522 162.712 39.5522C161.823 39.5522 161.127 39.418 160.623 39.1489L161.749 35.7567C161.847 35.795 161.948 35.8237 162.054 35.8429C162.158 35.8621 162.261 35.8716 162.357 35.8716C162.683 35.8908 163.017 35.815 163.354 35.6417C163.691 35.4683 164.003 35.1913 164.292 34.808C164.639 34.3872 165.005 33.7731 165.39 32.9681C165.775 32.1632 166.174 31.1283 166.588 29.8643C167.002 28.5994 167.436 27.0949 167.889 25.35C168.34 23.6069 168.817 21.565 169.318 19.2277H180.641L176.367 39.351H172.611L176.159 22.7349Z" fill="white"/>
<path d="M190.492 34.8951H184.599L182.202 39.351H178.187L189.453 19.084H192.226L194.824 39.351H191.07L190.492 34.8951ZM186.245 31.7329H190.349L189.886 27.2491L189.915 24.086H189.771L188.616 27.277L186.245 31.7329Z" fill="white"/>
<path d="M212.04 42.9444H209.354L209.701 39.351H197.445L196.269 42.9444H193.583L195.084 35.8438H197.107C197.279 35.6338 197.602 35.1686 198.074 34.4491C198.546 33.7313 199.071 32.7059 199.649 31.374C200.227 30.042 200.829 28.379 201.455 26.3858C202.08 24.3927 202.642 22.0066 203.144 19.2277H214.67L211.117 35.8429H213.572L212.04 42.9444ZM207.36 35.8429L210.155 22.734H205.915C205.106 26.1837 204.269 28.9923 203.402 31.157C202.537 33.3227 201.775 34.8846 201.122 35.8429H207.36Z" fill="white"/>
</svg>
