<svg width="25" height="24" viewBox="0 0 25 24" fill="none" xmlns="http://www.w3.org/2000/svg">
<g clip-path="url(#clip0_5112_29644)">
<path d="M21.6369 3.76815C21.0993 3.20759 20.4611 2.76292 19.7586 2.45954C19.0561 2.15615 18.3032 2 17.5428 2C16.7824 2 16.0294 2.15615 15.3269 2.45954C14.6245 2.76292 13.9862 3.20759 13.4487 3.76815L12.333 4.93095L11.2174 3.76815C10.1316 2.6364 8.65888 2.00059 7.12328 2.00059C5.58769 2.00059 4.11499 2.6364 3.02916 3.76815C1.94333 4.89989 1.33331 6.43487 1.33331 8.03541C1.33331 9.63594 1.94333 11.1709 3.02916 12.3027L4.14478 13.4655L12.333 22L20.5213 13.4655L21.6369 12.3027C22.1747 11.7424 22.6013 11.0771 22.8924 10.3449C23.1835 9.61276 23.3333 8.82796 23.3333 8.03541C23.3333 7.24285 23.1835 6.45806 22.8924 5.72587C22.6013 4.99368 22.1747 4.32844 21.6369 3.76815V3.76815Z" stroke="#7E8ACA" stroke-width="2" stroke-linecap="round" stroke-linejoin="round"/>
</g>
<defs>
<clipPath id="clip0_5112_29644">
<rect width="24" height="24" fill="white" transform="translate(0.333313)"/>
</clipPath>
</defs>
</svg>
