<svg width="25" height="24" viewBox="0 0 25 24" fill="none" xmlns="http://www.w3.org/2000/svg">
<g clip-path="url(#clip0_5112_27107)">
<path d="M23.3333 19C23.3333 16.2573 23.3333 8.36311 23.3333 3.99555C23.3333 2.3387 21.9921 1 20.3352 1C16.5081 1 10.1097 1 7.83331 1" stroke="#7E8ACA" stroke-width="2" stroke-linecap="round" stroke-linejoin="round"/>
<path d="M1.33325 16.7778C1.33325 17.3671 1.56738 17.9324 1.98413 18.3491C2.40087 18.7659 2.9661 19 3.55547 19H16.3333L20.3333 23V6.22222C20.3333 5.63285 20.0991 5.06762 19.6824 4.65087C19.2656 4.23413 18.7004 4 18.111 4H3.55547C2.9661 4 2.40087 4.23413 1.98413 4.65087C1.56738 5.06762 1.33325 5.63285 1.33325 6.22222V16.7778Z" stroke="#7E8ACA" stroke-width="2" stroke-linecap="round" stroke-linejoin="round"/>
<path d="M14.3333 15C14.3333 15 13.0208 13 10.8333 13C8.64575 13 7.33325 15 7.33325 15" stroke="#7E8ACA" stroke-width="2" stroke-linecap="round" stroke-linejoin="round"/>
<path d="M8.33325 9H8.34325" stroke="#7E8ACA" stroke-width="2" stroke-linecap="round" stroke-linejoin="round"/>
<path d="M13.3333 9H13.3433" stroke="#7E8ACA" stroke-width="2" stroke-linecap="round" stroke-linejoin="round"/>
</g>
<defs>
<clipPath id="clip0_5112_27107">
<rect width="24" height="24" fill="white" transform="translate(0.333313)"/>
</clipPath>
</defs>
</svg>
