<svg width="25" height="24" viewBox="0 0 25 24" fill="none" xmlns="http://www.w3.org/2000/svg">
<path fill-rule="evenodd" clip-rule="evenodd" d="M6.83331 3C5.72874 3 4.83331 3.89543 4.83331 5V19C4.83331 20.1046 5.72874 21 6.83331 21H12.8333V23H6.83331C4.62417 23 2.83331 21.2091 2.83331 19V5C2.83331 2.79086 4.62417 1 6.83331 1H14.8833H17.8333C20.0424 1 21.8333 2.79086 21.8333 5V7.83333V15H19.8333V7.83333V5C19.8333 3.89543 18.9379 3 17.8333 3H14.8833H6.83331ZM12.8333 16H11.8333C11.281 16 10.8333 16.4477 10.8333 17C10.8333 17.5523 11.281 18 11.8333 18H12.8333V16ZM8.83331 12C8.83331 11.4477 8.3856 11 7.83331 11C7.28103 11 6.83331 11.4477 6.83331 12V12.0077V12.0153C6.83331 12.5676 7.28103 13.0153 7.83331 13.0153C8.3856 13.0153 8.83331 12.5676 8.83331 12.0153V12.0077V12ZM11.8333 11C11.281 11 10.8333 11.4477 10.8333 12C10.8333 12.5523 11.281 13 11.8333 13H16.8333C17.3856 13 17.8333 12.5523 17.8333 12C17.8333 11.4477 17.3856 11 16.8333 11H11.8333ZM7.83331 6C8.3856 6 8.83331 6.44772 8.83331 7V7.00766V7.01531C8.83331 7.5676 8.3856 8.01531 7.83331 8.01531C7.28103 8.01531 6.83331 7.5676 6.83331 7.01531V7.00766V7C6.83331 6.44772 7.28103 6 7.83331 6ZM10.8333 7C10.8333 6.44772 11.281 6 11.8333 6H16.8333C17.3856 6 17.8333 6.44772 17.8333 7C17.8333 7.55229 17.3856 8 16.8333 8L11.8333 8C11.281 8 10.8333 7.55228 10.8333 7ZM8.83331 17C8.83331 16.4477 8.3856 16 7.83331 16C7.28103 16 6.83331 16.4477 6.83331 17V17.0077V17.0153C6.83331 17.5676 7.28103 18.0153 7.83331 18.0153C8.3856 18.0153 8.83331 17.5676 8.83331 17.0153V17.0077V17Z" fill="#7E8ACA"/>
<path d="M16.0833 19.5L18.5833 22L22.8333 17.75" stroke="#7E8ACA" stroke-width="2" stroke-linecap="round" stroke-linejoin="round"/>
</svg>
