<svg width="79" height="48" viewBox="0 0 79 48" fill="none" xmlns="http://www.w3.org/2000/svg">
<circle cx="16" cy="32.7273" r="14.2727" stroke="#5ABD32" stroke-width="2"/>
<circle cx="16" cy="32.7274" r="10.6364" stroke="#5ABD32" stroke-width="2"/>
<circle cx="63.2727" cy="32.7274" r="10.6364" stroke="#5ABD32" stroke-width="2"/>
<circle cx="63.2727" cy="32.7273" r="14.2727" stroke="#5ABD32" stroke-width="2"/>
<path fill-rule="evenodd" clip-rule="evenodd" d="M54.4061 6.73507L64.4833 32.081C64.7801 32.8275 64.4155 33.6732 63.669 33.97C62.9225 34.2668 62.0768 33.9023 61.78 33.1558L54.496 14.8352L50.4178 17.6953C49.6259 18.2507 48.9188 18.9179 48.3186 19.6763L39.3719 30.9796L37.0909 29.1742L46.0081 17.9081C46.6277 17.1253 47.361 16.4397 48.1836 15.8741L53.4653 12.2427L53.2978 11.8215L31.9069 19.4823L36.2815 30.4852L34.254 31.2913L30.0329 20.6744L17.5009 32.0001H35.6364V34.9092H16.0134C14.7942 34.9092 13.7993 33.9333 13.7758 32.7144C13.7634 32.073 14.0269 31.4571 14.4994 31.0231L28.8911 17.8026L26.2012 11.0371L28.2287 10.231L30.8315 16.7774L52.2224 9.11665L51.3665 6.96383C50.9584 5.93741 51.4596 4.77451 52.486 4.36642L53.3308 4.03055L53.3314 4.03204C53.3447 4.02662 53.3581 4.0213 53.3715 4.01606L58.0761 2.18188L59.1328 4.89227L54.4061 6.73507Z" fill="#EAEDF4"/>
<path fill-rule="evenodd" clip-rule="evenodd" d="M54.4061 6.73507L64.4833 32.081C64.7801 32.8275 64.4155 33.6732 63.669 33.97C62.9225 34.2668 62.0768 33.9023 61.78 33.1558L54.496 14.8352L50.4178 17.6953C49.6259 18.2507 48.9188 18.9179 48.3186 19.6763L39.3719 30.9796L37.0909 29.1742L46.0081 17.9081C46.6277 17.1253 47.361 16.4397 48.1836 15.8741L53.4653 12.2427L53.2978 11.8215L31.9069 19.4823L36.2815 30.4852L34.254 31.2913L30.0329 20.6744L17.5009 32.0001H35.6364V34.9092H16.0134C14.7942 34.9092 13.7993 33.9333 13.7758 32.7144C13.7634 32.073 14.0269 31.4571 14.4994 31.0231L28.8911 17.8026L26.2012 11.0371L28.2287 10.231L30.8315 16.7774L52.2224 9.11665L51.3665 6.96383C50.9584 5.93741 51.4596 4.77451 52.486 4.36642L53.3308 4.03055L53.3314 4.03204C53.3447 4.02662 53.3581 4.0213 53.3715 4.01606L58.0761 2.18188L59.1328 4.89227L54.4061 6.73507Z" fill="white" fill-opacity="0.4"/>
<path d="M54.4061 6.73507L54.0429 5.80338C53.7947 5.90014 53.5954 6.09191 53.4891 6.33618C53.3828 6.58044 53.3784 6.857 53.4768 7.10453L54.4061 6.73507ZM64.4833 32.081L65.4125 31.7115L64.4833 32.081ZM63.669 33.97L63.2996 33.0408L63.2996 33.0408L63.669 33.97ZM61.78 33.1558L60.8508 33.5252V33.5252L61.78 33.1558ZM54.496 14.8352L55.4253 14.4657C55.3122 14.1815 55.0754 13.9646 54.7823 13.8771C54.4893 13.7895 54.1722 13.8408 53.9218 14.0165L54.496 14.8352ZM50.4178 17.6953L50.992 18.514H50.992L50.4178 17.6953ZM48.3186 19.6763L49.1027 20.2969L48.3186 19.6763ZM39.3719 30.9796L38.7513 31.7637C39.1844 32.1065 39.8133 32.0333 40.156 31.6002L39.3719 30.9796ZM37.0909 29.1742L36.3068 28.5535C36.1422 28.7615 36.0669 29.0263 36.0976 29.2898C36.1283 29.5532 36.2623 29.7937 36.4703 29.9583L37.0909 29.1742ZM46.0081 17.9081L45.224 17.2875L45.224 17.2875L46.0081 17.9081ZM48.1836 15.8741L48.7502 16.6981L48.1836 15.8741ZM53.4653 12.2427L54.0318 13.0668C54.4164 12.8023 54.567 12.307 54.3945 11.8733L53.4653 12.2427ZM53.2978 11.8215L54.2271 11.4521C54.028 10.9513 53.4679 10.6984 52.9606 10.8801L53.2978 11.8215ZM31.9069 19.4823L31.5697 18.5409C31.3144 18.6323 31.1072 18.8235 30.9955 19.0707C30.8839 19.3179 30.8774 19.5998 30.9776 19.8518L31.9069 19.4823ZM36.2815 30.4852L36.6509 31.4145C37.1641 31.2104 37.4148 30.629 37.2107 30.1157L36.2815 30.4852ZM34.254 31.2913L33.3248 31.6607C33.4228 31.9072 33.6146 32.1046 33.8582 32.2096C34.1018 32.3146 34.377 32.3185 34.6235 32.2205L34.254 31.2913ZM30.0329 20.6744L30.9622 20.305C30.8411 20.0006 30.5787 19.7747 30.2597 19.7005C29.9406 19.6262 29.6054 19.7129 29.3624 19.9325L30.0329 20.6744ZM17.5009 32.0001L16.8304 31.2582C16.5235 31.5355 16.4191 31.9732 16.5677 32.3593C16.7163 32.7454 17.0873 33.0001 17.5009 33.0001V32.0001ZM35.6364 32.0001H36.6364C36.6364 31.4478 36.1887 31.0001 35.6364 31.0001V32.0001ZM35.6364 34.9092V35.9092C36.1887 35.9092 36.6364 35.4614 36.6364 34.9092H35.6364ZM13.7758 32.7144L14.7756 32.6951L13.7758 32.7144ZM14.4994 31.0231L13.8229 30.2866H13.8229L14.4994 31.0231ZM28.8911 17.8026L29.5676 18.5391C29.8731 18.2585 29.9736 17.8186 29.8204 17.4332L28.8911 17.8026ZM26.2012 11.0371L25.8318 10.1078C25.3186 10.3119 25.0679 10.8933 25.272 11.4065L26.2012 11.0371ZM28.2287 10.231L29.1579 9.86152C29.06 9.61507 28.8681 9.41763 28.6245 9.31265C28.381 9.20767 28.1057 9.20374 27.8592 9.30173L28.2287 10.231ZM30.8315 16.7774L29.9022 17.1469C30.1013 17.6476 30.6613 17.9006 31.1686 17.7189L30.8315 16.7774ZM52.2224 9.11665L52.5596 10.0581C52.8149 9.96665 53.0221 9.77543 53.1337 9.52827C53.2454 9.28111 53.2518 8.9992 53.1516 8.74719L52.2224 9.11665ZM51.3665 6.96383L50.4372 7.33328V7.33328L51.3665 6.96383ZM52.486 4.36642L52.8555 5.29567V5.29566L52.486 4.36642ZM53.3308 4.03055L54.2603 3.6616C54.1624 3.415 53.9705 3.21742 53.7269 3.11233C53.4833 3.00725 53.2079 3.00328 52.9614 3.1013L53.3308 4.03055ZM53.3314 4.03204L52.402 4.40099C52.5003 4.64885 52.6937 4.84715 52.9389 4.95181C53.1842 5.05647 53.4612 5.05882 53.7082 4.95834L53.3314 4.03204ZM53.3715 4.01606L53.0083 3.08437L53.0083 3.08437L53.3715 4.01606ZM58.0761 2.18188L59.0078 1.81865C58.8072 1.30408 58.2275 1.04958 57.7129 1.25019L58.0761 2.18188ZM59.1328 4.89227L59.4961 5.82397C59.7432 5.72763 59.9419 5.53708 60.0485 5.29423C60.1551 5.05139 60.1609 4.77614 60.0645 4.52904L59.1328 4.89227ZM53.4768 7.10453L63.554 32.4504L65.4125 31.7115L55.3353 6.36562L53.4768 7.10453ZM63.554 32.4504C63.6468 32.6837 63.5328 32.948 63.2996 33.0408L64.0385 34.8993C65.2982 34.3984 65.9134 32.9712 65.4125 31.7115L63.554 32.4504ZM63.2996 33.0408C63.0663 33.1335 62.802 33.0196 62.7093 32.7863L60.8508 33.5252C61.3516 34.7849 62.7788 35.4001 64.0385 34.8993L63.2996 33.0408ZM62.7093 32.7863L55.4253 14.4657L53.5668 15.2046L60.8508 33.5252L62.7093 32.7863ZM53.9218 14.0165L49.8436 16.8766L50.992 18.514L55.0702 15.6539L53.9218 14.0165ZM49.8436 16.8766C48.9726 17.4875 48.1948 18.2215 47.5345 19.0557L49.1027 20.2969C49.6429 19.6144 50.2793 19.0138 50.992 18.514L49.8436 16.8766ZM47.5345 19.0557L38.5878 30.359L40.156 31.6002L49.1027 20.2969L47.5345 19.0557ZM39.9926 30.1955L37.7115 28.39L36.4703 29.9583L38.7513 31.7637L39.9926 30.1955ZM37.875 29.7948L46.7922 18.5287L45.224 17.2875L36.3068 28.5535L37.875 29.7948ZM46.7922 18.5287C47.3498 17.8242 48.0098 17.2072 48.7502 16.6981L47.6171 15.0501C46.7122 15.6722 45.9055 16.4264 45.224 17.2875L46.7922 18.5287ZM48.7502 16.6981L54.0318 13.0668L52.8987 11.4187L47.6171 15.0501L48.7502 16.6981ZM54.3945 11.8733L54.2271 11.4521L52.3686 12.191L52.536 12.6122L54.3945 11.8733ZM52.9606 10.8801L31.5697 18.5409L32.2441 20.4238L53.635 12.763L52.9606 10.8801ZM30.9776 19.8518L35.3522 30.8547L37.2107 30.1157L32.8361 19.1129L30.9776 19.8518ZM35.912 29.556L33.8846 30.362L34.6235 32.2205L36.6509 31.4145L35.912 29.556ZM35.1833 30.9218L30.9622 20.305L29.1037 21.0439L33.3248 31.6607L35.1833 30.9218ZM29.3624 19.9325L16.8304 31.2582L18.1714 32.742L30.7034 21.4163L29.3624 19.9325ZM17.5009 33.0001H35.6364V31.0001H17.5009V33.0001ZM34.6364 32.0001V34.9092H36.6364V32.0001H34.6364ZM35.6364 33.9092H16.0134V35.9092H35.6364V33.9092ZM16.0134 33.9092C15.339 33.9092 14.7886 33.3694 14.7756 32.6951L12.776 32.7337C12.81 34.4973 14.2494 35.9092 16.0134 35.9092V33.9092ZM14.7756 32.6951C14.7688 32.3403 14.9145 31.9996 15.1759 31.7595L13.8229 30.2866C13.1393 30.9146 12.7581 31.8057 12.776 32.7337L14.7756 32.6951ZM15.1759 31.7595L29.5676 18.5391L28.2146 17.0662L13.8229 30.2866L15.1759 31.7595ZM29.8204 17.4332L27.1305 10.6676L25.272 11.4065L27.9619 18.1721L29.8204 17.4332ZM26.5707 11.9663L28.5981 11.1602L27.8592 9.30173L25.8318 10.1078L26.5707 11.9663ZM27.2994 10.6004L29.9022 17.1469L31.7607 16.408L29.1579 9.86152L27.2994 10.6004ZM31.1686 17.7189L52.5596 10.0581L51.8852 8.1752L30.4943 15.836L31.1686 17.7189ZM53.1516 8.74719L52.2957 6.59437L50.4372 7.33328L51.2931 9.4861L53.1516 8.74719ZM52.2957 6.59437C52.0917 6.08116 52.3423 5.49971 52.8555 5.29567L52.1166 3.43717C50.577 4.0493 49.8251 5.79365 50.4372 7.33328L52.2957 6.59437ZM52.8555 5.29566L53.7003 4.9598L52.9614 3.1013L52.1166 3.43717L52.8555 5.29566ZM52.4014 4.3995L52.402 4.40099L54.2609 3.66309L54.2603 3.6616L52.4014 4.3995ZM53.7082 4.95834C53.7169 4.95478 53.7258 4.95125 53.7348 4.94775L53.0083 3.08437C52.9904 3.09135 52.9725 3.09847 52.9546 3.10573L53.7082 4.95834ZM53.7348 4.94776L58.4394 3.11358L57.7129 1.25019L53.0083 3.08437L53.7348 4.94776ZM57.1444 2.54512L58.2011 5.25551L60.0645 4.52904L59.0078 1.81865L57.1444 2.54512ZM58.7696 3.96058L54.0429 5.80338L54.7693 7.66677L59.4961 5.82397L58.7696 3.96058Z" fill="#5ABD32"/>
<path d="M26.1819 10.9092L34.2541 31.2913" stroke="#5ABD32" stroke-width="2" stroke-linejoin="round"/>
<circle cx="58.1818" cy="3.63641" r="2.18182" fill="#EAEDF4"/>
<circle cx="58.1818" cy="3.63641" r="2.18182" fill="white" fill-opacity="0.4"/>
<circle cx="58.1818" cy="3.63641" r="2.18182" stroke="#5ABD32" stroke-width="2" stroke-linejoin="round"/>
<ellipse cx="36" cy="33.091" rx="4.72727" ry="4.72727" fill="#EAEDF4"/>
<ellipse cx="36" cy="33.091" rx="4.72727" ry="4.72727" fill="white" fill-opacity="0.4"/>
<ellipse cx="36" cy="33.091" rx="4.72727" ry="4.72727" stroke="#5ABD32" stroke-width="2"/>
<path d="M19.7899 7.36383C19.4362 7.4402 19.1514 7.70168 19.0451 8.04757C18.9388 8.39345 19.0277 8.76977 19.2774 9.03158C19.4718 9.23528 19.6209 9.40599 19.7691 9.5756C19.8396 9.65642 19.91 9.73699 19.985 9.82076C20.1981 10.059 20.4486 10.3228 20.7695 10.5368L20.7696 10.5368C21.9417 11.3181 23.4766 11.6145 24.8996 11.4903C26.3191 11.3664 27.7948 10.8072 28.7557 9.67324L28.7558 9.67313C29.7886 8.45399 30.7448 7.69582 31.4775 7.21974C32.0279 6.86219 32.4018 6.68672 32.6946 6.54937C32.8133 6.49368 32.9186 6.44425 33.0169 6.39149L33.0174 6.39126C33.0872 6.35376 33.4616 6.15291 33.5611 5.67832C33.6889 5.06915 33.2648 4.7086 33.1288 4.61571C32.9667 4.50502 32.8076 4.46152 32.7204 4.44261C32.6175 4.42027 32.5139 4.41116 32.4151 4.41274C30.1386 4.44932 28.0189 4.9778 25.9696 5.59006C25.402 5.75966 24.8438 5.93418 24.2889 6.10768C22.8059 6.57136 21.346 7.02782 19.7899 7.36383ZM32.0713 4.62916C32.0704 4.62963 32.0695 4.63013 32.0685 4.63066L32.0693 4.63021C32.0702 4.62977 32.0708 4.62942 32.0713 4.62916Z" stroke="#5ABD32" stroke-width="2" stroke-linejoin="round"/>
</svg>
