<svg width="80" height="80" viewBox="0 0 80 80" fill="none" xmlns="http://www.w3.org/2000/svg">
<path d="M28.8182 50.909C28.8182 57.5867 23.4049 62.9999 16.7273 62.9999C10.0496 62.9999 4.63635 57.5867 4.63635 50.909C4.63635 44.2314 10.0496 38.8181 16.7273 38.8181C23.4049 38.8181 28.8182 44.2314 28.8182 50.909Z" stroke="#5ABD32" stroke-width="2"/>
<path d="M25.1818 50.9091C25.1818 55.5785 21.3966 59.3637 16.7272 59.3637C12.0579 59.3637 8.27271 55.5785 8.27271 50.9091C8.27271 46.2398 12.0579 42.4546 16.7272 42.4546C21.3966 42.4546 25.1818 46.2398 25.1818 50.9091Z" stroke="#5ABD32" stroke-width="2"/>
<path d="M69.5454 50.9091C69.5454 55.5785 65.7602 59.3637 61.0909 59.3637C56.4216 59.3637 52.6364 55.5785 52.6364 50.9091C52.6364 46.2398 56.4216 42.4546 61.0909 42.4546C65.7602 42.4546 69.5454 46.2398 69.5454 50.9091Z" stroke="#5ABD32" stroke-width="2"/>
<path d="M73.1818 50.909C73.1818 57.5867 67.7685 62.9999 61.0909 62.9999C54.4133 62.9999 49 57.5867 49 50.909C49 44.2314 54.4133 38.8181 61.0909 38.8181C67.7685 38.8181 73.1818 44.2314 73.1818 50.909Z" stroke="#5ABD32" stroke-width="2"/>
<path fill-rule="evenodd" clip-rule="evenodd" d="M52.7686 26.9361C52.313 25.3953 53.1928 23.7771 54.7335 23.3215L62.632 50.0365C62.8598 50.8069 62.4199 51.616 61.6496 51.8438C60.8792 52.0716 60.0701 51.6317 59.8423 50.8613L56.04 38.0009L37.0908 47.6362L35.6103 46.4644L36.9574 49.8525L34.2541 50.9273L30.1309 40.5566L19.2727 49.8181L30.9091 48.3634L32.3637 50.9088L19.3905 51.9263C17.5182 52.0732 16.4942 49.7917 17.8483 48.4904L29.0176 37.7566L28.2668 35.868L30.97 34.7933L31.8341 36.9664L54.1381 31.5681L52.7686 26.9361ZM35.2652 45.5964L55.2466 35.3174L54.9592 34.3455L32.9135 39.6813L35.2652 45.5964Z" fill="#EAEDF4"/>
<path fill-rule="evenodd" clip-rule="evenodd" d="M52.7686 26.9361C52.313 25.3953 53.1928 23.7771 54.7335 23.3215L62.632 50.0365C62.8598 50.8069 62.4199 51.616 61.6496 51.8438C60.8792 52.0716 60.0701 51.6317 59.8423 50.8613L56.04 38.0009L37.0908 47.6362L35.6103 46.4644L36.9574 49.8525L34.2541 50.9273L30.1309 40.5566L19.2727 49.8181L30.9091 48.3634L32.3637 50.9088L19.3905 51.9263C17.5182 52.0732 16.4942 49.7917 17.8483 48.4904L29.0176 37.7566L28.2668 35.868L30.97 34.7933L31.8341 36.9664L54.1381 31.5681L52.7686 26.9361ZM35.2652 45.5964L55.2466 35.3174L54.9592 34.3455L32.9135 39.6813L35.2652 45.5964Z" fill="white" fill-opacity="0.4"/>
<path d="M54.7335 23.3215L55.6924 23.038C55.6172 22.7837 55.4441 22.5696 55.2111 22.443C54.9781 22.3163 54.7043 22.2874 54.4499 22.3626L54.7335 23.3215ZM52.7686 26.9361L51.8096 27.2196L51.8096 27.2196L52.7686 26.9361ZM62.632 50.0365L61.6731 50.3201L61.6731 50.3201L62.632 50.0365ZM59.8423 50.8613L60.8013 50.5778L59.8423 50.8613ZM56.04 38.0009L56.999 37.7174C56.9147 37.4325 56.7082 37.1998 56.4354 37.0824C56.1625 36.9649 55.8515 36.9749 55.5867 37.1095L56.04 38.0009ZM37.0908 47.6362L36.4702 48.4203C36.7764 48.6627 37.1958 48.7046 37.544 48.5276L37.0908 47.6362ZM35.6103 46.4644L36.2309 45.6803C35.8759 45.3993 35.3764 45.3919 35.0132 45.6622C34.6501 45.9325 34.5138 46.4131 34.6811 46.8338L35.6103 46.4644ZM36.9574 49.8525L37.3269 50.7818C37.8401 50.5777 38.0907 49.9963 37.8867 49.4831L36.9574 49.8525ZM34.2541 50.9273L33.3249 51.2968C33.4229 51.5432 33.6148 51.7407 33.8583 51.8456C34.1019 51.9506 34.3771 51.9546 34.6236 51.8566L34.2541 50.9273ZM30.1309 40.5566L31.0601 40.1871C30.941 39.8874 30.6846 39.6636 30.3716 39.586C30.0585 39.5084 29.7273 39.5865 29.4819 39.7957L30.1309 40.5566ZM19.2727 49.8181L18.6237 49.0572C18.2876 49.3439 18.1794 49.8173 18.3577 50.2215C18.5359 50.6258 18.9583 50.8651 19.3967 50.8103L19.2727 49.8181ZM30.9091 48.3634L31.7774 47.8672C31.5771 47.5167 31.1857 47.321 30.7851 47.3711L30.9091 48.3634ZM32.3637 50.9088L32.4419 51.9058C32.7834 51.879 33.0874 51.6793 33.2476 51.3765C33.4078 51.0738 33.4019 50.7101 33.2319 50.4127L32.3637 50.9088ZM19.3905 51.9263L19.4687 52.9233L19.4687 52.9233L19.3905 51.9263ZM17.8483 48.4904L17.1554 47.7694L17.1554 47.7694L17.8483 48.4904ZM29.0176 37.7566L29.7106 38.4776C30.0037 38.196 30.0971 37.7649 29.9469 37.3872L29.0176 37.7566ZM28.2668 35.868L27.8973 34.9388C27.3841 35.1428 27.1335 35.7243 27.3375 36.2375L28.2668 35.868ZM30.97 34.7933L31.8993 34.4238C31.6952 33.9106 31.1138 33.66 30.6006 33.864L30.97 34.7933ZM31.8341 36.9664L30.9048 37.3359C31.0888 37.7987 31.5853 38.0555 32.0693 37.9384L31.8341 36.9664ZM54.1381 31.5681L54.3733 32.5401C54.6395 32.4756 54.8676 32.3048 55.0044 32.0675C55.1412 31.8302 55.1747 31.5472 55.097 31.2846L54.1381 31.5681ZM35.2652 45.5964L34.336 45.9659C34.4402 46.2279 34.6502 46.4338 34.9142 46.5328C35.1783 46.6318 35.4719 46.6146 35.7227 46.4856L35.2652 45.5964ZM55.2466 35.3174L55.704 36.2066C56.1312 35.9869 56.3417 35.4945 56.2055 35.0339L55.2466 35.3174ZM54.9592 34.3455L55.9182 34.062C55.7671 33.551 55.2419 33.2482 54.724 33.3736L54.9592 34.3455ZM32.9135 39.6813L32.6782 38.7094C32.3966 38.7776 32.1584 38.9645 32.0253 39.2218C31.8922 39.4791 31.8772 39.7816 31.9842 40.0508L32.9135 39.6813ZM54.4499 22.3626C52.3796 22.9747 51.1975 25.1492 51.8096 27.2196L53.7275 26.6525C53.4286 25.6414 54.0059 24.5794 55.017 24.2805L54.4499 22.3626ZM63.591 49.753L55.6924 23.038L53.7745 23.6051L61.6731 50.3201L63.591 49.753ZM61.9331 52.8028C63.2331 52.4184 63.9753 51.053 63.591 49.753L61.6731 50.3201C61.7442 50.5608 61.6068 50.8137 61.366 50.8848L61.9331 52.8028ZM58.8833 51.1449C59.2677 52.4449 60.6331 53.1871 61.9331 52.8028L61.366 50.8848C61.1253 50.956 60.8724 50.8186 60.8013 50.5778L58.8833 51.1449ZM55.081 38.2844L58.8833 51.1449L60.8013 50.5778L56.999 37.7174L55.081 38.2844ZM55.5867 37.1095L36.6375 46.7448L37.544 48.5276L56.4932 38.8923L55.5867 37.1095ZM37.7114 46.8521L36.2309 45.6803L34.9897 47.2485L36.4702 48.4203L37.7114 46.8521ZM37.8867 49.4831L36.5396 46.0949L34.6811 46.8338L36.0282 50.222L37.8867 49.4831ZM34.6236 51.8566L37.3269 50.7818L36.588 48.9233L33.8847 49.9981L34.6236 51.8566ZM29.2016 40.926L33.3249 51.2968L35.1834 50.5579L31.0601 40.1871L29.2016 40.926ZM19.9216 50.5789L30.7798 41.3174L29.4819 39.7957L18.6237 49.0572L19.9216 50.5789ZM30.7851 47.3711L19.1486 48.8258L19.3967 50.8103L31.0332 49.3557L30.7851 47.3711ZM33.2319 50.4127L31.7774 47.8672L30.0409 48.8595L31.4954 51.405L33.2319 50.4127ZM19.4687 52.9233L32.4419 51.9058L32.2855 49.9119L19.3123 50.9294L19.4687 52.9233ZM17.1554 47.7694C15.1242 49.7214 16.6603 53.1436 19.4687 52.9233L19.3123 50.9294C18.3762 51.0028 17.8642 49.8621 18.5412 49.2114L17.1554 47.7694ZM28.3247 37.0356L17.1554 47.7694L18.5412 49.2114L29.7106 38.4776L28.3247 37.0356ZM27.3375 36.2375L28.0884 38.1261L29.9469 37.3872L29.196 35.4986L27.3375 36.2375ZM30.6006 33.864L27.8973 34.9388L28.6362 36.7973L31.3395 35.7225L30.6006 33.864ZM32.7633 36.597L31.8993 34.4238L30.0408 35.1627L30.9048 37.3359L32.7633 36.597ZM53.9028 30.5962L31.5988 35.9945L32.0693 37.9384L54.3733 32.5401L53.9028 30.5962ZM51.8096 27.2196L53.1791 31.8516L55.097 31.2846L53.7275 26.6525L51.8096 27.2196ZM35.7227 46.4856L55.704 36.2066L54.7891 34.4282L34.8078 44.7072L35.7227 46.4856ZM54.0003 34.629L54.2876 35.6009L56.2055 35.0339L55.9182 34.062L54.0003 34.629ZM33.1487 40.6533L55.1945 35.3175L54.724 33.3736L32.6782 38.7094L33.1487 40.6533ZM36.1945 45.2269L33.8427 39.3119L31.9842 40.0508L34.336 45.9659L36.1945 45.2269Z" fill="#5ABD32"/>
<path d="M28.1893 35.6472L32.7436 47.1771" stroke="#5ABD32" stroke-width="2" stroke-linejoin="round"/>
<path d="M55.266 38.4861L58.7398 36.6334" stroke="#5ABD32" stroke-width="2" stroke-linejoin="round"/>
<path d="M57.8341 22.9261C58.1266 23.6585 57.7429 24.486 56.995 24.736V24.736C56.2459 24.9864 55.4407 24.5541 55.2354 23.7915L52.7521 14.5668C52.6635 14.2379 52.7895 13.8887 53.0676 13.6921V13.6921C53.4967 13.3887 54.0965 13.5662 54.2914 14.0542L57.8341 22.9261Z" fill="#EAEDF4"/>
<path d="M57.8341 22.9261C58.1266 23.6585 57.7429 24.486 56.995 24.736V24.736C56.2459 24.9864 55.4407 24.5541 55.2354 23.7915L52.7521 14.5668C52.6635 14.2379 52.7895 13.8887 53.0676 13.6921V13.6921C53.4967 13.3887 54.0965 13.5662 54.2914 14.0542L57.8341 22.9261Z" fill="white" fill-opacity="0.4"/>
<path d="M57.8341 22.9261C58.1266 23.6585 57.7429 24.486 56.995 24.736V24.736C56.2459 24.9864 55.4407 24.5541 55.2354 23.7915L52.7521 14.5668C52.6635 14.2379 52.7895 13.8887 53.0676 13.6921V13.6921C53.4967 13.3887 54.0965 13.5662 54.2914 14.0542L57.8341 22.9261Z" stroke="#5ABD32" stroke-width="2" stroke-linejoin="round"/>
<ellipse cx="53.8182" cy="14.5453" rx="2.18182" ry="2.18182" fill="#EAEDF4"/>
<ellipse cx="53.8182" cy="14.5453" rx="2.18182" ry="2.18182" fill="white" fill-opacity="0.4"/>
<ellipse cx="53.8182" cy="14.5453" rx="2.18182" ry="2.18182" stroke="#5ABD32" stroke-width="2" stroke-linejoin="round"/>
<ellipse cx="34.5454" cy="48.3635" rx="4.72727" ry="4.72727" fill="#EAEDF4"/>
<ellipse cx="34.5454" cy="48.3635" rx="4.72727" ry="4.72727" fill="white" fill-opacity="0.4"/>
<ellipse cx="34.5454" cy="48.3635" rx="4.72727" ry="4.72727" stroke="#5ABD32" stroke-width="2"/>
<path d="M23.0616 31.7711C22.7079 31.8474 22.4231 32.1089 22.3168 32.4548C22.2105 32.8007 22.2994 33.177 22.5492 33.4388C22.7435 33.6425 22.8926 33.8132 23.0408 33.9828C23.1114 34.0636 23.1818 34.1442 23.2567 34.228C23.4699 34.4662 23.7203 34.7301 24.0413 34.944L24.0413 34.9441C25.2135 35.7253 26.7483 36.0217 28.1713 35.8975C29.5908 35.7737 31.0665 35.2144 32.0274 34.0805L32.0275 34.0804C33.0603 32.8612 34.0165 32.1031 34.7493 31.627C35.2996 31.2694 35.6736 31.0939 35.9663 30.9566C36.085 30.9009 36.1903 30.8515 36.2886 30.7987L36.2891 30.7985C36.359 30.761 36.7333 30.5601 36.8329 30.0855C36.9607 29.4764 36.5365 29.1158 36.4005 29.0229C36.2385 28.9122 36.0793 28.8687 35.9922 28.8498C35.8892 28.8275 35.7857 28.8184 35.6868 28.82C33.4103 28.8565 31.2906 29.385 29.2414 29.9973C28.6737 30.1669 28.1155 30.3414 27.5606 30.5149C26.0776 30.9786 24.6177 31.435 23.0616 31.7711ZM35.343 29.0364C35.3421 29.0369 35.3412 29.0374 35.3401 29.0379L35.341 29.0374C35.3419 29.037 35.3425 29.0366 35.343 29.0364Z" stroke="#5ABD32" stroke-width="2" stroke-linejoin="round"/>
</svg>
