<svg width="80" height="80" viewBox="0 0 80 80" fill="none" xmlns="http://www.w3.org/2000/svg">
<path d="M30.2728 49.4546C30.2728 57.3372 23.8826 63.7273 16 63.7273C8.11741 63.7273 1.72729 57.3372 1.72729 49.4546C1.72729 41.572 8.11741 35.1819 16 35.1819C23.8826 35.1819 30.2728 41.572 30.2728 49.4546Z" stroke="#5ABD32" stroke-width="2"/>
<circle cx="16.0001" cy="49.4547" r="10.6364" stroke="#5ABD32" stroke-width="2"/>
<circle cx="62.5455" cy="49.4547" r="10.6364" stroke="#5ABD32" stroke-width="2"/>
<path d="M76.8182 49.4546C76.8182 57.3372 70.428 63.7273 62.5454 63.7273C54.6628 63.7273 48.2727 57.3372 48.2727 49.4546C48.2727 41.572 54.6628 35.1819 62.5454 35.1819C70.428 35.1819 76.8182 41.572 76.8182 49.4546Z" stroke="#5ABD32" stroke-width="2"/>
<path fill-rule="evenodd" clip-rule="evenodd" d="M52.8793 18.7566C51.3654 19.2946 50.5743 20.958 51.1123 22.4719L52.8103 27.25L30.5358 27.25L28.244 21.8184L26.1818 22.644L28.2232 27.4821L14.0924 48.5214C13.2 49.85 14.1521 51.6365 15.7526 51.6365L34.1819 51.6366L32.7274 49.0911L16.7273 49.0911L29.2356 30.9894L33.489 47.3335L36.2785 46.508L31.9795 29.9887L53.7143 29.9887L36.3636 48.7275L38.6447 50.533L54.7281 32.6466L60.8663 49.9196C61.1353 50.6765 61.967 51.0721 62.7239 50.8031C63.4809 50.5341 63.8765 49.7024 63.6075 48.9455L53.8526 21.4954L62.1342 21.4954C62.8963 21.4954 63.6397 21.7318 64.2619 22.1719L64.3 22.199C65.2522 22.8726 65.8182 23.9663 65.8182 25.1327V25.5508C65.8182 26.407 65.4191 27.2143 64.7387 27.7342L64.5844 27.8522C64.2054 28.1418 63.7416 28.2987 63.2646 28.2987H62.0908C61.5386 28.2987 61.0909 28.7463 61.0909 29.2985C61.0909 29.8508 61.5386 30.2984 62.0908 30.2984L63.4694 30.2984L63.989 30.2984C65.0843 30.2984 66.1349 29.8635 66.9098 29.0893C67.8407 28.1592 68.3637 26.8973 68.3637 25.5814L68.3637 24.5017C68.3637 23.2288 67.9708 21.9869 67.2386 20.9456C66.2738 19.5733 64.7013 18.7567 63.0238 18.7567L52.9259 18.7566V18.8878L52.8793 18.7566Z" fill="#EAEDF4"/>
<path fill-rule="evenodd" clip-rule="evenodd" d="M52.8793 18.7566C51.3654 19.2946 50.5743 20.958 51.1123 22.4719L52.8103 27.25L30.5358 27.25L28.244 21.8184L26.1818 22.644L28.2232 27.4821L14.0924 48.5214C13.2 49.85 14.1521 51.6365 15.7526 51.6365L34.1819 51.6366L32.7274 49.0911L16.7273 49.0911L29.2356 30.9894L33.489 47.3335L36.2785 46.508L31.9795 29.9887L53.7143 29.9887L36.3636 48.7275L38.6447 50.533L54.7281 32.6466L60.8663 49.9196C61.1353 50.6765 61.967 51.0721 62.7239 50.8031C63.4809 50.5341 63.8765 49.7024 63.6075 48.9455L53.8526 21.4954L62.1342 21.4954C62.8963 21.4954 63.6397 21.7318 64.2619 22.1719L64.3 22.199C65.2522 22.8726 65.8182 23.9663 65.8182 25.1327V25.5508C65.8182 26.407 65.4191 27.2143 64.7387 27.7342L64.5844 27.8522C64.2054 28.1418 63.7416 28.2987 63.2646 28.2987H62.0908C61.5386 28.2987 61.0909 28.7463 61.0909 29.2985C61.0909 29.8508 61.5386 30.2984 62.0908 30.2984L63.4694 30.2984L63.989 30.2984C65.0843 30.2984 66.1349 29.8635 66.9098 29.0893C67.8407 28.1592 68.3637 26.8973 68.3637 25.5814L68.3637 24.5017C68.3637 23.2288 67.9708 21.9869 67.2386 20.9456C66.2738 19.5733 64.7013 18.7567 63.0238 18.7567L52.9259 18.7566V18.8878L52.8793 18.7566Z" fill="white" fill-opacity="0.4"/>
<path d="M51.1123 22.4719L50.17 22.8067L50.17 22.8067L51.1123 22.4719ZM52.8793 18.7566L53.8216 18.4217C53.7328 18.1718 53.5483 17.9674 53.3088 17.8535C53.0693 17.7396 52.7944 17.7255 52.5445 17.8143L52.8793 18.7566ZM52.8103 27.25L52.8103 28.25C53.1352 28.25 53.4399 28.0921 53.6272 27.8267C53.8146 27.5612 53.8613 27.2213 53.7525 26.9151L52.8103 27.25ZM30.5358 27.25L29.6145 27.6387C29.7708 28.0092 30.1337 28.25 30.5358 28.25L30.5358 27.25ZM28.244 21.8184L29.1654 21.4297C28.9535 20.9275 28.3784 20.6875 27.8724 20.8901L28.244 21.8184ZM26.1818 22.644L25.8102 21.7156C25.561 21.8154 25.3624 22.0112 25.259 22.2589C25.1556 22.5066 25.1561 22.7855 25.2605 23.0328L26.1818 22.644ZM28.2232 27.4821L29.0533 28.0396C29.2413 27.7597 29.2756 27.404 29.1445 27.0933L28.2232 27.4821ZM14.0924 48.5214L13.2622 47.9638L13.2622 47.9638L14.0924 48.5214ZM15.7526 51.6365L15.7526 50.6365L15.7526 50.6365L15.7526 51.6365ZM34.1819 51.6366L34.1819 52.6366C34.5384 52.6366 34.8679 52.4468 35.0468 52.1385C35.2257 51.8302 35.227 51.4499 35.0502 51.1404L34.1819 51.6366ZM32.7274 49.0911L33.5956 48.595C33.4176 48.2834 33.0862 48.0911 32.7274 48.0911L32.7274 49.0911ZM16.7273 49.0911L15.9046 48.5226C15.6933 48.8285 15.6691 49.2264 15.8418 49.5556C16.0144 49.8849 16.3555 50.0911 16.7273 50.0911L16.7273 49.0911ZM29.2356 30.9894L30.2034 30.7376C30.1049 30.3591 29.7948 30.0728 29.4097 30.0047C29.0247 29.9366 28.6352 30.0992 28.4129 30.4209L29.2356 30.9894ZM33.489 47.3335L32.5212 47.5854C32.5895 47.8476 32.7612 48.0709 32.9971 48.2042C33.233 48.3375 33.513 48.3693 33.7728 48.2924L33.489 47.3335ZM36.2785 46.508L36.5623 47.4668C37.0795 47.3138 37.3821 46.7781 37.2462 46.2561L36.2785 46.508ZM31.9795 29.9887L31.9795 28.9887C31.6699 28.9887 31.3777 29.1322 31.1884 29.3771C30.999 29.6221 30.9338 29.9409 31.0117 30.2406L31.9795 29.9887ZM53.7143 29.9887L54.4481 30.6681C54.7182 30.3765 54.7898 29.9526 54.6307 29.5884C54.4716 29.2241 54.1118 28.9887 53.7143 28.9887L53.7143 29.9887ZM36.3636 48.7275L35.6299 48.0481C35.4406 48.2526 35.3451 48.5268 35.3666 48.8046C35.3881 49.0824 35.5245 49.3387 35.743 49.5116L36.3636 48.7275ZM38.6447 50.533L38.0241 51.3171C38.438 51.6447 39.0353 51.5941 39.3883 51.2016L38.6447 50.533ZM54.7281 32.6466L55.6703 32.3118C55.5523 31.9796 55.2681 31.7342 54.9223 31.6657C54.5765 31.5972 54.2202 31.7159 53.9845 31.978L54.7281 32.6466ZM60.8663 49.9196L59.924 50.2544L59.924 50.2545L60.8663 49.9196ZM62.7239 50.8031L62.3891 49.8608L62.3891 49.8608L62.7239 50.8031ZM63.6075 48.9455L64.5497 48.6106L64.5497 48.6106L63.6075 48.9455ZM53.8526 21.4954L53.8526 20.4954C53.5277 20.4954 53.223 20.6533 53.0356 20.9187C52.8483 21.1842 52.8015 21.5241 52.9103 21.8303L53.8526 21.4954ZM62.1342 21.4954L62.1342 20.4954L62.1342 20.4954L62.1342 21.4954ZM64.2619 22.1719L64.8394 21.3556L64.8394 21.3556L64.2619 22.1719ZM64.3 22.199L63.7225 23.0153L63.7225 23.0153L64.3 22.199ZM64.7387 27.7342L65.3459 28.5288L65.3459 28.5288L64.7387 27.7342ZM64.5844 27.8522L63.9772 27.0576L63.9772 27.0576L64.5844 27.8522ZM62.0908 30.2984L62.0908 31.2984L62.0908 31.2984L62.0908 30.2984ZM63.4694 30.2984L63.4694 29.2984L63.4694 29.2984L63.4694 30.2984ZM63.989 30.2984L63.9889 31.2984L63.9889 31.2984L63.989 30.2984ZM66.9098 29.0893L67.6166 29.7967L67.6166 29.7967L66.9098 29.0893ZM68.3637 25.5814L67.3637 25.5814V25.5814H68.3637ZM68.3637 24.5017L69.3637 24.5017V24.5017H68.3637ZM67.2386 20.9456L68.0567 20.3705L68.0567 20.3705L67.2386 20.9456ZM63.0238 18.7567L63.0238 17.7567L63.0238 17.7567L63.0238 18.7567ZM52.9259 18.7566L52.9259 17.7566C52.6607 17.7566 52.4064 17.862 52.2188 18.0495C52.0313 18.237 51.9259 18.4914 51.9259 18.7566H52.9259ZM52.9259 18.8878L51.9837 19.2227C52.1467 19.6813 52.6162 19.956 53.0958 19.8733C53.5755 19.7906 53.9259 19.3745 53.9259 18.8878H52.9259ZM52.0545 22.137C51.7015 21.1435 52.2207 20.0519 53.2142 19.6989L52.5445 17.8143C50.5102 18.5372 49.4471 20.7724 50.17 22.8067L52.0545 22.137ZM53.7525 26.9151L52.0545 22.137L50.17 22.8067L51.868 27.5848L53.7525 26.9151ZM30.5358 28.25L52.8103 28.25L52.8103 26.25L30.5358 26.25L30.5358 28.25ZM27.3227 22.2072L29.6145 27.6387L31.4572 26.8612L29.1654 21.4297L27.3227 22.2072ZM26.5535 23.5724L28.6157 22.7468L27.8724 20.8901L25.8102 21.7156L26.5535 23.5724ZM29.1445 27.0933L27.1032 22.2553L25.2605 23.0328L27.3018 27.8708L29.1445 27.0933ZM14.9225 49.0789L29.0533 28.0396L27.393 26.9245L13.2622 47.9638L14.9225 49.0789ZM15.7526 50.6365C14.9524 50.6365 14.4763 49.7432 14.9225 49.0789L13.2622 47.9638C11.9237 49.9568 13.3519 52.6365 15.7526 52.6365L15.7526 50.6365ZM34.1819 50.6366L15.7526 50.6365L15.7526 52.6365L34.1819 52.6366L34.1819 50.6366ZM31.8591 49.5873L33.3137 52.1327L35.0502 51.1404L33.5956 48.595L31.8591 49.5873ZM16.7273 50.0911L32.7274 50.0911L32.7274 48.0911L16.7273 48.0911L16.7273 50.0911ZM28.4129 30.4209L15.9046 48.5226L17.55 49.6596L30.0583 31.5579L28.4129 30.4209ZM34.4567 47.0817L30.2034 30.7376L28.2678 31.2413L32.5212 47.5854L34.4567 47.0817ZM35.9947 45.5491L33.2052 46.3746L33.7728 48.2924L36.5623 47.4668L35.9947 45.5491ZM31.0117 30.2406L35.3107 46.7598L37.2462 46.2561L32.9473 29.7369L31.0117 30.2406ZM53.7143 28.9887L31.9795 28.9887L31.9795 30.9887L53.7143 30.9887L53.7143 28.9887ZM37.0974 49.4069L54.4481 30.6681L52.9806 29.3093L35.6299 48.0481L37.0974 49.4069ZM39.2653 49.7489L36.9843 47.9434L35.743 49.5116L38.0241 51.3171L39.2653 49.7489ZM53.9845 31.978L37.9011 49.8643L39.3883 51.2016L55.4717 33.3153L53.9845 31.978ZM61.8086 49.5847L55.6703 32.3118L53.7858 32.9815L59.924 50.2544L61.8086 49.5847ZM62.3891 49.8608C62.1525 49.9449 61.8926 49.8213 61.8086 49.5847L59.924 50.2545C60.378 51.5318 61.7814 52.1993 63.0588 51.7454L62.3891 49.8608ZM62.6652 49.2803C62.7492 49.5169 62.6256 49.7768 62.3891 49.8608L63.0588 51.7454C64.3361 51.2915 65.0037 49.888 64.5497 48.6106L62.6652 49.2803ZM52.9103 21.8303L62.6652 49.2803L64.5497 48.6106L54.7949 21.1606L52.9103 21.8303ZM62.1342 20.4954L53.8526 20.4954L53.8526 22.4954L62.1342 22.4954L62.1342 20.4954ZM64.8394 21.3556C64.0484 20.796 63.1032 20.4954 62.1342 20.4954L62.1342 22.4954C62.6895 22.4954 63.231 22.6676 63.6843 22.9883L64.8394 21.3556ZM64.8776 21.3826L64.8394 21.3556L63.6843 22.9883L63.7225 23.0153L64.8776 21.3826ZM66.8182 25.1327C66.8182 23.6418 66.0947 22.2436 64.8776 21.3826L63.7225 23.0153C64.4097 23.5015 64.8182 24.2909 64.8182 25.1327H66.8182ZM66.8182 25.5508V25.1327H64.8182V25.5508H66.8182ZM65.3459 28.5288C66.2738 27.8197 66.8182 26.7186 66.8182 25.5508H64.8182C64.8182 26.0954 64.5643 26.609 64.1316 26.9396L65.3459 28.5288ZM65.1915 28.6467L65.3459 28.5288L64.1316 26.9396L63.9772 27.0576L65.1915 28.6467ZM63.2646 29.2987C63.9611 29.2987 64.6382 29.0696 65.1915 28.6467L63.9772 27.0576C63.7726 27.214 63.5222 27.2987 63.2646 27.2987V29.2987ZM62.0908 29.2987H63.2646V27.2987H62.0908V29.2987ZM62.0909 29.2985L62.0908 29.2987V27.2987C60.9863 27.2987 60.0909 28.1941 60.0909 29.2985H62.0909ZM62.0908 29.2984L62.0909 29.2985H60.0909C60.0909 30.4031 60.9863 31.2984 62.0908 31.2984L62.0908 29.2984ZM63.4694 29.2984L62.0908 29.2984L62.0908 31.2984L63.4694 31.2984L63.4694 29.2984ZM63.989 29.2984L63.4694 29.2984L63.4694 31.2984L63.9889 31.2984L63.989 29.2984ZM66.203 28.3819C65.6156 28.9688 64.8193 29.2984 63.989 29.2984L63.9889 31.2984C65.3494 31.2984 66.6542 30.7583 67.6166 29.7967L66.203 28.3819ZM67.3637 25.5814C67.3637 26.6319 66.9461 27.6394 66.203 28.3819L67.6166 29.7967C68.7352 28.679 69.3637 27.1627 69.3637 25.5814H67.3637ZM67.3637 24.5017L67.3637 25.5814L69.3637 25.5814L69.3637 24.5017L67.3637 24.5017ZM66.4206 21.5208C67.0343 22.3937 67.3637 23.4347 67.3637 24.5017H69.3637C69.3637 23.0229 68.9072 21.5802 68.0567 20.3705L66.4206 21.5208ZM63.0238 19.7567C64.3757 19.7567 65.643 20.4148 66.4206 21.5208L68.0567 20.3705C66.9046 18.7318 65.0269 17.7567 63.0238 17.7567L63.0238 19.7567ZM52.9259 19.7566L63.0238 19.7567L63.0238 17.7567L52.9259 17.7566L52.9259 19.7566ZM53.9259 18.8878V18.7566H51.9259V18.8878H53.9259ZM51.937 19.0914L51.9837 19.2227L53.8682 18.5529L53.8216 18.4217L51.937 19.0914Z" fill="#5ABD32"/>
<path d="M58.1819 18.9092V21.8183" stroke="#5ABD32" stroke-width="2" stroke-linejoin="round"/>
<path d="M28.1907 27.2439L29.8861 33.6121" stroke="#5ABD32" stroke-width="2" stroke-linejoin="round"/>
<circle cx="36" cy="51.2727" r="4.72727" fill="#EAEDF4"/>
<circle cx="36" cy="51.2727" r="4.72727" fill="white" fill-opacity="0.4"/>
<circle cx="36" cy="51.2727" r="4.72727" stroke="#5ABD32" stroke-width="2"/>
<path d="M22.185 17.4671C21.7409 17.3809 21.285 17.5414 20.9928 17.8866C20.7006 18.2318 20.6177 18.708 20.776 19.1317C20.8727 19.3904 20.9399 19.5977 21.0085 19.8092C21.0419 19.9123 21.0757 20.0165 21.1134 20.128C21.2168 20.4344 21.3514 20.8008 21.5806 21.1517L21.5806 21.1518C22.3881 22.388 23.7345 23.2942 25.134 23.7537C26.5293 24.2119 28.178 24.2887 29.5837 23.5861L29.5839 23.586C30.9899 22.8829 32.1439 22.5693 32.9823 22.4237C33.6115 22.3145 33.9967 22.3014 34.3158 22.2905C34.4522 22.2859 34.5765 22.2816 34.7026 22.2705L34.704 22.2704C34.7982 22.262 35.3212 22.2159 35.6662 21.7233C36.1109 21.0885 35.8012 20.4687 35.6928 20.2985C35.5631 20.095 35.4054 19.9704 35.3194 19.9093C35.2169 19.8364 35.1083 19.7783 35.0002 19.7341C32.8603 18.8589 30.6759 18.508 28.5451 18.2642C27.9496 18.196 27.3637 18.1365 26.783 18.0775C25.2411 17.9208 23.7359 17.7679 22.185 17.4671Z" fill="#EAEDF4"/>
<path d="M22.185 17.4671C21.7409 17.3809 21.285 17.5414 20.9928 17.8866C20.7006 18.2318 20.6177 18.708 20.776 19.1317C20.8727 19.3904 20.9399 19.5977 21.0085 19.8092C21.0419 19.9123 21.0757 20.0165 21.1134 20.128C21.2168 20.4344 21.3514 20.8008 21.5806 21.1517L21.5806 21.1518C22.3881 22.388 23.7345 23.2942 25.134 23.7537C26.5293 24.2119 28.178 24.2887 29.5837 23.5861L29.5839 23.586C30.9899 22.8829 32.1439 22.5693 32.9823 22.4237C33.6115 22.3145 33.9967 22.3014 34.3158 22.2905C34.4522 22.2859 34.5765 22.2816 34.7026 22.2705L34.704 22.2704C34.7982 22.262 35.3212 22.2159 35.6662 21.7233C36.1109 21.0885 35.8012 20.4687 35.6928 20.2985C35.5631 20.095 35.4054 19.9704 35.3194 19.9093C35.2169 19.8364 35.1083 19.7783 35.0002 19.7341C32.8603 18.8589 30.6759 18.508 28.5451 18.2642C27.9496 18.196 27.3637 18.1365 26.783 18.0775C25.2411 17.9208 23.7359 17.7679 22.185 17.4671Z" fill="white" fill-opacity="0.4"/>
<path d="M22.185 17.4671C21.7409 17.3809 21.285 17.5414 20.9928 17.8866C20.7006 18.2318 20.6177 18.708 20.776 19.1317C20.8727 19.3904 20.9399 19.5977 21.0085 19.8092C21.0419 19.9123 21.0757 20.0165 21.1134 20.128C21.2168 20.4344 21.3514 20.8008 21.5806 21.1517L21.5806 21.1518C22.3881 22.388 23.7345 23.2942 25.134 23.7537C26.5293 24.2119 28.178 24.2887 29.5837 23.5861L29.5839 23.586C30.9899 22.8829 32.1439 22.5693 32.9823 22.4237C33.6115 22.3145 33.9967 22.3014 34.3158 22.2905C34.4522 22.2859 34.5765 22.2816 34.7026 22.2705L34.704 22.2704C34.7982 22.262 35.3212 22.2159 35.6662 21.7233C36.1109 21.0885 35.8012 20.4687 35.6928 20.2985C35.5631 20.095 35.4054 19.9704 35.3194 19.9093C35.2169 19.8364 35.1083 19.7783 35.0002 19.7341C32.8603 18.8589 30.6759 18.508 28.5451 18.2642C27.9496 18.196 27.3637 18.1365 26.783 18.0775C25.2411 17.9208 23.7359 17.7679 22.185 17.4671Z" stroke="#5ABD32" stroke-width="2.5" stroke-linejoin="round"/>
</svg>
