<svg width="80" height="80" viewBox="0 0 80 80" fill="none" xmlns="http://www.w3.org/2000/svg">
<circle cx="16.7273" cy="48" r="15" stroke="#5ABD32" stroke-width="2"/>
<path d="M25.1818 48C25.1818 52.6693 21.3966 56.4545 16.7272 56.4545C12.0579 56.4545 8.27271 52.6693 8.27271 48C8.27271 43.3306 12.0579 39.5454 16.7272 39.5454C21.3966 39.5454 25.1818 43.3306 25.1818 48Z" stroke="#5ABD32" stroke-width="2"/>
<path d="M71 48C71 52.6693 67.2148 56.4545 62.5455 56.4545C57.8762 56.4545 54.0909 52.6693 54.0909 48C54.0909 43.3306 57.8762 39.5454 62.5455 39.5454C67.2148 39.5454 71 43.3306 71 48Z" stroke="#5ABD32" stroke-width="2"/>
<circle cx="62.5455" cy="48" r="15" stroke="#5ABD32" stroke-width="2"/>
<path fill-rule="evenodd" clip-rule="evenodd" d="M64.4834 47.3532L54.4062 22.0073L59.1329 20.1645L58.0762 17.4541L53.3716 19.2883C53.3623 19.2919 53.353 19.2956 53.3437 19.2993C53.3396 19.301 53.3356 19.3026 53.3315 19.3043L53.3309 19.3028L52.4861 19.6386C51.4597 20.0467 50.9585 21.2096 51.3666 22.236L52.2225 24.3889L30.8316 32.0497L28.2288 25.5032L26.2013 26.3093L28.921 33.1497L15.0144 47.1701C14.6754 47.5119 14.4905 47.9772 14.5025 48.4585C14.5264 49.4169 15.3102 50.1814 16.2689 50.1814H35.6365V47.2723L17.8183 47.7051L30.0619 36.0192L34.2541 46.5635L36.2816 45.7574L31.907 34.7545L53.2979 27.0937L53.8069 28.3741L37.091 44.4464L39.372 46.2518L54.8413 30.9756L61.7801 48.428C62.0769 49.1745 62.9226 49.539 63.6691 49.2422C64.4156 48.9454 64.7802 48.0997 64.4834 47.3532Z" fill="#EAEDF4"/>
<path fill-rule="evenodd" clip-rule="evenodd" d="M64.4834 47.3532L54.4062 22.0073L59.1329 20.1645L58.0762 17.4541L53.3716 19.2883C53.3623 19.2919 53.353 19.2956 53.3437 19.2993C53.3396 19.301 53.3356 19.3026 53.3315 19.3043L53.3309 19.3028L52.4861 19.6386C51.4597 20.0467 50.9585 21.2096 51.3666 22.236L52.2225 24.3889L30.8316 32.0497L28.2288 25.5032L26.2013 26.3093L28.921 33.1497L15.0144 47.1701C14.6754 47.5119 14.4905 47.9772 14.5025 48.4585C14.5264 49.4169 15.3102 50.1814 16.2689 50.1814H35.6365V47.2723L17.8183 47.7051L30.0619 36.0192L34.2541 46.5635L36.2816 45.7574L31.907 34.7545L53.2979 27.0937L53.8069 28.3741L37.091 44.4464L39.372 46.2518L54.8413 30.9756L61.7801 48.428C62.0769 49.1745 62.9226 49.539 63.6691 49.2422C64.4156 48.9454 64.7802 48.0997 64.4834 47.3532Z" fill="white" fill-opacity="0.4"/>
<path d="M54.4062 22.0073L54.043 21.0756C53.7948 21.1724 53.5955 21.3641 53.4892 21.6084C53.3829 21.8527 53.3785 22.1292 53.4769 22.3767L54.4062 22.0073ZM64.4834 47.3532L65.4126 46.9838L65.4126 46.9838L64.4834 47.3532ZM59.1329 20.1645L59.4962 21.0962C59.7433 20.9998 59.942 20.8093 60.0486 20.5665C60.1552 20.3236 60.161 20.0484 60.0646 19.8013L59.1329 20.1645ZM58.0762 17.4541L59.0079 17.0909C58.8073 16.5763 58.2276 16.3218 57.713 16.5224L58.0762 17.4541ZM53.3716 19.2883L53.7348 20.22L53.7349 20.22L53.3716 19.2883ZM53.3437 19.2993L53.7163 20.2273L53.7164 20.2273L53.3437 19.2993ZM53.3315 19.3043L52.4027 19.6747C52.5013 19.9221 52.6947 20.12 52.9398 20.2243C53.1848 20.3287 53.4614 20.3309 53.7082 20.2306L53.3315 19.3043ZM53.3309 19.3028L54.2598 18.9323C54.0553 18.4197 53.4743 18.1696 52.9615 18.3735L53.3309 19.3028ZM52.4861 19.6386L52.1167 18.7094L52.1167 18.7094L52.4861 19.6386ZM51.3666 22.236L50.4373 22.6055L50.4373 22.6055L51.3666 22.236ZM52.2225 24.3889L52.5596 25.3303C52.815 25.2389 53.0222 25.0477 53.1338 24.8005C53.2455 24.5533 53.2519 24.2714 53.1517 24.0194L52.2225 24.3889ZM30.8316 32.0497L29.9023 32.4191C30.1014 32.9198 30.6614 33.1728 31.1687 32.9911L30.8316 32.0497ZM28.2288 25.5032L29.158 25.1337C29.0601 24.8873 28.8682 24.6899 28.6246 24.5849C28.3811 24.4799 28.1058 24.476 27.8593 24.5739L28.2288 25.5032ZM26.2013 26.3093L25.8319 25.38C25.3187 25.5841 25.068 26.1655 25.2721 26.6787L26.2013 26.3093ZM28.921 33.1497L29.631 33.8539C29.9111 33.5715 29.9972 33.1499 29.8502 32.7802L28.921 33.1497ZM15.0144 47.1701L15.7244 47.8743L15.7244 47.8743L15.0144 47.1701ZM14.5025 48.4585L13.5028 48.4835L13.5028 48.4835L14.5025 48.4585ZM35.6365 50.1814V51.1814C36.1887 51.1814 36.6365 50.7337 36.6365 50.1814H35.6365ZM35.6365 47.2723H36.6365C36.6365 47.0029 36.5277 46.7448 36.3349 46.5566C36.1421 46.3685 35.8815 46.266 35.6122 46.2726L35.6365 47.2723ZM17.8183 47.7051L17.1278 46.9817C16.829 47.267 16.7363 47.7066 16.8946 48.0883C17.0529 48.4699 17.4295 48.7149 17.8425 48.7048L17.8183 47.7051ZM30.0619 36.0192L30.9911 35.6498C30.8683 35.3409 30.6001 35.1132 30.2754 35.0423C29.9506 34.9713 29.6119 35.0663 29.3714 35.2958L30.0619 36.0192ZM34.2541 46.5635L33.3249 46.933C33.4229 47.1794 33.6147 47.3768 33.8583 47.4818C34.1019 47.5868 34.3771 47.5907 34.6236 47.4927L34.2541 46.5635ZM36.2816 45.7574L36.651 46.6867C37.1642 46.4826 37.4149 45.9012 37.2108 45.388L36.2816 45.7574ZM31.907 34.7545L31.5698 33.8131C31.3145 33.9045 31.1073 34.0958 30.9956 34.3429C30.884 34.5901 30.8775 34.872 30.9777 35.124L31.907 34.7545ZM53.2979 27.0937L54.2272 26.7243C54.0281 26.2236 53.468 25.9706 52.9607 26.1523L53.2979 27.0937ZM53.8069 28.3741L54.5 29.0949C54.793 28.8132 54.8863 28.3823 54.7362 28.0046L53.8069 28.3741ZM37.091 44.4464L36.3979 43.7255C36.1897 43.9257 36.0783 44.206 36.0922 44.4945C36.106 44.7829 36.2439 45.0513 36.4704 45.2305L37.091 44.4464ZM39.372 46.2518L38.7514 47.0359C39.1475 47.3495 39.7152 47.3183 40.0747 46.9634L39.372 46.2518ZM54.8413 30.9756L55.7705 30.6062C55.6466 30.2945 55.3747 30.0657 55.0464 29.9969C54.7182 29.9281 54.3773 30.0284 54.1386 30.2641L54.8413 30.9756ZM61.7801 48.428L62.7094 48.0585L62.7094 48.0585L61.7801 48.428ZM53.4769 22.3767L63.5541 47.7227L65.4126 46.9838L55.3354 21.6378L53.4769 22.3767ZM58.7697 19.2328L54.043 21.0756L54.7694 22.939L59.4962 21.0962L58.7697 19.2328ZM57.1445 17.8173L58.2012 20.5277L60.0646 19.8013L59.0079 17.0909L57.1445 17.8173ZM53.7349 20.22L58.4395 18.3858L57.713 16.5224L53.0084 18.3566L53.7349 20.22ZM53.7164 20.2273C53.7225 20.2248 53.7287 20.2224 53.7348 20.22L53.0084 18.3566C52.9959 18.3614 52.9835 18.3664 52.971 18.3714L53.7164 20.2273ZM53.7082 20.2306C53.711 20.2295 53.7137 20.2284 53.7163 20.2273L52.9711 18.3713C52.9656 18.3735 52.9602 18.3757 52.9548 18.3779L53.7082 20.2306ZM52.4021 19.6732L52.4027 19.6747L54.2603 18.9338L54.2598 18.9323L52.4021 19.6732ZM52.8556 20.5679L53.7004 20.232L52.9615 18.3735L52.1167 18.7094L52.8556 20.5679ZM52.2958 21.8666C52.0918 21.3534 52.3424 20.7719 52.8556 20.5679L52.1167 18.7094C50.5771 19.3215 49.8252 21.0659 50.4373 22.6055L52.2958 21.8666ZM53.1517 24.0194L52.2958 21.8666L50.4373 22.6055L51.2932 24.7583L53.1517 24.0194ZM31.1687 32.9911L52.5596 25.3303L51.8853 23.4474L30.4944 31.1082L31.1687 32.9911ZM27.2995 25.8726L29.9023 32.4191L31.7608 31.6802L29.158 25.1337L27.2995 25.8726ZM26.5708 27.2385L28.5982 26.4324L27.8593 24.5739L25.8319 25.38L26.5708 27.2385ZM29.8502 32.7802L27.1306 25.9398L25.2721 26.6787L27.9917 33.5192L29.8502 32.7802ZM28.211 32.4455L14.3044 46.4658L15.7244 47.8743L29.631 33.8539L28.211 32.4455ZM14.3044 46.4658C13.7735 47.0011 13.484 47.7298 13.5028 48.4835L15.5022 48.4335C15.497 48.2246 15.5772 48.0226 15.7244 47.8743L14.3044 46.4658ZM13.5028 48.4835C13.5403 49.9842 14.7677 51.1814 16.2689 51.1814V49.1814C15.8528 49.1814 15.5126 48.8495 15.5022 48.4335L13.5028 48.4835ZM16.2689 51.1814H35.6365V49.1814H16.2689V51.1814ZM36.6365 50.1814V47.2723H34.6365V50.1814H36.6365ZM35.6122 46.2726L17.794 46.7054L17.8425 48.7048L35.6607 48.272L35.6122 46.2726ZM18.5087 48.4285L30.7523 36.7426L29.3714 35.2958L17.1278 46.9817L18.5087 48.4285ZM35.1834 46.194L30.9911 35.6498L29.1326 36.3887L33.3249 46.933L35.1834 46.194ZM35.9121 44.8282L33.8847 45.6342L34.6236 47.4927L36.651 46.6867L35.9121 44.8282ZM30.9777 35.124L35.3523 46.1269L37.2108 45.388L32.8362 34.3851L30.9777 35.124ZM52.9607 26.1523L31.5698 33.8131L32.2442 35.696L53.6351 28.0352L52.9607 26.1523ZM54.7362 28.0046L54.2272 26.7243L52.3687 27.4632L52.8777 28.7435L54.7362 28.0046ZM37.7841 45.1672L54.5 29.0949L53.1139 27.6532L36.3979 43.7255L37.7841 45.1672ZM39.9927 45.4677L37.7116 43.6623L36.4704 45.2305L38.7514 47.0359L39.9927 45.4677ZM54.1386 30.2641L38.6694 45.5403L40.0747 46.9634L55.5439 31.6871L54.1386 30.2641ZM62.7094 48.0585L55.7705 30.6062L53.912 31.3451L60.8509 48.7974L62.7094 48.0585ZM63.2997 48.313C63.0664 48.4057 62.8021 48.2918 62.7094 48.0585L60.8509 48.7974C61.3517 50.0571 62.7789 50.6723 64.0386 50.1715L63.2997 48.313ZM63.5541 47.7227C63.6469 47.9559 63.5329 48.2202 63.2997 48.313L64.0386 50.1715C65.2983 49.6706 65.9135 48.2434 65.4126 46.9838L63.5541 47.7227Z" fill="#5ABD32"/>
<path d="M26.1819 26.1816L34.2541 46.5638" stroke="#5ABD32" stroke-width="2" stroke-linejoin="round"/>
<ellipse cx="58.1818" cy="18.9089" rx="2.18182" ry="2.18182" fill="#EAEDF4"/>
<ellipse cx="58.1818" cy="18.9089" rx="2.18182" ry="2.18182" fill="white" fill-opacity="0.4"/>
<ellipse cx="58.1818" cy="18.9089" rx="2.18182" ry="2.18182" stroke="#5ABD32" stroke-width="2" stroke-linejoin="round"/>
<ellipse cx="36" cy="48.3635" rx="4.72727" ry="4.72727" fill="#EAEDF4"/>
<ellipse cx="36" cy="48.3635" rx="4.72727" ry="4.72727" fill="white" fill-opacity="0.4"/>
<ellipse cx="36" cy="48.3635" rx="4.72727" ry="4.72727" stroke="#5ABD32" stroke-width="2"/>
<path d="M19.7371 22.3922C19.295 22.4876 18.939 22.8145 18.8061 23.2468C18.6733 23.6792 18.7843 24.1496 19.0965 24.4769C19.2872 24.6767 19.4306 24.8408 19.5768 25.0083C19.6481 25.0899 19.7201 25.1724 19.7987 25.2602C20.0143 25.5011 20.2821 25.785 20.6308 26.0175L20.631 26.0176C21.8596 26.8365 23.4539 27.1401 24.9213 27.012C26.3843 26.8844 27.9304 26.3065 28.9464 25.1076L28.9465 25.1074C29.9627 23.908 30.9002 23.1657 31.6138 22.7021C32.1493 22.3541 32.4983 22.1906 32.7874 22.0551C32.9109 21.9971 33.0236 21.9444 33.1351 21.8845L33.1363 21.8838C33.2197 21.8391 33.6823 21.591 33.8058 21.0024C33.9649 20.2438 33.4364 19.7958 33.2698 19.682C33.0706 19.5459 32.8766 19.4934 32.7734 19.471C32.6505 19.4443 32.5278 19.4336 32.411 19.4355C30.0993 19.4726 27.9531 20.0093 25.8981 20.6232C25.3238 20.7948 24.7617 20.9705 24.2047 21.1447C22.7254 21.6072 21.2814 22.0587 19.7371 22.3922Z" stroke="#5ABD32" stroke-width="2.5" stroke-linejoin="round"/>
</svg>
