<svg width="80" height="80" viewBox="0 0 80 80" fill="none" xmlns="http://www.w3.org/2000/svg">
<circle cx="15.2728" cy="50.182" r="12.8182" stroke="#5ABD32" stroke-width="2"/>
<circle cx="15.2728" cy="50.1818" r="9.18182" stroke="#5ABD32" stroke-width="2"/>
<path d="M71.7273 50.1818C71.7273 55.2528 67.6164 59.3636 62.5455 59.3636C57.4745 59.3636 53.3636 55.2528 53.3636 50.1818C53.3636 45.1108 57.4745 41 62.5455 41C67.6164 41 71.7273 45.1108 71.7273 50.1818Z" stroke="#5ABD32" stroke-width="2"/>
<path d="M75.3637 50.182C75.3637 57.2612 69.6248 63.0001 62.5455 63.0001C55.4662 63.0001 49.7273 57.2612 49.7273 50.182C49.7273 43.1027 55.4662 37.3638 62.5455 37.3638C69.6248 37.3638 75.3637 43.1027 75.3637 50.182Z" stroke="#5ABD32" stroke-width="2"/>
<path fill-rule="evenodd" clip-rule="evenodd" d="M46.6257 21.8812C46.1221 20.8981 46.5108 19.693 47.4939 19.1894L48.303 18.7749L64.0495 49.5151C64.4157 50.23 64.133 51.1065 63.4181 51.4728C62.7031 51.839 61.8266 51.5563 61.4603 50.8413L51.8771 32.133L49.3126 34.7497C47.6779 36.4178 46.3348 38.3485 45.3395 40.4613C44.1288 43.0316 42.4057 45.3275 40.2761 47.2081L36.0993 50.8965L33.8183 49.0911L38.421 45.116C40.6636 43.1792 42.5005 40.8174 43.8257 38.167C44.9046 36.0092 46.3243 34.0395 48.0302 32.3336L50.642 29.7219L50.0131 28.4942L46.7668 30.8065C45.6541 31.599 44.6458 32.5288 43.7659 33.5737C40.9825 36.8789 36.6565 38.4622 32.3971 37.7346L32.3638 37.7289L32.3638 47.0415L33.091 47.6365L29.8202 48.7267L29.8183 48.7276V48.7274L29.8183 48.7274L25.091 44.7273L17.8182 49.4547H30.9092L30.9092 52L16.5633 51.9999C14.064 51.9999 13.1115 48.7373 15.2183 47.3926L25.091 41.0909L29.8183 44.9588L29.8183 34.9092L27.3493 31.3788L29.3768 30.5727L32.3638 34.9091L32.3638 35.1392C36.2962 35.5249 40.2017 33.9545 42.7729 30.8875C43.6245 29.8717 44.5985 28.9652 45.6728 28.1886L48.726 25.9814L46.6257 21.8812Z" fill="#EAEDF4"/>
<path fill-rule="evenodd" clip-rule="evenodd" d="M46.6257 21.8812C46.1221 20.8981 46.5108 19.693 47.4939 19.1894L48.303 18.7749L64.0495 49.5151C64.4157 50.23 64.133 51.1065 63.4181 51.4728C62.7031 51.839 61.8266 51.5563 61.4603 50.8413L51.8771 32.133L49.3126 34.7497C47.6779 36.4178 46.3348 38.3485 45.3395 40.4613C44.1288 43.0316 42.4057 45.3275 40.2761 47.2081L36.0993 50.8965L33.8183 49.0911L38.421 45.116C40.6636 43.1792 42.5005 40.8174 43.8257 38.167C44.9046 36.0092 46.3243 34.0395 48.0302 32.3336L50.642 29.7219L50.0131 28.4942L46.7668 30.8065C45.6541 31.599 44.6458 32.5288 43.7659 33.5737C40.9825 36.8789 36.6565 38.4622 32.3971 37.7346L32.3638 37.7289L32.3638 47.0415L33.091 47.6365L29.8202 48.7267L29.8183 48.7276V48.7274L29.8183 48.7274L25.091 44.7273L17.8182 49.4547H30.9092L30.9092 52L16.5633 51.9999C14.064 51.9999 13.1115 48.7373 15.2183 47.3926L25.091 41.0909L29.8183 44.9588L29.8183 34.9092L27.3493 31.3788L29.3768 30.5727L32.3638 34.9091L32.3638 35.1392C36.2962 35.5249 40.2017 33.9545 42.7729 30.8875C43.6245 29.8717 44.5985 28.9652 45.6728 28.1886L48.726 25.9814L46.6257 21.8812Z" fill="white" fill-opacity="0.4"/>
<path d="M47.4939 19.1894L47.9498 20.0794L47.9498 20.0794L47.4939 19.1894ZM46.6257 21.8812L47.5157 21.4253L47.5157 21.4253L46.6257 21.8812ZM48.303 18.7749L49.193 18.319C49.0721 18.0829 48.8624 17.9046 48.61 17.8232C48.3576 17.7418 48.0831 17.764 47.8471 17.8849L48.303 18.7749ZM64.0495 49.5151L63.1595 49.971L63.1595 49.971L64.0495 49.5151ZM63.4181 51.4728L63.874 52.3628L63.874 52.3628L63.4181 51.4728ZM61.4603 50.8413L60.5703 51.2973L60.5703 51.2973L61.4603 50.8413ZM51.8771 32.133L52.7671 31.6771C52.6205 31.391 52.3453 31.1927 52.0275 31.1444C51.7096 31.096 51.3879 31.2035 51.1629 31.4331L51.8771 32.133ZM49.3126 34.7497L50.0268 35.4497L50.0268 35.4497L49.3126 34.7497ZM45.3395 40.4613L44.4349 40.0352L44.4349 40.0352L45.3395 40.4613ZM40.2761 47.2081L40.938 47.9577L40.938 47.9577L40.2761 47.2081ZM36.0993 50.8965L35.4787 51.6806C35.8583 51.981 36.3985 51.9665 36.7613 51.6461L36.0993 50.8965ZM33.8183 49.0911L33.1647 48.3342C32.9391 48.5291 32.8122 48.8144 32.8185 49.1125C32.8249 49.4105 32.9639 49.6901 33.1977 49.8752L33.8183 49.0911ZM38.421 45.116L37.7673 44.3592L37.7673 44.3592L38.421 45.116ZM43.8257 38.167L42.9313 37.7198L42.9313 37.7198L43.8257 38.167ZM48.0302 32.3336L48.7373 33.0408L48.7373 33.0408L48.0302 32.3336ZM50.642 29.7219L51.3491 30.429C51.656 30.1221 51.7299 29.6523 51.532 29.266L50.642 29.7219ZM50.0131 28.4942L50.9032 28.0383C50.7707 27.7798 50.5324 27.5916 50.2501 27.5227C49.9679 27.4539 49.6696 27.5112 49.433 27.6797L50.0131 28.4942ZM46.7668 30.8065L46.1866 29.992L46.1866 29.992L46.7668 30.8065ZM43.7659 33.5737L43.001 32.9295L43.001 32.9295L43.7659 33.5737ZM32.3971 37.7346L32.2287 38.7203L32.2287 38.7203L32.3971 37.7346ZM32.3638 37.7289L32.5322 36.7432C32.2417 36.6936 31.9442 36.7746 31.7189 36.9646C31.4937 37.1546 31.3638 37.4343 31.3638 37.7289L32.3638 37.7289ZM32.3638 47.0415L31.3638 47.0415C31.3638 47.3414 31.4984 47.6255 31.7306 47.8154L32.3638 47.0415ZM33.091 47.6365L33.4072 48.5852C33.7529 48.4699 34.0085 48.1758 34.0745 47.8175C34.1404 47.4591 34.0063 47.0933 33.7242 46.8625L33.091 47.6365ZM29.8202 48.7267L29.504 47.7781C29.4778 47.7868 29.452 47.7966 29.4266 47.8075L29.8202 48.7267ZM29.8183 48.7276H28.8183C28.8183 49.0636 28.9871 49.3772 29.2677 49.5623C29.5482 49.7473 29.903 49.7791 30.2119 49.6468L29.8183 48.7276ZM29.8183 48.7274H30.8183C30.8183 48.407 30.6648 48.106 30.4055 47.9179C30.1462 47.7298 29.8125 47.6773 29.5079 47.7768L29.8183 48.7274ZM29.8183 48.7274L29.1723 49.4908C29.4371 49.7148 29.799 49.7856 30.1287 49.678L29.8183 48.7274ZM25.091 44.7273L25.737 43.9639C25.4 43.6788 24.9161 43.6483 24.546 43.8888L25.091 44.7273ZM17.8182 49.4547L17.2733 48.6162C16.902 48.8576 16.7336 49.3143 16.8595 49.7389C16.9853 50.1634 17.3754 50.4547 17.8182 50.4547V49.4547ZM30.9092 49.4547L31.9092 49.4547C31.9092 49.1894 31.8038 48.9351 31.6163 48.7476C31.4287 48.56 31.1744 48.4547 30.9092 48.4547V49.4547ZM30.9092 52L30.9092 53C31.4614 53 31.9092 52.5523 31.9092 52L30.9092 52ZM16.5633 51.9999L16.5633 50.9999L16.5633 50.9999L16.5633 51.9999ZM15.2183 47.3926L14.6802 46.5497L14.6802 46.5497L15.2183 47.3926ZM25.091 41.0909L25.7242 40.317C25.3898 40.0433 24.9173 40.0154 24.553 40.248L25.091 41.0909ZM29.8183 44.9588L29.1851 45.7327C29.4841 45.9774 29.8974 46.0279 30.2465 45.8625C30.5957 45.697 30.8183 45.3452 30.8183 44.9588L29.8183 44.9588ZM29.8183 34.9092L30.8183 34.9092C30.8183 34.7041 30.7553 34.5041 30.6378 34.3361L29.8183 34.9092ZM27.3493 31.3788L26.9798 30.4496C26.6958 30.5625 26.4791 30.7991 26.3914 31.0919C26.3037 31.3846 26.3547 31.7015 26.5298 31.9519L27.3493 31.3788ZM29.3768 30.5727L30.2003 30.0054C29.9357 29.6213 29.4407 29.4711 29.0073 29.6435L29.3768 30.5727ZM32.3638 34.9091L33.3638 34.9091C33.3638 34.7065 33.3022 34.5087 33.1873 34.3419L32.3638 34.9091ZM32.3638 35.1392L31.3638 35.1392C31.3638 35.6536 31.7541 36.0842 32.2662 36.1344L32.3638 35.1392ZM42.7729 30.8875L42.0066 30.2451L42.0066 30.2451L42.7729 30.8875ZM45.6728 28.1886L45.0869 27.3782L45.0869 27.3782L45.6728 28.1886ZM48.726 25.9814L49.3118 26.7919C49.7119 26.5027 49.841 25.9649 49.616 25.5255L48.726 25.9814ZM47.038 18.2993C45.5633 19.0547 44.9803 20.8625 45.7356 22.3372L47.5157 21.4253C47.2639 20.9338 47.4583 20.3312 47.9498 20.0794L47.038 18.2993ZM47.8471 17.8849L47.038 18.2993L47.9498 20.0794L48.7589 19.6649L47.8471 17.8849ZM64.9395 49.0592L49.193 18.319L47.413 19.2308L63.1595 49.971L64.9395 49.0592ZM63.874 52.3628C65.0805 51.7448 65.5576 50.2657 64.9395 49.0591L63.1595 49.971C63.2739 50.1944 63.1856 50.4683 62.9621 50.5828L63.874 52.3628ZM60.5703 51.2973C61.1883 52.5038 62.6674 52.9808 63.874 52.3628L62.9621 50.5828C62.7387 50.6972 62.4648 50.6089 62.3504 50.3854L60.5703 51.2973ZM50.9871 32.5889L60.5703 51.2973L62.3504 50.3854L52.7671 31.6771L50.9871 32.5889ZM50.0268 35.4497L52.5913 32.833L51.1629 31.4331L48.5984 34.0498L50.0268 35.4497ZM46.2442 40.8875C47.1918 38.8759 48.4704 37.0378 50.0268 35.4497L48.5984 34.0498C46.8853 35.7978 45.4779 37.8211 44.4349 40.0352L46.2442 40.8875ZM40.938 47.9577C43.1697 45.9869 44.9754 43.581 46.2442 40.8875L44.4349 40.0352C43.2822 42.4822 41.6417 44.6681 39.6141 46.4586L40.938 47.9577ZM36.7613 51.6461L40.938 47.9577L39.6141 46.4586L35.4374 50.1469L36.7613 51.6461ZM33.1977 49.8752L35.4787 51.6806L36.72 50.1124L34.4389 48.3069L33.1977 49.8752ZM37.7673 44.3592L33.1647 48.3342L34.4719 49.8479L39.0746 45.8728L37.7673 44.3592ZM42.9313 37.7198C41.6652 40.2521 39.9101 42.5086 37.7673 44.3592L39.0746 45.8728C41.4172 43.8497 43.3359 41.3827 44.7202 38.6142L42.9313 37.7198ZM47.3231 31.6265C45.5412 33.4084 44.0583 35.4659 42.9313 37.7198L44.7202 38.6142C45.751 36.5526 47.1074 34.6706 48.7373 33.0408L47.3231 31.6265ZM49.9349 29.0148L47.3231 31.6265L48.7373 33.0408L51.3491 30.429L49.9349 29.0148ZM49.1231 28.9502L49.752 30.1778L51.532 29.266L50.9032 28.0383L49.1231 28.9502ZM47.3469 31.621L50.5933 29.3088L49.433 27.6797L46.1866 29.992L47.3469 31.621ZM44.5308 34.2178C45.3566 33.2372 46.3027 32.3648 47.3469 31.621L46.1866 29.992C45.0054 30.8333 43.9351 31.8203 43.001 32.9295L44.5308 34.2178ZM32.2287 38.7203C36.8378 39.5077 41.519 37.7944 44.5308 34.2178L43.001 32.9295C40.4461 35.9634 36.4752 37.4168 32.5655 36.7489L32.2287 38.7203ZM32.1954 38.7146L32.2287 38.7203L32.5655 36.7489L32.5322 36.7432L32.1954 38.7146ZM33.3638 47.0415L33.3638 37.7289L31.3638 37.7289L31.3638 47.0415L33.3638 47.0415ZM31.7306 47.8154L32.4578 48.4104L33.7242 46.8625L32.997 46.2675L31.7306 47.8154ZM32.7748 46.6878L29.504 47.7781L30.1364 49.6754L33.4072 48.5852L32.7748 46.6878ZM30.2119 49.6468L30.2138 49.646L29.4266 47.8075L29.4247 47.8083L30.2119 49.6468ZM28.8183 48.7274V48.7276H30.8183V48.7274H28.8183ZM29.5079 47.7768L29.5079 47.7768L30.1287 49.678L30.1287 49.678L29.5079 47.7768ZM30.4642 47.964L25.737 43.9639L24.4451 45.4906L29.1723 49.4908L30.4642 47.964ZM24.546 43.8888L17.2733 48.6162L18.3632 50.2931L25.636 45.5657L24.546 43.8888ZM17.8182 50.4547H30.9092V48.4547H17.8182V50.4547ZM29.9092 49.4547L29.9092 52L31.9092 52L31.9092 49.4547L29.9092 49.4547ZM30.9092 51L16.5633 50.9999L16.5633 52.9999L30.9092 53L30.9092 51ZM16.5633 50.9999C15.0637 50.9999 14.4922 49.0424 15.7563 48.2355L14.6802 46.5497C11.7308 48.4323 13.0643 52.9999 16.5633 52.9999L16.5633 50.9999ZM15.7563 48.2355L25.629 41.9338L24.553 40.248L14.6802 46.5497L15.7563 48.2355ZM24.4578 41.8649L29.1851 45.7327L30.4516 44.1848L25.7242 40.317L24.4578 41.8649ZM28.8183 34.9092L28.8183 44.9588L30.8183 44.9588L30.8183 34.9092L28.8183 34.9092ZM26.5298 31.9519L28.9988 35.4823L30.6378 34.3361L28.1688 30.8057L26.5298 31.9519ZM29.0073 29.6435L26.9798 30.4496L27.7188 32.3081L29.7462 31.502L29.0073 29.6435ZM33.1873 34.3419L30.2003 30.0054L28.5532 31.14L31.5402 35.4764L33.1873 34.3419ZM33.3638 35.1391L33.3638 34.9091L31.3638 34.9091L31.3638 35.1392L33.3638 35.1391ZM42.0066 30.2451C39.6488 33.0575 36.0673 34.4976 32.4614 34.1439L32.2662 36.1344C36.525 36.5521 40.7545 34.8516 43.5392 31.53L42.0066 30.2451ZM45.0869 27.3782C43.9458 28.2031 42.9112 29.166 42.0066 30.2451L43.5392 31.53C44.3378 30.5774 45.2512 29.7273 46.2586 28.999L45.0869 27.3782ZM48.1401 25.171L45.0869 27.3782L46.2586 28.999L49.3118 26.7919L48.1401 25.171ZM45.7356 22.3372L47.8359 26.4374L49.616 25.5255L47.5157 21.4253L45.7356 22.3372Z" fill="#5ABD32"/>
<path d="M48.5325 21.5037C47.8368 21.9053 46.9472 21.667 46.5456 20.9713V20.9713C46.1439 20.2756 46.3823 19.386 47.078 18.9843L50.0161 17.288C50.7118 16.8863 51.6014 17.1247 52.003 17.8204V17.8204C52.4047 18.5161 52.1663 19.4057 51.4706 19.8073L48.5325 21.5037Z" fill="#EAEDF4"/>
<path d="M48.5325 21.5037C47.8368 21.9053 46.9472 21.667 46.5456 20.9713V20.9713C46.1439 20.2756 46.3823 19.386 47.078 18.9843L50.0161 17.288C50.7118 16.8863 51.6014 17.1247 52.003 17.8204V17.8204C52.4047 18.5161 52.1663 19.4057 51.4706 19.8073L48.5325 21.5037Z" fill="white" fill-opacity="0.4"/>
<path d="M48.5325 21.5037C47.8368 21.9053 46.9472 21.667 46.5456 20.9713V20.9713C46.1439 20.2756 46.3823 19.386 47.078 18.9843L50.0161 17.288C50.7118 16.8863 51.6014 17.1247 52.003 17.8204V17.8204C52.4047 18.5161 52.1663 19.4057 51.4706 19.8073L48.5325 21.5037Z" stroke="#5ABD32" stroke-width="2" stroke-linejoin="round"/>
<ellipse cx="52.3637" cy="17.4548" rx="2.18182" ry="2.18182" fill="#EAEDF4"/>
<ellipse cx="52.3637" cy="17.4548" rx="2.18182" ry="2.18182" fill="white" fill-opacity="0.4"/>
<ellipse cx="52.3637" cy="17.4548" rx="2.18182" ry="2.18182" stroke="#5ABD32" stroke-width="2" stroke-linejoin="round"/>
<ellipse cx="33.8182" cy="49.8186" rx="4.72727" ry="4.72727" fill="#EAEDF4"/>
<ellipse cx="33.8182" cy="49.8186" rx="4.72727" ry="4.72727" fill="white" fill-opacity="0.4"/>
<ellipse cx="33.8182" cy="49.8186" rx="4.72727" ry="4.72727" stroke="#5ABD32" stroke-width="2"/>
<path d="M21.5544 27.1632C21.1123 27.2586 20.7562 27.5855 20.6234 28.0178C20.4905 28.4502 20.6016 28.9206 20.9138 29.2478C21.1045 29.4477 21.2478 29.6118 21.3941 29.7793C21.4654 29.8609 21.5374 29.9434 21.6159 30.0312C21.8315 30.2721 22.0994 30.556 22.4481 30.7885L22.4482 30.7886C23.6769 31.6075 25.2712 31.9111 26.7386 31.783C28.2016 31.6554 29.7477 31.0775 30.7637 29.8786L30.7638 29.8784C31.7799 28.679 32.7175 27.9367 33.431 27.4731C33.9665 27.1251 34.3155 26.9616 34.6046 26.826C34.7282 26.7681 34.8408 26.7153 34.9524 26.6555L34.9536 26.6548C35.0369 26.6101 35.4996 26.3619 35.6231 25.7733C35.7822 25.0148 35.2537 24.5668 35.0871 24.453C34.8878 24.3169 34.6938 24.2644 34.5907 24.242C34.4678 24.2153 34.3451 24.2046 34.2283 24.2065C31.9166 24.2436 29.7703 24.7803 27.7153 25.3942C27.141 25.5658 26.579 25.7415 26.0219 25.9157C24.5427 26.3782 23.0986 26.8297 21.5544 27.1632Z" stroke="#5ABD32" stroke-width="2.5" stroke-linejoin="round"/>
</svg>
