<svg width="80" height="80" viewBox="0 0 80 80" fill="none" xmlns="http://www.w3.org/2000/svg">
<circle cx="15.2728" cy="50.1815" r="12.8182" stroke="#5ABD32" stroke-width="2"/>
<circle cx="15.2729" cy="50.1813" r="9.18182" stroke="#5ABD32" stroke-width="2"/>
<circle cx="56.0002" cy="50.1813" r="9.18182" stroke="#5ABD32" stroke-width="2"/>
<circle cx="56.0001" cy="50.1815" r="12.8182" stroke="#5ABD32" stroke-width="2"/>
<path fill-rule="evenodd" clip-rule="evenodd" d="M49.7041 24.7055C50.3886 24.5872 50.9092 23.9905 50.9092 23.2723V18.9086C50.9092 18.1053 50.258 17.4541 49.4547 17.4541C48.6513 17.4541 48.0001 18.1053 48.0001 18.9086V22.4628C47.9439 22.4864 47.8885 22.5138 47.8343 22.545L44.8962 24.2414C44.4962 24.4723 44.2474 24.8645 44.1845 25.2884C44.0241 25.7428 44.0265 26.2562 44.2295 26.7348L44.8566 28.2128C42.9387 29.0389 40.9556 32.1448 38.8673 35.4154C36.2625 39.4949 33.4941 43.8305 30.4848 44.3179L24.8431 28.0382L22.8157 28.8443L29.8183 48.727L31.6216 47.5984L31.2521 46.532C34.8522 46.2587 37.6995 41.7254 40.2996 37.5857C42.2647 34.457 44.0885 31.5531 45.9894 30.8829L46.6412 32.419C45.4924 32.8722 43.8063 36.0302 41.9501 39.507C39.4967 44.1021 36.7461 49.2541 34.5456 49.4542C33.0911 49.8177 35.1077 50.8832 36.0994 50.896C38.5051 50.896 41.1739 45.8079 43.5003 41.3726L43.5003 41.3726C45.1526 38.2225 46.6321 35.4017 47.7221 34.9667L54.6777 51.3609C54.9915 52.1004 55.8453 52.4455 56.5849 52.1318C57.3244 51.818 57.6695 50.9642 57.3558 50.2247L47.194 26.2739L49.2889 25.0644C49.4538 24.9692 49.593 24.8465 49.7041 24.7055Z" fill="#EAEDF4"/>
<path fill-rule="evenodd" clip-rule="evenodd" d="M49.7041 24.7055C50.3886 24.5872 50.9092 23.9905 50.9092 23.2723V18.9086C50.9092 18.1053 50.258 17.4541 49.4547 17.4541C48.6513 17.4541 48.0001 18.1053 48.0001 18.9086V22.4628C47.9439 22.4864 47.8885 22.5138 47.8343 22.545L44.8962 24.2414C44.4962 24.4723 44.2474 24.8645 44.1845 25.2884C44.0241 25.7428 44.0265 26.2562 44.2295 26.7348L44.8566 28.2128C42.9387 29.0389 40.9556 32.1448 38.8673 35.4154C36.2625 39.4949 33.4941 43.8305 30.4848 44.3179L24.8431 28.0382L22.8157 28.8443L29.8183 48.727L31.6216 47.5984L31.2521 46.532C34.8522 46.2587 37.6995 41.7254 40.2996 37.5857C42.2647 34.457 44.0885 31.5531 45.9894 30.8829L46.6412 32.419C45.4924 32.8722 43.8063 36.0302 41.9501 39.507C39.4967 44.1021 36.7461 49.2541 34.5456 49.4542C33.0911 49.8177 35.1077 50.8832 36.0994 50.896C38.5051 50.896 41.1739 45.8079 43.5003 41.3726L43.5003 41.3726C45.1526 38.2225 46.6321 35.4017 47.7221 34.9667L54.6777 51.3609C54.9915 52.1004 55.8453 52.4455 56.5849 52.1318C57.3244 51.818 57.6695 50.9642 57.3558 50.2247L47.194 26.2739L49.2889 25.0644C49.4538 24.9692 49.593 24.8465 49.7041 24.7055Z" fill="white" fill-opacity="0.4"/>
<path d="M49.7041 24.7055L49.5338 23.7201C49.2906 23.7622 49.0714 23.8927 48.9187 24.0866L49.7041 24.7055ZM48.0001 22.4628L48.3873 23.3848C48.7586 23.2289 49.0001 22.8655 49.0001 22.4628H48.0001ZM47.8343 22.545L47.3343 21.679L47.3343 21.679L47.8343 22.545ZM44.8962 24.2414L44.3962 23.3754L44.3962 23.3754L44.8962 24.2414ZM44.1845 25.2884L45.1275 25.6213C45.1488 25.5609 45.1642 25.4986 45.1736 25.4353L44.1845 25.2884ZM44.2295 26.7348L45.1501 26.3442L45.1501 26.3442L44.2295 26.7348ZM44.8566 28.2128L45.2522 29.1312C45.7575 28.9136 45.992 28.3287 45.7772 27.8222L44.8566 28.2128ZM38.8673 35.4154L38.0244 34.8773L38.0244 34.8773L38.8673 35.4154ZM30.4848 44.3179L29.5399 44.6454C29.699 45.1045 30.1651 45.3828 30.6447 45.3051L30.4848 44.3179ZM24.8431 28.0382L25.788 27.7107C25.6986 27.4528 25.5076 27.2426 25.2594 27.129C25.0112 27.0153 24.7273 27.0081 24.4737 27.1089L24.8431 28.0382ZM22.8157 28.8443L22.4462 27.915C21.9474 28.1133 21.6941 28.6701 21.8725 29.1765L22.8157 28.8443ZM29.8183 48.727L28.8751 49.0592C28.976 49.3456 29.2016 49.5707 29.4882 49.671C29.7748 49.7712 30.0915 49.7358 30.3489 49.5747L29.8183 48.727ZM31.6216 47.5984L32.1522 48.4461C32.5473 48.1988 32.7191 47.7114 32.5665 47.271L31.6216 47.5984ZM31.2521 46.532L31.1764 45.5349C30.8671 45.5584 30.5862 45.7241 30.416 45.9834C30.2458 46.2428 30.2056 46.5664 30.3072 46.8595L31.2521 46.532ZM40.2996 37.5857L41.1464 38.1175L41.1464 38.1175L40.2996 37.5857ZM45.9894 30.8829L46.91 30.4923C46.7038 30.0062 46.155 29.7642 45.6569 29.9398L45.9894 30.8829ZM46.6412 32.419L47.0082 33.3492C47.259 33.2503 47.4592 33.0542 47.5634 32.8055C47.6677 32.5569 47.6671 32.2766 47.5617 32.0284L46.6412 32.419ZM41.9501 39.507L41.0679 39.036L41.0679 39.036L41.9501 39.507ZM34.5456 49.4542L34.4551 48.4583C34.4038 48.4629 34.3531 48.4715 34.3032 48.484L34.5456 49.4542ZM36.0994 50.896L36.0865 51.896H36.0994V50.896ZM43.5003 41.3726L44.3859 41.8371C44.3889 41.8313 44.3918 41.8256 44.3947 41.8198L43.5003 41.3726ZM43.5003 41.3726L42.6147 40.9081C42.6117 40.9138 42.6088 40.9196 42.6059 40.9253L43.5003 41.3726ZM47.7221 34.9667L48.6427 34.5762C48.4303 34.0755 47.8566 33.8364 47.3515 34.038L47.7221 34.9667ZM54.6777 51.3609L53.7572 51.7515L53.7572 51.7515L54.6777 51.3609ZM56.5849 52.1318L56.9754 53.0524L56.9754 53.0524L56.5849 52.1318ZM57.3558 50.2247L58.2763 49.8341L58.2763 49.8341L57.3558 50.2247ZM47.194 26.2739L46.694 25.4078C46.2566 25.6604 46.0762 26.1995 46.2735 26.6644L47.194 26.2739ZM49.2889 25.0644L49.7889 25.9304L49.7889 25.9304L49.2889 25.0644ZM49.9092 23.2723C49.9092 23.4957 49.747 23.6833 49.5338 23.7201L49.8745 25.6909C51.0302 25.4911 51.9092 24.4854 51.9092 23.2723H49.9092ZM49.9092 18.9086V23.2723H51.9092V18.9086H49.9092ZM49.4547 18.4541C49.7057 18.4541 49.9092 18.6576 49.9092 18.9086H51.9092C51.9092 17.553 50.8103 16.4541 49.4547 16.4541V18.4541ZM49.0001 18.9086C49.0001 18.6576 49.2036 18.4541 49.4547 18.4541V16.4541C48.099 16.4541 47.0001 17.553 47.0001 18.9086H49.0001ZM49.0001 22.4628V18.9086H47.0001V22.4628H49.0001ZM48.3343 23.4111C48.352 23.4009 48.3697 23.3921 48.3873 23.3848L47.613 21.5407C47.5181 21.5806 47.425 21.6267 47.3343 21.679L48.3343 23.4111ZM45.3962 25.1074L48.3343 23.4111L47.3343 21.679L44.3962 23.3754L45.3962 25.1074ZM45.1736 25.4353C45.1937 25.3002 45.2716 25.1793 45.3962 25.1074L44.3962 23.3754C43.7208 23.7653 43.3011 24.4289 43.1953 25.1416L45.1736 25.4353ZM45.1501 26.3442C45.0483 26.1044 45.0469 25.8494 45.1275 25.6213L43.2415 24.9556C43.0013 25.6362 43.0046 26.408 43.3089 27.1253L45.1501 26.3442ZM45.7772 27.8222L45.1501 26.3442L43.3089 27.1253L43.936 28.6034L45.7772 27.8222ZM39.7101 35.9536C40.7611 34.3075 41.7535 32.7549 42.7169 31.5092C43.7036 30.2334 44.5463 29.4353 45.2522 29.1312L44.461 27.2944C43.249 27.8165 42.1412 28.9844 41.1348 30.2857C40.1051 31.6171 39.0617 33.2527 38.0244 34.8773L39.7101 35.9536ZM30.6447 45.3051C32.5305 44.9996 34.1774 43.538 35.5926 41.8579C37.0373 40.1427 38.4172 37.9785 39.7101 35.9536L38.0244 34.8773C36.7126 36.9318 35.4059 38.9751 34.0629 40.5695C32.6904 42.1989 31.4484 43.1488 30.3249 43.3308L30.6447 45.3051ZM23.8983 28.3656L29.5399 44.6454L31.4297 43.9905L25.788 27.7107L23.8983 28.3656ZM23.1851 29.7735L25.2126 28.9674L24.4737 27.1089L22.4462 27.915L23.1851 29.7735ZM30.7616 48.3948L23.7589 28.5121L21.8725 29.1765L28.8751 49.0592L30.7616 48.3948ZM31.0911 46.7508L29.2878 47.8794L30.3489 49.5747L32.1522 48.4461L31.0911 46.7508ZM30.3072 46.8595L30.6768 47.9259L32.5665 47.271L32.197 46.2046L30.3072 46.8595ZM39.4528 37.0538C38.1417 39.1412 36.8237 41.2349 35.401 42.8471C33.9632 44.4765 32.5764 45.4286 31.1764 45.5349L31.3278 47.5292C33.5278 47.3621 35.3647 45.911 36.9006 44.1704C38.4517 42.4127 39.8574 40.1699 41.1464 38.1175L39.4528 37.0538ZM45.6569 29.9398C44.4168 30.377 43.3354 31.4759 42.3809 32.6963C41.4034 33.946 40.4273 35.5021 39.4528 37.0538L41.1464 38.1175C42.1369 36.5405 43.0553 35.0804 43.9563 33.9284C44.8802 32.7471 45.6612 32.059 46.3219 31.826L45.6569 29.9398ZM47.5617 32.0284L46.91 30.4923L45.0689 31.2735L45.7206 32.8096L47.5617 32.0284ZM42.8322 39.978C43.7656 38.2297 44.6341 36.604 45.4099 35.3576C45.7978 34.7344 46.1454 34.2342 46.4496 33.8728C46.601 33.6929 46.7299 33.5617 46.8358 33.4711C46.8879 33.4266 46.9296 33.3961 46.9609 33.3759C46.9763 33.366 46.9881 33.3592 46.9964 33.3549C47.0046 33.3506 47.0085 33.3491 47.0082 33.3492L46.2742 31.4888C45.7431 31.6983 45.2884 32.1466 44.9196 32.5848C44.5265 33.0516 44.1212 33.6432 43.7119 34.3008C42.8934 35.6158 41.9908 37.3075 41.0679 39.036L42.8322 39.978ZM34.6362 50.4501C35.5315 50.3687 36.3238 49.8132 36.9793 49.1822C37.6588 48.5282 38.3313 47.6555 38.9828 46.6868C40.2864 44.7485 41.6126 42.2623 42.8322 39.978L41.0679 39.036C39.8341 41.3469 38.5583 43.7342 37.3232 45.5706C36.7053 46.4893 36.1242 47.2293 35.5924 47.7412C35.0367 48.2761 34.66 48.4397 34.4551 48.4583L34.6362 50.4501ZM36.1123 49.8961C36.0126 49.8948 35.8143 49.8604 35.565 49.7729C35.3223 49.6877 35.1101 49.5797 34.9799 49.4882C34.9133 49.4415 34.9016 49.4223 34.9163 49.4406C34.9221 49.4478 35.0353 49.5855 35.0353 49.831C35.0353 50.1321 34.8702 50.3298 34.7685 50.409C34.6943 50.4668 34.6696 50.454 34.7881 50.4243L34.3032 48.484C34.058 48.5453 33.7782 48.6453 33.5397 48.831C33.2738 49.0381 33.0353 49.3788 33.0353 49.8311C33.0354 50.2278 33.2219 50.5249 33.3569 50.6929C33.5007 50.872 33.6739 51.015 33.8305 51.125C34.1466 51.3469 34.5336 51.5304 34.9024 51.66C35.2647 51.7872 35.6903 51.8908 36.0865 51.8959L36.1123 49.8961ZM42.6147 40.9081C41.4434 43.1413 40.2237 45.4634 39.0062 47.2301C38.3974 48.1135 37.8201 48.8113 37.2854 49.2788C36.7368 49.7584 36.3477 49.896 36.0994 49.896V51.896C37.0539 51.896 37.9006 51.3975 38.6018 50.7845C39.3167 50.1594 40.0031 49.308 40.653 48.365C41.9529 46.4788 43.2309 44.0391 44.3859 41.8371L42.6147 40.9081ZM42.6059 40.9253L42.6059 40.9254L44.3947 41.8198L44.3947 41.8198L42.6059 40.9253ZM47.3515 34.038C46.8439 34.2405 46.4163 34.6556 46.0722 35.0615C45.708 35.4911 45.3392 36.0305 44.9714 36.6258C44.2362 37.8156 43.4353 39.3436 42.6147 40.9081L44.3859 41.8371C45.2176 40.2515 45.9826 38.794 46.6728 37.6771C47.0176 37.1191 47.3263 36.6749 47.5977 36.3549C47.7326 36.1958 47.847 36.0808 47.9405 36.0019C47.9865 35.9631 48.0232 35.9365 48.0507 35.919C48.0642 35.9104 48.0746 35.9046 48.0818 35.9008C48.0891 35.897 48.0927 35.8955 48.0927 35.8955L47.3515 34.038ZM55.5983 50.9703L48.6427 34.5762L46.8015 35.3573L53.7572 51.7515L55.5983 50.9703ZM56.1943 51.2112C55.9632 51.3093 55.6964 51.2014 55.5983 50.9703L53.7572 51.7515C54.2866 52.9994 55.7275 53.5818 56.9754 53.0524L56.1943 51.2112ZM56.4352 50.6152C56.5332 50.8463 56.4254 51.1132 56.1943 51.2112L56.9754 53.0524C58.2234 52.5229 58.8058 51.082 58.2763 49.8341L56.4352 50.6152ZM46.2735 26.6644L56.4352 50.6152L58.2763 49.8341L48.1146 25.8833L46.2735 26.6644ZM48.7889 24.1984L46.694 25.4078L47.694 27.1399L49.7889 25.9304L48.7889 24.1984ZM48.9187 24.0866C48.8849 24.1295 48.842 24.1677 48.7889 24.1984L49.7889 25.9304C50.0656 25.7706 50.3012 25.5635 50.4896 25.3244L48.9187 24.0866Z" fill="#5ABD32"/>
<path d="M26.1818 38.9088L15.5482 46.5649C13.1844 48.2669 14.3883 51.9995 17.3011 51.9996L30.9091 51.9996L30.9091 49.4543L16.3636 49.4543L26.909 41.4543L28.7272 39.2725L26.1818 38.9088Z" fill="#EAEDF4"/>
<path d="M26.1818 38.9088L15.5482 46.5649C13.1844 48.2669 14.3883 51.9995 17.3011 51.9996L30.9091 51.9996L30.9091 49.4543L16.3636 49.4543L26.909 41.4543L28.7272 39.2725L26.1818 38.9088Z" fill="white" fill-opacity="0.4"/>
<path d="M26.1818 38.9088L15.5482 46.5649C13.1844 48.2669 14.3883 51.9995 17.3011 51.9996L30.9091 51.9996L30.9091 49.4543L16.3636 49.4543L26.909 41.4543L28.7272 39.2725L26.1818 38.9088Z" stroke="#5ABD32" stroke-width="2" stroke-linejoin="round"/>
<path d="M41.4545 17.7271L49.4545 17.7271C49.7056 17.7271 49.9091 17.9306 49.9091 18.1817C49.9091 18.4327 49.7056 18.6362 49.4545 18.6362L41.4545 18.6362C41.2035 18.6362 41 18.4327 41 18.1817C41 17.9306 41.2035 17.7271 41.4545 17.7271Z" fill="#EAEDF4"/>
<path d="M41.4545 17.7271L49.4545 17.7271C49.7056 17.7271 49.9091 17.9306 49.9091 18.1817C49.9091 18.4327 49.7056 18.6362 49.4545 18.6362L41.4545 18.6362C41.2035 18.6362 41 18.4327 41 18.1817C41 17.9306 41.2035 17.7271 41.4545 17.7271Z" fill="white" fill-opacity="0.4"/>
<path d="M41.4545 17.7271L49.4545 17.7271C49.7056 17.7271 49.9091 17.9306 49.9091 18.1817C49.9091 18.4327 49.7056 18.6362 49.4545 18.6362L41.4545 18.6362C41.2035 18.6362 41 18.4327 41 18.1817C41 17.9306 41.2035 17.7271 41.4545 17.7271Z" stroke="#5ABD32" stroke-width="2" stroke-linejoin="round"/>
<path d="M23.3014 36.4695C23.305 36.4768 23.3064 36.48 23.3063 36.4798C23.3061 36.4796 23.3043 36.4759 23.3014 36.4695ZM24.9642 35.3272C24.9431 35.2311 24.9165 35.1478 24.8953 35.0864C24.8441 34.9373 24.7748 34.7777 24.693 34.6165C24.5293 34.294 24.2932 33.9215 23.9882 33.5639C23.3951 32.8687 22.4149 32.0908 21.091 32.0908H4.80005C4.5348 32.0908 4.28041 32.1962 4.09287 32.3838C3.90533 32.5714 3.8 32.8258 3.80005 33.091L3.80034 34.5456C3.80045 35.0978 4.24813 35.5454 4.80034 35.5454H6.90919C7.19721 35.5454 7.71942 35.7224 8.43919 36.5362C8.72875 36.8637 9.06315 37.4704 9.42924 38.2786C9.67016 38.8105 9.89694 39.3639 10.1211 39.9111C10.232 40.1816 10.3422 40.4505 10.4532 40.7146C10.5594 40.9673 10.6627 41.2107 10.7629 41.4466C11.6123 43.447 12.2357 44.915 12.4603 47.0153C12.4966 47.3552 12.704 47.6529 13.0102 47.8048C13.3164 47.9567 13.679 47.9417 13.9715 47.765L14.2726 47.5832C14.3137 47.5584 14.353 47.5307 14.3901 47.5002L15.0547 46.9548C15.3248 46.7331 15.4596 46.3866 15.4104 46.0408C15.0579 43.5653 14.5969 41.6578 13.6379 39.3761C13.5513 39.1702 13.4603 38.9494 13.3653 38.7194C13.1024 38.0822 12.8102 37.3739 12.5034 36.712C12.3224 36.3212 12.1262 35.9235 11.9146 35.5454H21.091C22.0132 35.5454 22.6917 36.0049 23.1002 36.3762C23.1994 36.4665 23.2793 36.5485 23.3405 36.6138C23.3641 36.639 23.3829 36.6595 23.4021 36.6805C23.4093 36.6884 23.4166 36.6964 23.4243 36.7047C23.4246 36.7051 23.4252 36.7057 23.4261 36.7067C23.4381 36.7199 23.4979 36.7859 23.5596 36.8387C23.5778 36.8544 23.6343 36.9024 23.7149 36.9492C23.7547 36.9722 23.8359 37.0161 23.9473 37.0475C24.049 37.0762 24.2791 37.1239 24.5502 37.0291C24.8671 36.9183 25.0591 36.6789 25.148 36.4595C25.2229 36.2744 25.2231 36.1145 25.2206 36.0459C25.2156 35.908 25.1822 35.8025 25.174 35.7764L25.1735 35.775C25.1427 35.6772 25.0935 35.5809 25.0841 35.5624C25.0835 35.5612 25.083 35.5603 25.0827 35.5598C25.067 35.5283 25.0464 35.4881 25.0243 35.445C25.0181 35.4329 25.0118 35.4206 25.0055 35.4083C24.9928 35.3835 24.9791 35.3565 24.9642 35.3272Z" fill="#EAEDF4"/>
<path d="M23.3014 36.4695C23.305 36.4768 23.3064 36.48 23.3063 36.4798C23.3061 36.4796 23.3043 36.4759 23.3014 36.4695ZM24.9642 35.3272C24.9431 35.2311 24.9165 35.1478 24.8953 35.0864C24.8441 34.9373 24.7748 34.7777 24.693 34.6165C24.5293 34.294 24.2932 33.9215 23.9882 33.5639C23.3951 32.8687 22.4149 32.0908 21.091 32.0908H4.80005C4.5348 32.0908 4.28041 32.1962 4.09287 32.3838C3.90533 32.5714 3.8 32.8258 3.80005 33.091L3.80034 34.5456C3.80045 35.0978 4.24813 35.5454 4.80034 35.5454H6.90919C7.19721 35.5454 7.71942 35.7224 8.43919 36.5362C8.72875 36.8637 9.06315 37.4704 9.42924 38.2786C9.67016 38.8105 9.89694 39.3639 10.1211 39.9111C10.232 40.1816 10.3422 40.4505 10.4532 40.7146C10.5594 40.9673 10.6627 41.2107 10.7629 41.4466C11.6123 43.447 12.2357 44.915 12.4603 47.0153C12.4966 47.3552 12.704 47.6529 13.0102 47.8048C13.3164 47.9567 13.679 47.9417 13.9715 47.765L14.2726 47.5832C14.3137 47.5584 14.353 47.5307 14.3901 47.5002L15.0547 46.9548C15.3248 46.7331 15.4596 46.3866 15.4104 46.0408C15.0579 43.5653 14.5969 41.6578 13.6379 39.3761C13.5513 39.1702 13.4603 38.9494 13.3653 38.7194C13.1024 38.0822 12.8102 37.3739 12.5034 36.712C12.3224 36.3212 12.1262 35.9235 11.9146 35.5454H21.091C22.0132 35.5454 22.6917 36.0049 23.1002 36.3762C23.1994 36.4665 23.2793 36.5485 23.3405 36.6138C23.3641 36.639 23.3829 36.6595 23.4021 36.6805C23.4093 36.6884 23.4166 36.6964 23.4243 36.7047C23.4246 36.7051 23.4252 36.7057 23.4261 36.7067C23.4381 36.7199 23.4979 36.7859 23.5596 36.8387C23.5778 36.8544 23.6343 36.9024 23.7149 36.9492C23.7547 36.9722 23.8359 37.0161 23.9473 37.0475C24.049 37.0762 24.2791 37.1239 24.5502 37.0291C24.8671 36.9183 25.0591 36.6789 25.148 36.4595C25.2229 36.2744 25.2231 36.1145 25.2206 36.0459C25.2156 35.908 25.1822 35.8025 25.174 35.7764L25.1735 35.775C25.1427 35.6772 25.0935 35.5809 25.0841 35.5624C25.0835 35.5612 25.083 35.5603 25.0827 35.5598C25.067 35.5283 25.0464 35.4881 25.0243 35.445C25.0181 35.4329 25.0118 35.4206 25.0055 35.4083C24.9928 35.3835 24.9791 35.3565 24.9642 35.3272Z" fill="white" fill-opacity="0.4"/>
<path d="M23.3014 36.4695C23.305 36.4768 23.3064 36.48 23.3063 36.4798C23.3061 36.4796 23.3043 36.4759 23.3014 36.4695ZM24.9642 35.3272C24.9431 35.2311 24.9165 35.1478 24.8953 35.0864C24.8441 34.9373 24.7748 34.7777 24.693 34.6165C24.5293 34.294 24.2932 33.9215 23.9882 33.5639C23.3951 32.8687 22.4149 32.0908 21.091 32.0908H4.80005C4.5348 32.0908 4.28041 32.1962 4.09287 32.3838C3.90533 32.5714 3.8 32.8258 3.80005 33.091L3.80034 34.5456C3.80045 35.0978 4.24813 35.5454 4.80034 35.5454H6.90919C7.19721 35.5454 7.71942 35.7224 8.43919 36.5362C8.72875 36.8637 9.06315 37.4704 9.42924 38.2786C9.67016 38.8105 9.89694 39.3639 10.1211 39.9111C10.232 40.1816 10.3422 40.4505 10.4532 40.7146C10.5594 40.9673 10.6627 41.2107 10.7629 41.4466C11.6123 43.447 12.2357 44.915 12.4603 47.0153C12.4966 47.3552 12.704 47.6529 13.0102 47.8048C13.3164 47.9567 13.679 47.9417 13.9715 47.765L14.2726 47.5832C14.3137 47.5584 14.353 47.5307 14.3901 47.5002L15.0547 46.9548C15.3248 46.7331 15.4596 46.3866 15.4104 46.0408C15.0579 43.5653 14.5969 41.6578 13.6379 39.3761C13.5513 39.1702 13.4603 38.9494 13.3653 38.7194C13.1024 38.0822 12.8102 37.3739 12.5034 36.712C12.3224 36.3212 12.1262 35.9235 11.9146 35.5454H21.091C22.0132 35.5454 22.6917 36.0049 23.1002 36.3762C23.1994 36.4665 23.2793 36.5485 23.3405 36.6138C23.3641 36.639 23.3829 36.6595 23.4021 36.6805C23.4093 36.6884 23.4166 36.6964 23.4243 36.7047C23.4246 36.7051 23.4252 36.7057 23.4261 36.7067C23.4381 36.7199 23.4979 36.7859 23.5596 36.8387C23.5778 36.8544 23.6343 36.9024 23.7149 36.9492C23.7547 36.9722 23.8359 37.0161 23.9473 37.0475C24.049 37.0762 24.2791 37.1239 24.5502 37.0291C24.8671 36.9183 25.0591 36.6789 25.148 36.4595C25.2229 36.2744 25.2231 36.1145 25.2206 36.0459C25.2156 35.908 25.1822 35.8025 25.174 35.7764L25.1735 35.775C25.1427 35.6772 25.0935 35.5809 25.0841 35.5624C25.0835 35.5612 25.083 35.5603 25.0827 35.5598C25.067 35.5283 25.0464 35.4881 25.0243 35.445C25.0181 35.4329 25.0118 35.4206 25.0055 35.4083C24.9928 35.3835 24.9791 35.3565 24.9642 35.3272Z" stroke="#5ABD32" stroke-width="2" stroke-linecap="round" stroke-linejoin="round"/>
<path d="M51.68 33.6603L51.68 33.6603L51.673 33.6628C50.8674 33.9447 50.4429 34.8264 50.7249 35.632C51.0068 36.4376 51.8885 36.8621 52.6941 36.5801L52.3672 35.6462L52.6941 36.5801C53.5747 36.2719 54.1883 36.0679 54.7481 35.8818C55.4775 35.6394 56.1156 35.4272 57.1343 35.0543L65.0824 32.1453C65.9722 31.8196 66.5318 30.9361 66.446 29.9924L65.7188 21.9924C65.6601 21.3476 65.3061 20.7663 64.76 20.4183C64.2139 20.0704 63.5374 19.9951 62.9282 20.2144L63.2635 21.1459L62.9282 20.2144L53.8373 23.4872C52.8309 23.8495 52.2602 24.9129 52.5146 25.9518L52.5146 25.9518L52.5162 25.9582L54.2364 32.7869L51.68 33.6603ZM63.2982 29.5068L57.1212 31.7677L55.7309 26.0906L62.7577 23.5609L63.2982 29.5068Z" fill="#EAEDF4"/>
<path d="M51.68 33.6603L51.68 33.6603L51.673 33.6628C50.8674 33.9447 50.4429 34.8264 50.7249 35.632C51.0068 36.4376 51.8885 36.8621 52.6941 36.5801L52.3672 35.6462L52.6941 36.5801C53.5747 36.2719 54.1883 36.0679 54.7481 35.8818C55.4775 35.6394 56.1156 35.4272 57.1343 35.0543L65.0824 32.1453C65.9722 31.8196 66.5318 30.9361 66.446 29.9924L65.7188 21.9924C65.6601 21.3476 65.3061 20.7663 64.76 20.4183C64.2139 20.0704 63.5374 19.9951 62.9282 20.2144L63.2635 21.1459L62.9282 20.2144L53.8373 23.4872C52.8309 23.8495 52.2602 24.9129 52.5146 25.9518L52.5146 25.9518L52.5162 25.9582L54.2364 32.7869L51.68 33.6603ZM63.2982 29.5068L57.1212 31.7677L55.7309 26.0906L62.7577 23.5609L63.2982 29.5068Z" fill="white" fill-opacity="0.4"/>
<path d="M51.68 33.6603L51.68 33.6603L51.673 33.6628C50.8674 33.9447 50.4429 34.8264 50.7249 35.632C51.0068 36.4376 51.8885 36.8621 52.6941 36.5801L52.3672 35.6462L52.6941 36.5801C53.5747 36.2719 54.1883 36.0679 54.7481 35.8818C55.4775 35.6394 56.1156 35.4272 57.1343 35.0543L65.0824 32.1453C65.9722 31.8196 66.5318 30.9361 66.446 29.9924L65.7188 21.9924C65.6601 21.3476 65.3061 20.7663 64.76 20.4183C64.2139 20.0704 63.5374 19.9951 62.9282 20.2144L63.2635 21.1459L62.9282 20.2144L53.8373 23.4872C52.8309 23.8495 52.2602 24.9129 52.5146 25.9518L52.5146 25.9518L52.5162 25.9582L54.2364 32.7869L51.68 33.6603ZM63.2982 29.5068L57.1212 31.7677L55.7309 26.0906L62.7577 23.5609L63.2982 29.5068Z" stroke="#5ABD32" stroke-width="2" stroke-linecap="round" stroke-linejoin="round"/>
<path d="M57.8181 25.0906L58.909 31.2724M60.3636 24.3633L61.4545 30.1815" stroke="#5ABD32" stroke-width="2" stroke-linecap="round" stroke-linejoin="round"/>
<circle cx="31.6365" cy="51.2727" r="4.72727" fill="#EAEDF4"/>
<circle cx="31.6365" cy="51.2727" r="4.72727" fill="white" fill-opacity="0.4"/>
<circle cx="31.6365" cy="51.2727" r="4.72727" stroke="#5ABD32" stroke-width="2"/>
<path d="M18.3608 24.0342C17.909 24.012 17.4805 24.2356 17.2403 24.6188C17.0001 25.002 16.9856 25.4851 17.2025 25.8821C17.3349 26.1244 17.4309 26.3201 17.5288 26.5197C17.5766 26.617 17.6248 26.7153 17.6779 26.8204C17.8238 27.109 18.0091 27.4525 18.2858 27.7673L18.2858 27.7674C19.2607 28.8764 20.7221 29.5823 22.1726 29.8384C23.6188 30.0938 25.2618 29.9358 26.5535 29.0406L26.5536 29.0405C27.8456 28.1449 28.9433 27.6706 29.7525 27.4075C30.3599 27.21 30.7393 27.1423 31.0536 27.0862C31.188 27.0623 31.3104 27.0404 31.4337 27.0115L31.435 27.0112C31.5271 26.9896 32.0382 26.8696 32.3098 26.333C32.6598 25.6415 32.2653 25.072 32.1338 24.9189C31.9766 24.7359 31.8028 24.6349 31.7089 24.5866C31.5971 24.5291 31.4814 24.4869 31.3681 24.4585C29.1256 23.8961 26.9135 23.8589 24.7696 23.9201C24.1705 23.9372 23.5821 23.9615 22.999 23.9855C21.4504 24.0494 19.9387 24.1118 18.3608 24.0342Z" fill="#EAEDF4"/>
<path d="M18.3608 24.0342C17.909 24.012 17.4805 24.2356 17.2403 24.6188C17.0001 25.002 16.9856 25.4851 17.2025 25.8821C17.3349 26.1244 17.4309 26.3201 17.5288 26.5197C17.5766 26.617 17.6248 26.7153 17.6779 26.8204C17.8238 27.109 18.0091 27.4525 18.2858 27.7673L18.2858 27.7674C19.2607 28.8764 20.7221 29.5823 22.1726 29.8384C23.6188 30.0938 25.2618 29.9358 26.5535 29.0406L26.5536 29.0405C27.8456 28.1449 28.9433 27.6706 29.7525 27.4075C30.3599 27.21 30.7393 27.1423 31.0536 27.0862C31.188 27.0623 31.3104 27.0404 31.4337 27.0115L31.435 27.0112C31.5271 26.9896 32.0382 26.8696 32.3098 26.333C32.6598 25.6415 32.2653 25.072 32.1338 24.9189C31.9766 24.7359 31.8028 24.6349 31.7089 24.5866C31.5971 24.5291 31.4814 24.4869 31.3681 24.4585C29.1256 23.8961 26.9135 23.8589 24.7696 23.9201C24.1705 23.9372 23.5821 23.9615 22.999 23.9855C21.4504 24.0494 19.9387 24.1118 18.3608 24.0342Z" fill="white" fill-opacity="0.4"/>
<path d="M18.3608 24.0342C17.909 24.012 17.4805 24.2356 17.2403 24.6188C17.0001 25.002 16.9856 25.4851 17.2025 25.8821C17.3349 26.1244 17.4309 26.3201 17.5288 26.5197C17.5766 26.617 17.6248 26.7153 17.6779 26.8204C17.8238 27.109 18.0091 27.4525 18.2858 27.7673L18.2858 27.7674C19.2607 28.8764 20.7221 29.5823 22.1726 29.8384C23.6188 30.0938 25.2618 29.9358 26.5535 29.0406L26.5536 29.0405C27.8456 28.1449 28.9433 27.6706 29.7525 27.4075C30.3599 27.21 30.7393 27.1423 31.0536 27.0862C31.188 27.0623 31.3104 27.0404 31.4337 27.0115L31.435 27.0112C31.5271 26.9896 32.0382 26.8696 32.3098 26.333C32.6598 25.6415 32.2653 25.072 32.1338 24.9189C31.9766 24.7359 31.8028 24.6349 31.7089 24.5866C31.5971 24.5291 31.4814 24.4869 31.3681 24.4585C29.1256 23.8961 26.9135 23.8589 24.7696 23.9201C24.1705 23.9372 23.5821 23.9615 22.999 23.9855C21.4504 24.0494 19.9387 24.1118 18.3608 24.0342Z" stroke="#5ABD32" stroke-width="2.5" stroke-linejoin="round"/>
</svg>
