<svg width="25" height="24" viewBox="0 0 25 24" fill="none" xmlns="http://www.w3.org/2000/svg">
<g clip-path="url(#clip0_5112_37511)">
<path fill-rule="evenodd" clip-rule="evenodd" d="M0.5 5C0.5 3.34315 1.84315 2 3.5 2H14.5C16.1569 2 17.5 3.34315 17.5 5V7.17071C17.8128 7.06015 18.1494 7 18.5 7H19.3457C20.1562 7 20.9322 7.32792 21.4971 7.90912L23.6513 10.1257C24.1955 10.6856 24.5 11.4357 24.5 12.2165V17C24.5 18.6569 23.1569 20 21.5 20H20.9172C20.977 19.7921 21.009 19.5725 21.009 19.3455C21.009 18.8455 20.8538 18.3819 20.589 18H21.5C22.0523 18 22.5 17.5523 22.5 17V12.2165C22.5 11.9563 22.3985 11.7062 22.2171 11.5196L20.0628 9.30304C19.8746 9.10931 19.6159 9 19.3457 9H18.5C17.9477 9 17.5 9.44772 17.5 10V17C17.5 17.0896 17.5118 17.1764 17.5339 17.259C16.7888 17.6567 16.2818 18.4419 16.2818 19.3455C16.2818 19.3681 16.2821 19.3906 16.2827 19.4131C15.7843 19.7819 15.1676 20 14.5 20H8.62647C8.68624 19.7921 8.71827 19.5725 8.71827 19.3455C8.71827 18.8455 8.56306 18.3819 8.29821 18H14.5C15.0523 18 15.5 17.5523 15.5 17V10V5C15.5 4.44772 15.0523 4 14.5 4H3.5C2.94772 4 2.5 4.44772 2.5 5V8.00005H0.5V5ZM0.5 12V17C0.5 18.6569 1.84315 20 3.5 20H4.08279C4.02301 19.7921 3.99099 19.5725 3.99099 19.3455C3.99099 18.8455 4.1462 18.3819 4.41105 18H3.5C2.94772 18 2.5 17.5523 2.5 17V12H0.5Z" fill="#6E7282"/>
<path d="M6.3546 21.7273C7.66001 21.7273 8.71824 20.669 8.71824 19.3636C8.71824 18.0582 7.66001 17 6.3546 17C5.0492 17 3.99097 18.0582 3.99097 19.3636C3.99097 20.669 5.0492 21.7273 6.3546 21.7273Z" stroke="#6E7282" stroke-width="2" stroke-linecap="round" stroke-linejoin="round"/>
<path d="M18.6454 21.7273C19.9508 21.7273 21.009 20.669 21.009 19.3636C21.009 18.0582 19.9508 17 18.6454 17C17.34 17 16.2817 18.0582 16.2817 19.3636C16.2817 20.669 17.34 21.7273 18.6454 21.7273Z" stroke="#6E7282" stroke-width="2" stroke-linecap="round" stroke-linejoin="round"/>
<path d="M8.5 8H1.5" stroke="#6E7282" stroke-width="2" stroke-linecap="round" stroke-linejoin="round"/>
<path d="M5.5 12H1.5" stroke="#6E7282" stroke-width="2" stroke-linecap="round" stroke-linejoin="round"/>
</g>
<defs>
<clipPath id="clip0_5112_37511">
<rect width="24" height="24" fill="white" transform="translate(0.5)"/>
</clipPath>
</defs>
</svg>
