<svg width="24" height="24" viewBox="0 0 24 24" fill="none" xmlns="http://www.w3.org/2000/svg">
<g clip-path="url(#clip0_5112_5754)">
<path fill-rule="evenodd" clip-rule="evenodd" d="M17.723 19C16.208 20.4538 14.1779 21.3435 12.0195 21.3435C8.14833 21.3435 4.8461 18.6772 3.94083 15.0573L3.69608 14.0786L2.71957 14.332C2.67418 14.3438 2.62568 14.3503 2.57421 14.3503C2.25708 14.3503 2 14.0932 2 13.7761C2 13.459 2.25708 13.2019 2.57421 13.2019C2.59298 13.2019 2.61137 13.2028 2.62936 13.2044L3.64095 13.2987L3.7192 12.2858C3.7367 12.0593 3.76367 11.8352 3.79972 11.614H1.17653C0.468488 12.0727 0 12.8697 0 13.7761C0 15.0814 0.971477 16.1597 2.23083 16.3276C3.61197 20.4195 7.50196 23.3435 12.0195 23.3435C15.3851 23.3435 18.4604 21.6303 20.3628 19H17.723ZM24 14.2265C24.0258 14.0803 24.0393 13.9298 24.0393 13.7761C24.0393 13.6225 24.0258 13.4719 24 13.3257V14.2265Z" fill="#C5CEF6"/>
<path d="M9.47583 13.0193H9.95865" stroke="#C5CEF6" stroke-width="2" stroke-linecap="round" stroke-linejoin="round"/>
<path d="M14.5618 13.0193H15.0446" stroke="#C5CEF6" stroke-width="2" stroke-linecap="round" stroke-linejoin="round"/>
<path d="M6.50953 4.1189C2.80105 4.11895 2.27127 8.60375 2.27127 11.3239C4.81422 14.7145 4.81422 7.50951 7.78101 7.08568" stroke="#C5CEF6" stroke-width="2" stroke-linecap="round"/>
<path d="M20.4956 6.66187C20.9194 7.50952 21.7671 8.60376 21.7671 11.324C18.3765 14.7146 19.6479 8.35717 16.6812 7.93334" stroke="#C5CEF6" stroke-width="2" stroke-linecap="round"/>
<path d="M11.8614 2C16.9708 2 17.95 3.37562 21.8844 4.48545C22.1547 4.5617 22.2764 4.83906 22.1236 5.05074C21.2699 6.23347 18.0922 9.31626 9.06444 7.22291C8.0073 6.9778 7.19437 6.2229 6.98005 5.27385C6.73176 4.17433 7.48626 3.08539 8.62067 2.58756C9.52171 2.19217 10.7034 2 11.8614 2Z" stroke="#C5CEF6" stroke-width="2"/>
<path d="M20.2807 11.3597C20.2807 10.6087 20.8894 10 21.6403 10C22.3913 10 23 10.6087 23 11.3597V14.9854C23 15.7363 22.3913 16.345 21.6403 16.345C20.8894 16.345 20.2807 15.7363 20.2807 14.9854V11.3597Z" fill="#C5CEF6" stroke="#C5CEF6" stroke-width="2"/>
<path d="M21.5 16.5V16.5C21.5 17.8807 20.3807 19 19 19H12" stroke="#C5CEF6" stroke-width="2" stroke-linecap="round" stroke-linejoin="round"/>
</g>
<defs>
<clipPath id="clip0_5112_5754">
<rect width="24" height="24" fill="#C5CEF6"/>
</clipPath>
</defs>
</svg>
