<svg width="24" height="25" viewBox="0 0 24 25" fill="none" xmlns="http://www.w3.org/2000/svg">
<path d="M4.54538 19.27L4.54536 19.27C3.37137 18.789 2.68159 17.54 2.87945 16.2439C3.06573 15.0236 2.67616 13.6567 2.16105 12.6956C1.58679 11.6241 1.86132 10.3638 2.88711 9.44563C3.799 8.62943 4.36605 7.34314 4.57785 6.27814C4.81113 5.10512 5.79305 4.33095 7.15694 4.27071L7.2683 4.26579C8.44709 4.21372 9.64127 3.62262 10.4585 2.95733C11.3646 2.21973 12.5976 2.24199 13.6483 3.03778L13.8225 3.16968C14.7587 3.87871 16.052 4.20369 17.0956 4.24617C18.3008 4.29523 19.239 5.14114 19.5417 6.46755L19.5718 6.59964C19.8315 7.73769 20.6089 8.82801 21.3662 9.53669C22.2573 10.3708 22.4299 11.6196 21.8236 12.8571L21.6958 13.1178C21.2636 14 21.0778 14.9826 21.1582 15.9617L21.2071 16.5582C21.3052 17.7539 20.6062 18.872 19.4883 19.3075C18.4513 19.7115 17.6113 20.4588 17.0395 21.3582C17.0002 21.42 16.9603 21.4826 16.9198 21.5457C16.2513 22.5881 14.9383 23.0377 13.7287 22.6337C12.5994 22.2566 11.2347 22.3937 10.2332 22.7235C9.09798 23.0973 7.91318 22.6066 7.18626 21.4386C6.56981 20.4481 5.62839 19.7125 4.59119 19.2887C4.59119 19.2887 4.59118 19.2887 4.59117 19.2887L4.54538 19.27Z" stroke="#6E7282" stroke-width="2" stroke-linecap="round" stroke-linejoin="round"/>
<path d="M14.3971 8.13793L9.63264 17.0877" stroke="#6E7282" stroke-width="2" stroke-linecap="round"/>
<circle cx="8.46068" cy="9.81777" r="1.80134" transform="rotate(-30 8.46068 9.81777)" stroke="#6E7282" stroke-width="2"/>
<circle cx="15.3723" cy="15.872" r="1.84105" transform="rotate(-30 15.3723 15.872)" stroke="#6E7282" stroke-width="2"/>
</svg>
