<svg width="111" height="40" viewBox="0 0 111 40" fill="none" xmlns="http://www.w3.org/2000/svg">
<circle cx="20" cy="20" r="20" fill="#5ABD32"/>
<path d="M16 31C16.5523 31 17 30.5523 17 30C17 29.4477 16.5523 29 16 29C15.4477 29 15 29.4477 15 30C15 30.5523 15.4477 31 16 31Z" stroke="white" stroke-width="2" stroke-linecap="round" stroke-linejoin="round"/>
<path d="M26 31C26.5523 31 27 30.5523 27 30C27 29.4477 26.5523 29 26 29C25.4477 29 25 29.4477 25 30C25 30.5523 25.4477 31 26 31Z" stroke="white" stroke-width="2" stroke-linecap="round" stroke-linejoin="round"/>
<path d="M9 9H12L14.68 23.39C14.7714 23.8504 15.0219 24.264 15.3875 24.5583C15.7532 24.8526 16.2107 25.009 16.68 25H27.4C27.8693 25.009 28.3268 24.8526 28.6925 24.5583C29.0581 24.264 29.3086 23.8504 29.4 23.39L31 14H13" stroke="white" stroke-width="2" stroke-linecap="round" stroke-linejoin="round"/>
<path fill-rule="evenodd" clip-rule="evenodd" d="M35.0996 36C39.3483 31.9889 41.9999 26.3041 41.9999 20C41.9999 14.6815 40.1126 9.80376 36.9712 6H101C106.523 6 111 10.4772 111 16V26C111 31.5228 106.523 36 101 36H35.0996Z" fill="#5460A8"/>
</svg>
